<?xml version="1.0" standalone="no"?>
<!DOCTYPE svg PUBLIC "-//W3C//DTD SVG 1.1//EN" "http://www.w3.org/Graphics/SVG/1.1/DTD/svg11.dtd" >
<svg xmlns="http://www.w3.org/2000/svg" xmlns:xlink="http://www.w3.org/1999/xlink" version="1.1">
<metadata>
Created by FontForge 20170731 at Thu Jul 27 02:25:53 2017
 By Aleksey,,,
Copyright 2017 Google Inc. All Rights Reserved.
</metadata>
<defs>
<font id="GoogleSans-MediumItalic" horiz-adv-x="650" >
  <font-face 
    font-family="Google Sans Medium"
    font-weight="500"
    font-style="italic"
    font-stretch="normal"
    units-per-em="1000"
    panose-1="2 11 6 3 3 5 2 11 2 4"
    ascent="800"
    descent="-200"
    x-height="510"
    cap-height="716"
    bbox="-410 -265 1561 962"
    underline-thickness="84"
    underline-position="-244"
    slope="-10"
    unicode-range="U+0002-2792"
  />
<missing-glyph horiz-adv-x="570" 
d="M498 716v-716h-426v716h426zM434 60v596h-298v-596h298z" />
    <glyph glyph-name="f_b.liga" unicode="fb" horiz-adv-x="992" 
d="M561.5 7.5q-42.5 23.5 -65.5 58.5h-6l-11 -66h-104l109 619h-133q-37 0 -60 -20t-30 -59l-6 -30h125l-17 -97h-125l-72 -413h-110l72 413h-93l17 97h93l7 36q30 174 217 174h243l-37 -205l-18 -72h6q22 35 64 59t99 24q60 0 108.5 -30t76.5 -84.5t28 -124.5
q0 -84 -36.5 -153t-100.5 -109.5t-143 -40.5q-55 0 -97.5 23.5zM740 109.5q41 24.5 64.5 68t23.5 99.5q0 63 -39 105t-98 42q-49 0 -88.5 -27t-61.5 -72.5t-22 -98.5q0 -42 17.5 -74t47.5 -49.5t65 -17.5q50 0 91 24.5z" />
    <glyph glyph-name="f_f.liga" unicode="ff" horiz-adv-x="718" 
d="M128 413h-93l17 97h93l7 40q13 82 68.5 128t138.5 46q37 0 66 -9l-19 -107q-28 13 -58 13q-32 0 -56.5 -21t-30.5 -58l-6 -32h210l7 40q13 82 69 128t139 46q45 0 77 -13l-19 -106q-30 16 -67 16q-32 0 -58 -21t-32 -58l-6 -32h128l-17 -97h-128l-73 -413h-110l73 413
h-210l-73 -413h-110z" />
    <glyph glyph-name="f_f_b.liga" unicode="ffb" horiz-adv-x="1311" 
d="M880 7.5q-43 23.5 -65 58.5h-6l-12 -66h-103l109 619h-133q-37 0 -60.5 -20t-30.5 -59l-5 -30h125l-17 -97h-125l-72 -413h-110l72 413h-209l-73 -413h-110l73 413h-93l17 97h93l7 40q13 82 68.5 128t138.5 46q37 0 66 -9l-19 -107q-28 13 -58 13q-32 0 -56.5 -21
t-30.5 -58l-6 -32h209l6 36q15 84 68.5 129t148.5 45h244l-37 -205l-18 -72h5q22 35 64.5 59t99.5 24q60 0 108.5 -30t76.5 -84.5t28 -124.5q0 -84 -36.5 -153t-100.5 -109.5t-143 -40.5q-55 0 -98 23.5zM1059 109.5q41 24.5 64.5 68t23.5 99.5q0 63 -39 105t-98 42
q-49 0 -88.5 -27t-61.5 -72.5t-22 -98.5q0 -42 17.5 -74t47.5 -49.5t65 -17.5q50 0 91 24.5z" />
    <glyph glyph-name="f_f_h.liga" unicode="ffh" horiz-adv-x="1277" 
d="M128 413h-93l17 97h93l7 40q13 82 68.5 128t138.5 46q37 0 66 -9l-19 -107q-28 13 -58 13q-32 0 -56.5 -21t-30.5 -58l-6 -32h209l6 36q15 84 68.5 129t148.5 45h244l-35 -199l-20 -78h6q26 39 68.5 61t97.5 22q77 0 120.5 -42.5t43.5 -111.5q0 -33 -7 -67l-54 -305h-110
l54 299q4 21 4 44q0 37 -26 59t-67 22q-59 0 -99.5 -42t-53.5 -113l-49 -269h-110l109 619h-133q-37 0 -60.5 -20t-30.5 -59l-5 -30h125l-17 -97h-125l-72 -413h-110l72 413h-209l-73 -413h-110z" />
    <glyph glyph-name="f_f_i.liga" unicode="ffi" horiz-adv-x="939" 
d="M809.5 604.5q-21.5 21.5 -21.5 52.5t21.5 52.5t52.5 21.5t52.5 -21.5t21.5 -52.5t-21.5 -52.5t-52.5 -21.5t-52.5 21.5zM128 413h-93l17 97h93l7 40q13 82 68.5 128t138.5 46q37 0 66 -9l-19 -107q-28 13 -58 13q-32 0 -56.5 -21t-30.5 -58l-6 -32h209l7 40
q13 82 68.5 128t137.5 46q38 0 67 -9l-19 -107q-28 13 -58 13q-32 0 -56.5 -21t-30.5 -58l-6 -32h319l-89 -510h-110l72 413h-209l-73 -413h-110l73 413h-209l-73 -413h-110z" />
    <glyph glyph-name="f_f_j.liga" unicode="ffj" horiz-adv-x="939" 
d="M809.5 604.5q-21.5 21.5 -21.5 52.5t21.5 52.5t52.5 21.5t52.5 -21.5t21.5 -52.5t-21.5 -52.5t-52.5 -21.5t-52.5 21.5zM555 -218l18 103q17 -10 46 -10t43.5 16t19.5 47l84 475h-209l-73 -413h-110l73 413h-209l-73 -413h-110l73 413h-93l17 97h93l7 40q13 82 68.5 128
t138.5 46q37 0 66 -9l-19 -107q-28 13 -58 13q-32 0 -56.5 -21t-30.5 -58l-6 -32h209l7 40q13 82 68.5 128t137.5 46q38 0 67 -9l-19 -107q-28 13 -58 13q-32 0 -56.5 -21t-30.5 -58l-6 -32h319l-101 -577q-16 -90 -60 -124.5t-117 -34.5q-30 0 -60 8z" />
    <glyph glyph-name="f_f_k.liga" unicode="ffk" horiz-adv-x="1229" 
d="M128 413h-93l17 97h93l7 40q13 82 68.5 128t138.5 46q37 0 66 -9l-19 -107q-28 13 -58 13q-32 0 -56.5 -21t-30.5 -58l-6 -32h209l6 36q15 84 68.5 129t148.5 45h244l-73 -415h3l237 205h145l-1 -6l-236 -199l151 -299l-1 -6h-127l-111 231l-86 -73l-28 -158h-110
l109 619h-133q-37 0 -60.5 -20t-30.5 -59l-5 -30h125l-17 -97h-125l-72 -413h-110l72 413h-209l-73 -413h-110z" />
    <glyph glyph-name="f_f_l.liga" unicode="ffl" horiz-adv-x="934" 
d="M128 413h-93l17 97h93l7 40q13 82 68.5 128t138.5 46q37 0 66 -9l-19 -107q-28 13 -58 13q-32 0 -56.5 -21t-30.5 -58l-6 -32h209l6 36q15 84 68.5 129t148.5 45h244l-127 -720h-110l109 619h-133q-37 0 -60.5 -20t-30.5 -59l-5 -30h125l-17 -97h-125l-72 -413h-110
l72 413h-209l-73 -413h-110z" />
    <glyph glyph-name="f_f_t.liga" unicode="fft" horiz-adv-x="1041" 
d="M754.5 25q-36.5 33 -36.5 92q0 18 5 51l43 245h-209l-73 -413h-110l73 413h-209l-73 -413h-110l73 413h-93l17 97h93l7 40q13 82 68.5 128t138.5 46q37 0 66 -9l-19 -107q-28 13 -58 13q-32 0 -56.5 -21t-30.5 -58l-6 -32h209l7 40q13 82 68.5 128t137.5 46q38 0 67 -9
l-19 -107q-28 13 -58 13q-32 0 -56.5 -21t-30.5 -58l-6 -32h209l26 144h110l-26 -144h125l-17 -97h-125l-41 -235q-4 -20 -4 -33q0 -23 14 -36.5t39 -13.5q32 0 58 17l-4 -104q-35 -16 -86 -16q-61 0 -97.5 33z" />
    <glyph glyph-name="f_h.liga" unicode="fh" horiz-adv-x="958" 
d="M128 413h-93l17 97h93l7 36q14 84 67.5 129t149.5 45h243l-35 -199l-20 -78h6q26 39 68.5 61t97.5 22q77 0 120.5 -42.5t43.5 -111.5q0 -31 -6 -67l-55 -305h-109l53 299q4 21 4 44q0 37 -26 59t-67 22q-59 0 -99.5 -42t-53.5 -113l-49 -269h-109l108 619h-133
q-37 0 -60 -20t-30 -59l-6 -30h125l-17 -97h-125l-72 -413h-110z" />
    <glyph glyph-name="f_i.liga" unicode="fi" horiz-adv-x="621" 
d="M490.5 604.5q-21.5 21.5 -21.5 52.5t21.5 52.5t52.5 21.5t52.5 -21.5t21.5 -52.5t-21.5 -52.5t-52.5 -21.5t-52.5 21.5zM128 413h-93l17 97h93l7 40q13 82 68.5 128t138.5 46q37 0 66 -9l-19 -107q-28 13 -58 13q-32 0 -56.5 -21t-30.5 -58l-6 -32h319l-89 -510h-110
l72 413h-209l-73 -413h-110z" />
    <glyph glyph-name="f_j.liga" unicode="fj" horiz-adv-x="622" 
d="M491.5 600.5q-21.5 21.5 -21.5 51.5q0 31 21.5 52.5t52.5 21.5t52.5 -21.5t21.5 -52.5q0 -30 -21.5 -51.5t-52.5 -21.5t-52.5 21.5zM236 -218l18 103q17 -10 46 -10t43.5 16t19.5 47l84 475h-209l-73 -413h-110l73 413h-93l17 97h93l7 40q13 82 68.5 128t138.5 46
q37 0 66 -9l-19 -107q-28 13 -58 13q-32 0 -56.5 -21t-30.5 -58l-6 -32h319l-101 -577q-16 -90 -60 -124.5t-117 -34.5q-30 0 -60 8z" />
    <glyph glyph-name="f_k.liga" unicode="fk" horiz-adv-x="910" 
d="M128 413h-93l17 97h93l7 36q14 84 67.5 129t149.5 45h243l-73 -418h3l240 208h143l-2 -6l-236 -199l151 -299l-1 -6h-127l-111 231l-86 -73l-28 -158h-110l109 619h-133q-37 0 -60 -20t-30 -59l-6 -30h125l-17 -97h-125l-72 -413h-110z" />
    <glyph glyph-name="f_l.liga" unicode="fl" horiz-adv-x="615" 
d="M484 619h-133q-37 0 -60 -20t-30 -59l-6 -30h125l-17 -97h-125l-72 -413h-110l72 413h-93l17 97h93l7 36q14 84 67.5 129t149.5 45h243l-127 -720h-110z" />
    <glyph glyph-name="f_t.liga" unicode="ft" horiz-adv-x="714" 
d="M435 25q-36 33 -36 92q0 18 5 51l43 245h-209l-73 -413h-110l73 413h-93l17 97h93l7 40q13 82 68.5 128t138.5 46q37 0 66 -9l-19 -107q-28 13 -58 13q-32 0 -56.5 -21t-30.5 -58l-6 -32h209l26 144h110l-26 -144h125l-17 -97h-125l-41 -235q-4 -20 -4 -33
q0 -23 14 -36.5t39 -13.5q34 0 66 19l-19 -107q-34 -15 -81 -15q-60 0 -96 33z" />
    <glyph glyph-name="r_f.liga" unicode="rf" horiz-adv-x="791" 
d="M90 510h104l-13 -75h5q26 42 70.5 65.5t100.5 23.5q21 0 41 -4l-20 -111q-19 7 -50 7q-63 0 -111 -41t-60 -107l-47 -268h-110zM534 413h-93l17 97h94l6 40q13 82 69 128t139 46q47 0 77 -13l-19 -106q-28 16 -66 16q-33 0 -59 -21t-32 -58l-5 -32h127l-17 -97h-128
l-73 -413h-110z" />
    <glyph glyph-name="r_f_f.liga" unicode="rff" horiz-adv-x="1111" 
d="M90 510h104l-13 -75h5q26 42 70.5 65.5t100.5 23.5q21 0 41 -4l-20 -111q-19 7 -50 7q-63 0 -111 -41t-60 -107l-47 -268h-110zM521 413h-93l17 97h93l7 40q13 82 68.5 128t138.5 46q37 0 66 -9l-19 -107q-28 13 -58 13q-32 0 -56.5 -21t-30.5 -58l-6 -32h210l7 40
q13 82 69 128t139 46q45 0 77 -13l-19 -106q-30 16 -67 16q-32 0 -58 -21t-32 -58l-6 -32h128l-17 -97h-128l-73 -413h-110l73 413h-210l-73 -413h-110z" />
    <glyph glyph-name="r_t.liga" unicode="rt" horiz-adv-x="802" 
d="M90 510h104l-13 -75h5q26 42 70.5 65.5t100.5 23.5q21 0 41 -4l-20 -111q-19 7 -50 7q-63 0 -111 -41t-60 -107l-47 -268h-110zM523 25q-36 33 -36 92q0 26 5 51l43 245h-89l18 97h88l26 144h110l-26 -144h125l-18 -97h-124l-42 -235q-3 -22 -3 -33q0 -23 14 -36.5
t39 -13.5q35 0 65 19l-18 -107q-36 -15 -81 -15q-60 0 -96 33z" />
    <glyph glyph-name="t_f.liga" unicode="tf" horiz-adv-x="717" 
d="M113.5 25q-36.5 33 -36.5 92q0 26 5 51l43 245h-89l17 97h89l26 144h110l-26 -144h212l7 40q13 82 68.5 128t139.5 46q46 0 76 -13l-19 -106q-28 16 -66 16q-33 0 -58.5 -20.5t-31.5 -58.5l-6 -32h128l-18 -97h-128l-73 -413h-110l73 413h-211l-42 -235q-3 -22 -3 -33
q0 -23 14 -36.5t39 -13.5q33 0 58 17l-18 -107q-32 -13 -72 -13q-61 0 -97.5 33z" />
    <glyph glyph-name="t_t.liga" unicode="tt" horiz-adv-x="719" 
d="M113.5 25q-36.5 33 -36.5 92q0 26 5 51l43 245h-89l17 97h89l26 144h110l-26 -144h209l26 144h110l-26 -144h125l-17 -97h-125l-41 -235q-4 -20 -4 -33q0 -23 14 -36.5t39 -13.5q31 0 59 17l-5 -104q-34 -16 -86 -16q-61 0 -97.5 33t-36.5 92q0 18 5 51l43 245h-209
l-42 -235q-3 -22 -3 -33q0 -23 14 -36.5t39 -13.5q33 0 58 17l-18 -107q-32 -13 -72 -13q-61 0 -97.5 33z" />
    <glyph glyph-name=".notdef" horiz-adv-x="570" 
d="M498 716v-716h-426v716h426zM434 60v596h-298v-596h298z" />
    <glyph glyph-name=".null" horiz-adv-x="0" 
 />
    <glyph glyph-name="uni000D" unicode="&#xd;" horiz-adv-x="0" 
 />
    <glyph glyph-name="uni0002" horiz-adv-x="0" 
 />
    <glyph glyph-name="uni0009" unicode="&#x9;" horiz-adv-x="0" 
 />
    <glyph glyph-name="uni000A" unicode="&#xa;" horiz-adv-x="0" 
 />
    <glyph glyph-name="space" unicode=" " horiz-adv-x="220" 
 />
    <glyph glyph-name="exclam" unicode="!" horiz-adv-x="249" 
d="M94 499l38 217h112l-39 -217l-58 -266h-89zM20.5 16.5q-22.5 22.5 -22.5 54.5t22.5 54t54.5 22t54.5 -22t22.5 -54t-22.5 -54.5t-54.5 -22.5t-54.5 22.5z" />
    <glyph glyph-name="quotedbl" unicode="&#x22;" horiz-adv-x="347" 
d="M107 716h100l-40 -226h-100zM266 716h100l-40 -226h-100z" />
    <glyph glyph-name="numbersign" unicode="#" horiz-adv-x="644" 
d="M138 198h-119l17 88h117l22 121h-121l16 88h120l33 189h94l-33 -189h125l33 189h95l-34 -189h120l-16 -88h-119l-21 -121h122l-16 -88h-121l-35 -198h-94l34 198h-124l-35 -198h-94zM373 285l22 123h-127l-22 -123h127z" />
    <glyph glyph-name="dollar" unicode="$" horiz-adv-x="545" 
d="M174 -11q-68 13 -118 61.5t-61 123.5l101 39q5 -44 30 -75.5t67 -43.5l37 217q-153 68 -153 193q0 51 27 93.5t77.5 69.5t117.5 32l15 85h82l-16 -89q59 -13 96.5 -50.5t52.5 -86.5l-103 -40q-19 57 -64 72l-36 -205q77 -36 115.5 -80t38.5 -108q0 -91 -62 -146.5
t-162 -64.5l-15 -86h-82zM280 596q-43 -6 -69 -28.5t-26 -62.5q0 -50 65 -85zM343 121.5q26 24.5 26 66.5q0 31 -15.5 50.5t-47.5 37.5l-32 -186q43 7 69 31.5z" />
    <glyph glyph-name="percent" unicode="%" horiz-adv-x="826" 
d="M103 400q-43 42 -43 108q0 52 26 96t72 70t103 26q66 0 108.5 -42.5t42.5 -107.5q0 -53 -26 -97t-71.5 -69.5t-100.5 -25.5q-68 0 -111 42zM101 36l562 660l58 -49l-561 -660zM293 469.5q28 29.5 28 73.5q0 34 -20 54.5t-51 20.5q-43 0 -71 -29t-28 -73q0 -34 20.5 -55
t51.5 -21q42 0 70 29.5zM454 26q-43 42 -43 108q0 52 26 96t72 70t103 26q66 0 108.5 -42.5t42.5 -107.5q0 -53 -26 -97t-71.5 -69.5t-100.5 -25.5q-68 0 -111 42zM644.5 95.5q28.5 29.5 28.5 73.5q0 34 -20.5 54.5t-51.5 20.5q-43 0 -71 -29t-28 -73q0 -34 20.5 -55
t51.5 -21q42 0 70.5 29.5z" />
    <glyph glyph-name="ampersand" unicode="&#x26;" horiz-adv-x="631" 
d="M117 11q-51 27 -80.5 76.5t-29.5 115.5q0 80 39.5 142.5t119.5 102.5q-29 55 -29 102t23.5 89t67.5 67.5t103 25.5q68 0 109 -33.5t58 -91.5l-103 -43q-5 28 -24.5 48t-51.5 20t-53.5 -21t-21.5 -54q0 -29 22 -68l169 -280l77 107l70 -52l-99 -135l56 -91l-94 -54l-37 61
q-74 -61 -178 -61q-62 0 -113 27zM360 124l-147 244q-47 -24 -74.5 -62.5t-27.5 -90.5q0 -56 38.5 -93.5t96.5 -37.5q66 0 114 40z" />
    <glyph glyph-name="quotesingle" unicode="'" horiz-adv-x="188" 
d="M107 716h100l-40 -226h-100z" />
    <glyph glyph-name="parenleft" unicode="(" horiz-adv-x="343" 
d="M88 35.5q-33 98.5 -33 214.5q0 152 71.5 291t195.5 239l66 -60q-110 -106 -166.5 -221t-56.5 -257q0 -94 23 -171.5t64 -148.5l-80 -58q-51 73 -84 171.5z" />
    <glyph glyph-name="parenright" unicode=")" horiz-adv-x="343" 
d="M-44 -76q110 106 166.5 221t56.5 257q0 95 -22.5 172.5t-64.5 147.5l81 58q51 -73 84 -171.5t33 -214.5q0 -152 -71.5 -291t-195.5 -239z" />
    <glyph glyph-name="asterisk" unicode="*" horiz-adv-x="449" 
d="M86 412l95 102l-2 8l-98 37l32 77l103 -39l7 2l21 117h84l-20 -117l6 -2l104 36l26 -78l-117 -43l-4 -7l57 -99l-77 -48l-57 101h-7l-90 -101z" />
    <glyph glyph-name="plus" unicode="+" horiz-adv-x="559" 
d="M208 224h-176l17 94h176l31 176h94l-31 -176h176l-16 -94h-176l-31 -176h-95z" />
    <glyph glyph-name="comma" unicode="," horiz-adv-x="250" 
d="M45 2q-41 22 -41 69q0 32 22.5 54t53.5 22q32 0 54.5 -22t22.5 -54q0 -17 -9.5 -33.5t-28.5 -39.5l-100 -120l-45 38z" />
    <glyph glyph-name="hyphen" unicode="-" horiz-adv-x="441" 
d="M384 357l-17 -94h-329l17 94h329z" />
    <glyph glyph-name="period" unicode="." horiz-adv-x="249" 
d="M20 16.5q-22 22.5 -22 54.5t22.5 54t53.5 22q32 0 54.5 -22t22.5 -54t-22.5 -54.5t-54.5 -22.5t-54 22.5z" />
    <glyph glyph-name="slash" unicode="/" horiz-adv-x="457" 
d="M385 716h108l-424 -716h-107z" />
    <glyph glyph-name="zero" unicode="0" horiz-adv-x="662" 
d="M152.5 20q-53.5 36 -83 103.5t-29.5 160.5q0 111 44 206.5t121.5 152.5t173.5 57q110 0 174 -78.5t64 -219.5q0 -114 -44.5 -210t-122 -152t-173.5 -56q-71 0 -124.5 36zM394 128.5q50 40.5 80 110.5t30 154q0 96 -35.5 149.5t-101.5 53.5q-56 0 -105.5 -43t-79.5 -113.5
t-30 -148.5q0 -96 36.5 -149.5t98.5 -53.5q57 0 107 40.5z" />
    <glyph glyph-name="one" unicode="1" horiz-adv-x="412" 
d="M241 530l-116 -75l-49 84l223 145h80l-121 -684h-110z" />
    <glyph glyph-name="two" unicode="2" horiz-adv-x="543" 
d="M4 104q37 32 146.5 126.5t147.5 128.5q52 45 74.5 75t22.5 70q0 42 -27 67t-73 25t-77 -27.5t-45 -65.5l-98 43q25 65 83 109.5t150 44.5q58 0 104 -23t72 -63.5t26 -91.5q0 -68 -36.5 -120t-110.5 -116q-50 -43 -114.5 -98t-98.5 -84l1 -4h296l-17 -100h-444z" />
    <glyph glyph-name="three" unicode="3" horiz-adv-x="555" 
d="M78 30q-62 46 -73 129l108 41q5 -52 37.5 -81t83.5 -29q58 0 96.5 32t38.5 86q0 47 -31 73t-84 26h-59l18 101h53q61 0 97 27.5t36 78.5q0 37 -27 60t-68 23q-44 0 -73 -24.5t-45 -61.5l-97 45q26 63 83 103.5t145 40.5q56 0 100.5 -22t70 -60.5t25.5 -85.5
q0 -61 -31.5 -103t-85.5 -64v-6q37 -18 61.5 -55.5t24.5 -87.5q0 -70 -34.5 -122.5t-94 -81t-131.5 -28.5q-82 0 -144 46z" />
    <glyph glyph-name="four" unicode="4" horiz-adv-x="611" 
d="M325 136h-321l15 88l388 460h124l-78 -446h86l-18 -102h-86l-25 -136h-110zM343 238l49 283h-6l-233 -283h190z" />
    <glyph glyph-name="five" unicode="5" horiz-adv-x="576" 
d="M130 5q-47 21 -79.5 62.5t-38.5 101.5l105 39q5 -54 35.5 -87t81.5 -33q64 0 108.5 39t44.5 103q0 50 -30 82t-80 32q-33 0 -63 -14t-53 -39l-101 45l103 348h372l-17 -100h-281l-57 -180l5 -2q56 42 121 42q56 0 99.5 -24.5t68 -70.5t24.5 -108q0 -70 -34 -129
t-95.5 -93.5t-140.5 -34.5q-51 0 -98 21z" />
    <glyph glyph-name="six" unicode="6" horiz-adv-x="570" 
d="M125 11.5q-50 27.5 -78.5 76t-28.5 108.5q0 67 29 119.5t96 127.5l228 259l77 -60l-188 -215l3 -3q32 13 59 13q48 0 89.5 -26t66 -72.5t24.5 -105.5q0 -73 -34.5 -129.5t-95 -88t-135.5 -31.5q-62 0 -112 27.5zM350 125.5q41 38.5 41 99.5q0 51 -33.5 84t-86.5 33
q-62 0 -102 -41t-40 -102q0 -49 34.5 -80.5t83.5 -31.5q62 0 103 38.5z" />
    <glyph glyph-name="seven" unicode="7" horiz-adv-x="545" 
d="M22 45l390 532l-1 3h-327l20 104h451l-19 -110l-432 -590z" />
    <glyph glyph-name="eight" unicode="8" horiz-adv-x="571" 
d="M113.5 9q-48.5 25 -75 67t-26.5 92q0 65 38.5 115.5t102.5 75.5l1 5q-63 52 -63 125q0 58 33 106t89.5 76.5t123.5 28.5q85 0 138 -47t53 -123q0 -59 -32 -101t-81 -67l-1 -6q36 -19 59 -57t23 -86q0 -68 -36.5 -120t-98.5 -80.5t-135 -28.5q-64 0 -112.5 25zM385 437
q35 30 35 73q0 41 -26.5 64.5t-69.5 23.5q-53 0 -88.5 -28.5t-35.5 -76.5q0 -39 27.5 -62.5t70.5 -23.5q52 0 87 30zM308 103q34 15 55 43.5t21 66.5q0 42 -32 68.5t-81 26.5q-38 0 -71.5 -16t-54 -45t-20.5 -67q0 -42 31 -67t80 -25q38 0 72 15z" />
    <glyph glyph-name="nine" unicode="9" horiz-adv-x="569" 
d="M117 42l188 215l-4 3q-30 -13 -55 -13q-48 0 -90 26t-68 72.5t-26 105.5q0 73 35 129.5t95.5 88t134.5 31.5q62 0 112 -27.5t78.5 -76.5t28.5 -110q0 -66 -29 -118.5t-96 -126.5l-228 -259zM396 383q40 41 40 101q0 49 -35 81t-84 32q-62 0 -103 -38.5t-41 -99.5
q0 -51 33.5 -84t86.5 -33q63 0 103 41z" />
    <glyph glyph-name="colon" unicode=":" horiz-adv-x="249" 
d="M85.5 387.5q-22.5 22.5 -22.5 54.5t22.5 54.5t54.5 22.5t54.5 -22.5t22.5 -54.5t-22.5 -54.5t-54.5 -22.5t-54.5 22.5zM20 16.5q-22 22.5 -22 54.5t22.5 54t53.5 22q32 0 54.5 -22t22.5 -54t-22.5 -54.5t-54.5 -22.5t-54 22.5z" />
    <glyph glyph-name="semicolon" unicode=";" horiz-adv-x="250" 
d="M83.5 387.5q-22.5 22.5 -22.5 54.5t22.5 54.5t54.5 22.5t54.5 -22.5t22.5 -54.5t-22.5 -54.5t-54.5 -22.5t-54.5 22.5zM-26 -71l71 86q-16 9 -28.5 26t-12.5 43q0 32 22.5 54t53.5 22q32 0 54.5 -22t22.5 -54q0 -17 -9.5 -33.5t-28.5 -39.5l-100 -120z" />
    <glyph glyph-name="less" unicode="&#x3c;" horiz-adv-x="518" 
d="M33 230l15 85l435 186l-19 -109l-298 -121l-1 -6l254 -123l-17 -101z" />
    <glyph glyph-name="equal" unicode="=" horiz-adv-x="571" 
d="M74 464h459l-17 -95h-458zM40 269h459l-17 -95h-459z" />
    <glyph glyph-name="greater" unicode="&#x3e;" horiz-adv-x="518" 
d="M23 150l298 121l1 6l-255 123l18 101l368 -189l-14 -85l-435 -186z" />
    <glyph glyph-name="question" unicode="?" horiz-adv-x="503" 
d="M174 274q9 49 32.5 81.5t83.5 76.5q40 29 63.5 56t23.5 60q0 36 -25.5 58t-67.5 22q-45 0 -75 -25.5t-43 -64.5l-93 42q23 66 81.5 109t144.5 43q55 0 98 -22t67.5 -60t24.5 -85q0 -58 -32 -100.5t-94 -90.5q-38 -30 -55.5 -54.5t-23.5 -57.5l-6 -29h-111zM138.5 16.5
q-22.5 22.5 -22.5 54.5t22.5 54t54.5 22t54 -22t22 -54t-22 -54.5t-54 -22.5t-54.5 22.5z" />
    <glyph glyph-name="at" unicode="@" horiz-adv-x="872" 
d="M202 -35q-79 47 -123 126.5t-44 172.5q0 121 58.5 218.5t161 152.5t230.5 55q93 0 172.5 -40.5t127 -115t47.5 -171.5q0 -70 -23 -131.5t-65.5 -98.5t-99.5 -37q-40 0 -68 19t-39 54q-25 -35 -63.5 -54t-81.5 -19q-46 0 -85.5 22.5t-63.5 63.5t-24 93q0 56 26 109
t76.5 86.5t119.5 33.5q40 0 70 -15.5t46 -40.5h6l7 42h84l-45 -254q-2 -12 -2 -20q0 -19 11.5 -32t34.5 -13q28 0 50 27t34 70.5t12 88.5q0 74 -34 131t-97.5 89t-148.5 32q-99 0 -177.5 -44t-123 -122t-44.5 -175q0 -77 36 -138.5t96.5 -96t131.5 -34.5q77 0 137 30l27 -76
q-76 -35 -171 -35q-100 0 -179 47zM501 220.5q36 38.5 36 95.5q0 46 -27 74t-72 28q-58 0 -93 -40t-35 -98q0 -47 29 -72.5t73 -25.5q53 0 89 38.5z" />
    <glyph glyph-name="A" unicode="A" horiz-adv-x="696" 
d="M343 716h129l143 -716h-120l-33 183h-287l-98 -183h-127zM443 287l-40 213l-13 83h-5l-43 -83l-113 -213h214z" />
    <glyph glyph-name="B" unicode="B" horiz-adv-x="628" 
d="M143 716h249q62 0 107.5 -24t69.5 -64t24 -87q0 -64 -36 -107t-90 -60l-1 -6q95 -49 95 -148q0 -63 -35 -113.5t-95.5 -78.5t-133.5 -28h-281zM354 416q56 0 91 28t35 78q0 39 -25.5 65t-69.5 26h-149l-35 -197h153zM315 104q53 0 92.5 30.5t39.5 84.5q0 44 -28.5 70.5
t-77.5 26.5h-158l-37 -212h169z" />
    <glyph glyph-name="C" unicode="C" horiz-adv-x="747" 
d="M193 24q-73 40 -114.5 114t-41.5 172q0 111 56 208t155 155.5t221 58.5q83 0 149 -33t103 -88l-89 -74q-32 45 -74.5 66.5t-101.5 21.5q-83 0 -153 -42.5t-111.5 -114t-41.5 -152.5q0 -68 28.5 -119t78.5 -78.5t113 -27.5q66 0 118 25.5t104 76.5l72 -81
q-68 -67 -139.5 -97.5t-166.5 -30.5q-92 0 -165 40z" />
    <glyph glyph-name="D" unicode="D" horiz-adv-x="723" 
d="M143 716h223q100 0 171 -40t107.5 -110.5t36.5 -160.5q0 -108 -51.5 -201t-147.5 -148.5t-225 -55.5h-241zM262 107q87 0 157 37.5t109.5 103t39.5 146.5q0 104 -56 159.5t-161 55.5h-116l-88 -502h115z" />
    <glyph glyph-name="E" unicode="E" horiz-adv-x="573" 
d="M143 716h434l-19 -107h-323l-35 -198h291l-18 -106h-291l-35 -198h323l-20 -107h-434z" />
    <glyph glyph-name="F" unicode="F" horiz-adv-x="553" 
d="M143 716h434l-19 -107h-323l-36 -206h291l-18 -106h-291l-53 -297h-112z" />
    <glyph glyph-name="G" unicode="G" horiz-adv-x="821" 
d="M203.5 25.5q-75.5 41.5 -120 117.5t-44.5 175q0 111 55 206t154 151.5t226 56.5q83 0 151 -30.5t105 -82.5l-89 -76q-25 37 -73.5 59.5t-107.5 22.5q-85 0 -155.5 -39t-111 -108t-40.5 -155q0 -72 30.5 -124.5t82.5 -80t115 -27.5q118 0 191 73q51 48 73 124h-239l17 100
h349q0 -21 -3 -48q-16 -151 -116 -248q-110 -108 -282 -108q-92 0 -167.5 41.5z" />
    <glyph glyph-name="H" unicode="H" horiz-adv-x="719" 
d="M143 716h112l-54 -297h332l54 297h111l-127 -716h-111l55 313h-332l-55 -313h-112z" />
    <glyph glyph-name="I" unicode="I" horiz-adv-x="275" 
d="M143 716h112l-127 -716h-112z" />
    <glyph glyph-name="J" unicode="J" horiz-adv-x="552" 
d="M60.5 30.5q-57.5 46.5 -66.5 122.5l108 42q6 -53 36 -78.5t75 -25.5q52 0 88 36t47 93l87 496h112l-87 -492q-22 -121 -91 -180.5t-169 -59.5q-82 0 -139.5 46.5z" />
    <glyph glyph-name="K" unicode="K" horiz-adv-x="658" 
d="M143 716h112l-59 -337h5l346 337h143l-1 -6l-316 -303l212 -401l-1 -6h-131l-170 322l-118 -113l-37 -209h-112z" />
    <glyph glyph-name="L" unicode="L" horiz-adv-x="531" 
d="M143 716h112l-108 -609h307l-20 -107h-418z" />
    <glyph glyph-name="M" unicode="M" horiz-adv-x="885" 
d="M143 716h149l111 -543h5l301 543h156l-127 -716h-111l71 401l29 129h-6l-295 -530h-92l-113 530h-6l-17 -129l-71 -401h-111z" />
    <glyph glyph-name="N" unicode="N" horiz-adv-x="727" 
d="M143 716h125l235 -521h6l19 138l68 383h111l-127 -716h-109l-247 548h-6l-18 -138l-73 -410h-111z" />
    <glyph glyph-name="O" unicode="O" horiz-adv-x="833" 
d="M201 25.5q-76 41.5 -119.5 116t-43.5 170.5q0 111 53.5 207.5t150 154.5t219.5 58q94 0 169.5 -42t118.5 -116.5t43 -169.5q0 -111 -53.5 -207.5t-150 -154.5t-218.5 -58q-93 0 -169 41.5zM530.5 134q68.5 43 108 114t39.5 151q0 67 -30 118.5t-82.5 79.5t-116.5 28
q-81 0 -149.5 -42.5t-108 -113.5t-39.5 -151q0 -68 30 -119.5t82 -79.5t116 -28q82 0 150.5 43z" />
    <glyph glyph-name="P" unicode="P" horiz-adv-x="595" 
d="M143 716h239q59 0 106 -24.5t73.5 -69t26.5 -101.5q0 -76 -34.5 -131t-96 -83.5t-140.5 -28.5h-140l-49 -278h-112zM335 384q62 0 101 31.5t39 94.5q0 45 -28 72t-73 27h-139l-39 -225h139z" />
    <glyph glyph-name="Q" unicode="Q" horiz-adv-x="833" 
d="M525 13q-76 -29 -155 -29q-93 0 -169 41.5t-119.5 116t-43.5 170.5q0 111 53.5 207.5t150 154.5t219.5 58q94 0 169.5 -42t118.5 -116.5t43 -169.5q0 -100 -44.5 -189.5t-123.5 -148.5l35 -72l-99 -51zM477 109l-61 125l100 52l58 -118q48 44 76 105t28 126
q0 67 -30 118.5t-82.5 79.5t-116.5 28q-81 0 -149.5 -42.5t-108 -113.5t-39.5 -151q0 -68 30 -119.5t82 -79.5t116 -28q50 0 97 18z" />
    <glyph glyph-name="R" unicode="R" horiz-adv-x="612" 
d="M143 716h236q61 0 109 -25t75 -69.5t27 -100.5q0 -88 -55.5 -150t-143.5 -80l-3 -5l145 -280l-2 -6h-124l-141 280h-88l-50 -280h-112zM333 384q62 0 102.5 34t40.5 96q0 42 -28.5 69.5t-78.5 27.5h-134l-39 -227h137z" />
    <glyph glyph-name="S" unicode="S" horiz-adv-x="578" 
d="M81 36q-64 52 -79 146l108 43q5 -59 41 -96.5t97 -37.5q58 0 100 32t42 84q0 40 -28 67t-94 52l-39 15q-63 23 -104 68t-41 115q0 59 33 106.5t90 74.5t125 27q67 0 112.5 -23.5t69.5 -58t30 -68.5l-105 -40q-6 35 -35 60t-83 25q-51 0 -87 -26t-36 -70q0 -36 25.5 -59.5
t79.5 -43.5l42 -16q159 -59 159 -191q0 -70 -34.5 -124t-95.5 -83.5t-139 -29.5q-90 0 -154 52z" />
    <glyph glyph-name="T" unicode="T" horiz-adv-x="565" 
d="M269 609h-200l19 107h512l-20 -107h-200l-107 -609h-112z" />
    <glyph glyph-name="U" unicode="U" horiz-adv-x="680" 
d="M162.5 12q-52.5 28 -83 79t-30.5 118q0 40 9 91l73 416h112l-77 -439q-6 -29 -6 -54q0 -61 34 -96.5t101 -35.5q75 0 124.5 49t63.5 129l79 447h112l-81 -457q-24 -134 -104.5 -204.5t-209.5 -70.5q-64 0 -116.5 28z" />
    <glyph glyph-name="V" unicode="V" horiz-adv-x="659" 
d="M76 716h120l77 -473l11 -81h6l40 81l251 473h125l-387 -716h-117z" />
    <glyph glyph-name="W" unicode="W" horiz-adv-x="965" 
d="M79 716h123l30 -461l2 -62h6l26 62l222 461h114l55 -461l4 -61h6l23 61l193 461h126l-312 -716h-119l-56 472l-5 64h-6l-27 -64l-224 -472h-116z" />
    <glyph glyph-name="X" unicode="X" horiz-adv-x="664" 
d="M263 376l-169 340h137l115 -253h6l203 253h141l-289 -349l182 -367h-135l-132 273h-6l-224 -273h-138z" />
    <glyph glyph-name="Y" unicode="Y" horiz-adv-x="619" 
d="M249 333l-173 383h129l114 -266h6l204 266h137l-305 -383l-59 -333h-112z" />
    <glyph glyph-name="Z" unicode="Z" horiz-adv-x="592" 
d="M-6 115l456 494h-353l19 107h487l-21 -115l-454 -494h371l-19 -107h-506z" />
    <glyph glyph-name="bracketleft" unicode="[" horiz-adv-x="328" 
d="M152 792h224l-15 -91h-121l-129 -734h120l-16 -91h-223z" />
    <glyph glyph-name="backslash" unicode="\" horiz-adv-x="457" 
d="M92 716h102l170 -716h-102z" />
    <glyph glyph-name="bracketright" unicode="]" horiz-adv-x="328" 
d="M-33 -33h120l129 734h-120l16 91h224l-161 -916h-223z" />
    <glyph glyph-name="asciicircum" unicode="^" horiz-adv-x="491" 
d="M296 611h-6l-149 -201h-120l243 306h89l135 -306h-111z" />
    <glyph glyph-name="underscore" unicode="_" horiz-adv-x="489" 
d="M423 -121l-17 -95h-488l17 95h488z" />
    <glyph glyph-name="grave" unicode="`" horiz-adv-x="420" 
d="M161 720h121l24 -132h-89z" />
    <glyph glyph-name="a" unicode="a" horiz-adv-x="543" 
d="M101 4.5q-38 20.5 -60.5 56.5t-22.5 81q0 85 61 135t171 50q37 0 73 -8t65 -21l5 25q3 15 3 24q0 38 -32.5 61.5t-79.5 23.5q-78 0 -128 -60l-79 57q38 47 95 72t124 25q96 0 151 -46t55 -122q0 -21 -5 -53l-54 -305h-108l11 61h-6q-25 -36 -64 -56.5t-91 -20.5
q-46 0 -84 20.5zM320 114q43 39 53 100q-28 15 -55.5 22t-68.5 7q-54 0 -86 -24.5t-32 -68.5q0 -34 24.5 -54.5t61.5 -20.5q60 0 103 39z" />
    <glyph glyph-name="b" unicode="b" horiz-adv-x="617" 
d="M186.5 7.5q-42.5 23.5 -65.5 58.5h-5l-12 -66h-104l126 716h110l-36 -201l-18 -72h6q22 35 64 59t99 24q60 0 108.5 -30t76.5 -84.5t28 -124.5q0 -84 -36.5 -153t-100.5 -109.5t-143 -40.5q-55 0 -97.5 23.5zM365 109.5q41 24.5 64.5 68t23.5 99.5q0 63 -39 105t-98 42
q-49 0 -88 -27t-61.5 -72.5t-22.5 -98.5q0 -63 38 -102t93 -39q49 0 90 24.5z" />
    <glyph glyph-name="c" unicode="c" horiz-adv-x="559" 
d="M124 16q-53 32 -82 86.5t-29 119.5q0 82 38 152t107 111t158 41q83 0 138 -41t73 -102l-103 -39q-13 37 -45 58.5t-77 21.5q-49 0 -89.5 -24.5t-64 -68.5t-23.5 -99q0 -63 37 -105t96 -42q48 0 84.5 22.5t58.5 61.5l91 -43q-79 -142 -247 -142q-68 0 -121 32z" />
    <glyph glyph-name="d" unicode="d" horiz-adv-x="619" 
d="M114 13.5q-47 29.5 -74 82.5t-27 121q0 85 37 156t103.5 112t150.5 41q54 0 96 -24.5t60 -58.5h6l6 72l36 201h110l-127 -716h-104l12 66h-6q-58 -82 -173 -82q-59 0 -106 29.5zM346 110.5q41 25.5 65 71.5t24 104q0 62 -37.5 100t-94.5 38q-51 0 -92 -25.5t-64 -70.5
t-23 -101q0 -64 37.5 -103t95.5 -39q48 0 89 25.5z" />
    <glyph glyph-name="e" unicode="e" horiz-adv-x="577" 
d="M123.5 16q-53.5 32 -82 86.5t-28.5 119.5q0 80 37 150t104 112t153 42q68 0 118 -29.5t76 -78.5t26 -107q0 -44 -11 -80h-392q-1 -6 -1 -22q1 -58 39.5 -92t92.5 -34q56 0 93 21t62 63l84 -46q-82 -137 -247 -137q-70 0 -123.5 32zM420 315v8q0 44 -33.5 76t-90.5 32
t-98.5 -33.5t-58.5 -82.5h281z" />
    <glyph glyph-name="f" unicode="f" horiz-adv-x="398" 
d="M128 413h-93l17 97h94l6 40q13 82 69 128t139 46q47 0 77 -13l-19 -106q-28 16 -66 16q-33 0 -59 -21t-32 -58l-5 -32h127l-17 -97h-128l-73 -413h-110z" />
    <glyph glyph-name="g" unicode="g" horiz-adv-x="613" 
d="M107.5 -211.5q-45.5 20.5 -73 54t-35.5 70.5l108 42q9 -40 40 -64t79 -24q72 0 117 40t59 115l9 50h-5q-27 -39 -67.5 -58t-99.5 -19q-58 0 -105 28.5t-74 80.5t-27 118q0 80 35 150t99.5 112t149.5 42q54 0 95 -21t60 -57h6l11 62h105l-87 -491q-22 -127 -97 -189
t-197 -62q-60 0 -105.5 20.5zM360 121q41 26 64.5 70.5t23.5 96.5q0 62 -36.5 99.5t-90.5 37.5q-52 0 -92.5 -25.5t-63 -70t-22.5 -99.5q0 -64 35.5 -99.5t90.5 -35.5q50 0 91 26z" />
    <glyph glyph-name="h" unicode="h" horiz-adv-x="583" 
d="M126 716h110l-35 -195l-19 -78h6q26 39 68 61t97 22q78 0 121 -42.5t43 -111.5q0 -38 -6 -67l-54 -305h-110l53 299q5 27 5 44q0 37 -26 59t-68 22q-59 0 -99.5 -42t-53.5 -113l-48 -269h-110z" />
    <glyph glyph-name="i" unicode="i" horiz-adv-x="255" 
d="M124.5 604.5q-21.5 21.5 -21.5 52.5t21.5 52.5t52.5 21.5t52.5 -21.5t21.5 -52.5t-21.5 -52.5t-52.5 -21.5t-52.5 21.5zM95 510h110l-89 -510h-110z" />
    <glyph glyph-name="j" unicode="j" horiz-adv-x="256" 
d="M126.5 600.5q-21.5 21.5 -21.5 51.5q0 31 21.5 52.5t52.5 21.5t52.5 -21.5t21.5 -52.5q0 -30 -21.5 -51.5t-52.5 -21.5t-52.5 21.5zM-130 -218l18 103q17 -10 46 -10t43 16t20 47l101 572h110l-101 -577q-16 -90 -60 -124.5t-117 -34.5q-32 0 -60 8z" />
    <glyph glyph-name="k" unicode="k" horiz-adv-x="536" 
d="M127 716h110l-72 -411h4l236 205h146l-2 -6l-236 -199l152 -299l-2 -6h-127l-111 231l-86 -73l-28 -158h-110z" />
    <glyph glyph-name="l" unicode="l" horiz-adv-x="239" 
d="M126 716h110l-126 -716h-110z" />
    <glyph glyph-name="m" unicode="m" horiz-adv-x="897" 
d="M194 510l-12 -67h6q56 83 162 83q54 0 90.5 -25t51.5 -68q28 43 74.5 68t108.5 25q74 0 116 -40t42 -106q0 -28 -7 -66l-55 -314h-110l54 308q4 30 4 41q0 36 -22 55.5t-63 19.5q-55 0 -94.5 -43.5t-51.5 -113.5l-48 -267h-110l54 308q4 19 4 40q0 36 -23 56t-63 20
q-54 0 -93.5 -44t-51.5 -113l-47 -267h-110l90 510h104z" />
    <glyph glyph-name="n" unicode="n" horiz-adv-x="583" 
d="M188 443q26 39 68 61t97 22q78 0 121 -42.5t43 -111.5q0 -31 -6 -67l-54 -305h-110l53 299q5 27 5 44q0 38 -25.5 59.5t-68.5 21.5q-58 0 -99.5 -41t-52.5 -107l-49 -276h-110l90 510h104l-12 -67h6z" />
    <glyph glyph-name="o" unicode="o" horiz-adv-x="600" 
d="M128.5 16q-54.5 32 -84.5 87t-30 122q0 84 38 153t106.5 108.5t157.5 39.5q70 0 124.5 -32t84.5 -87t30 -122q0 -84 -38 -153t-106.5 -108.5t-157.5 -39.5q-70 0 -124.5 32zM355.5 110.5q40.5 25.5 64 69t23.5 95.5q0 65 -38 107t-101 42q-51 0 -91.5 -25t-64 -68.5
t-23.5 -95.5q0 -65 38.5 -107.5t101.5 -42.5q50 0 90.5 25.5z" />
    <glyph glyph-name="p" unicode="p" horiz-adv-x="614" 
d="M95 510h104l-12 -67h6q26 38 69 60.5t103 22.5q59 0 106.5 -30t74.5 -83t27 -121q0 -85 -37.5 -155.5t-104 -111.5t-150.5 -41q-53 0 -95.5 24t-59.5 58h-6l-6 -71l-37 -211h-110zM375 110.5q41 25.5 64 70.5t23 101q0 65 -37.5 103.5t-95.5 38.5q-48 0 -89 -25.5
t-65.5 -71t-24.5 -103.5q0 -62 38 -100.5t95 -38.5q51 0 92 25.5z" />
    <glyph glyph-name="q" unicode="q" horiz-adv-x="614" 
d="M380 -5l18 71h-6q-21 -36 -62.5 -59t-100.5 -23q-60 0 -109 30t-77.5 84.5t-28.5 123.5q0 84 37 153.5t101.5 110t143.5 40.5q55 0 97.5 -23.5t65.5 -59.5h5l12 67h104l-128 -726h-110zM352 112.5q39 27.5 61.5 73t22.5 97.5q0 64 -38.5 102.5t-94.5 38.5q-48 0 -89 -24
t-65 -67.5t-24 -99.5q0 -64 39 -106t100 -42q49 0 88 27.5z" />
    <glyph glyph-name="r" unicode="r" horiz-adv-x="404" 
d="M90 510h104l-12 -69h5q22 39 66.5 61.5t96.5 22.5q38 0 60 -10l-21 -117q-14 9 -34 14t-40 5q-57 0 -102 -43t-56 -104l-47 -270h-110z" />
    <glyph glyph-name="s" unicode="s" horiz-adv-x="483" 
d="M60.5 23q-55.5 39 -72.5 101l103 42q9 -41 42.5 -62.5t76.5 -21.5q40 0 66.5 18t26.5 46q0 27 -18.5 44t-57.5 26l-52 13q-59 16 -96 51t-37 88q0 46 26.5 82t74.5 56t109 20q71 0 122 -31.5t71 -85.5l-102 -39q-11 29 -37.5 45.5t-62.5 16.5q-41 0 -65 -16t-24 -41
q0 -18 17 -33.5t46 -23.5l70 -17q61 -15 95 -53t34 -91q0 -78 -57.5 -125.5t-158.5 -47.5q-84 0 -139.5 39z" />
    <glyph glyph-name="t" unicode="t" horiz-adv-x="392" 
d="M113 25q-36 33 -36 92q0 26 5 51l43 245h-89l18 97h88l26 144h110l-26 -144h125l-18 -97h-124l-42 -235q-3 -22 -3 -33q0 -23 14 -36.5t39 -13.5q35 0 65 19l-18 -107q-36 -15 -81 -15q-60 0 -96 33z" />
    <glyph glyph-name="u" unicode="u" horiz-adv-x="583" 
d="M356 66q-26 -38 -68.5 -60t-97.5 -22q-77 0 -120.5 42.5t-43.5 110.5q0 33 7 68l54 305h110l-53 -300q-5 -25 -5 -43q0 -38 26 -60t68 -22q58 0 99 41t53 107l49 277h110l-90 -510h-104l12 66h-6z" />
    <glyph glyph-name="v" unicode="v" horiz-adv-x="546" 
d="M33 510h121l74 -368h5l208 368h124l-303 -510h-110z" />
    <glyph glyph-name="w" unicode="w" horiz-adv-x="807" 
d="M32 510h116l39 -365h4l178 365h117l51 -365h4l164 365h120l-250 -510h-120l-50 366h-3l-181 -366h-115z" />
    <glyph glyph-name="x" unicode="x" horiz-adv-x="513" 
d="M170 263l-130 247h127l81 -166h3l135 166h135l-220 -253l132 -257h-126l-83 173h-4l-140 -173h-134z" />
    <glyph glyph-name="y" unicode="y" horiz-adv-x="549" 
d="M172 30l-126 480h120l84 -347h4l202 347h124l-444 -726h-119z" />
    <glyph glyph-name="z" unicode="z" horiz-adv-x="495" 
d="M323 413h-270l17 97h409l-16 -93l-336 -321h282l-17 -96h-419l15 92z" />
    <glyph glyph-name="braceleft" unicode="{" horiz-adv-x="327" 
d="M79 -87.5q-41 36.5 -41 97.5q0 22 4 39l28 163q2 14 2 19q0 28 -15 42.5t-43 14.5l16 92q30 0 53 19t30 57l29 167q30 169 198 169h34l-16 -91h-20q-37 0 -60.5 -22.5t-31.5 -63.5l-29 -160q-9 -51 -30 -78.5t-60 -39.5l-2 -6q28 -9 41 -28t13 -51q0 -20 -4 -39l-29 -160
q-2 -20 -2 -24q0 -30 18 -46t47 -16h19l-15 -91h-28q-65 0 -106 36.5z" />
    <glyph glyph-name="bar" unicode="|" horiz-adv-x="245" 
d="M152 792h101l-161 -912h-100z" />
    <glyph glyph-name="braceright" unicode="}" horiz-adv-x="327" 
d="M-33 -33h19q37 0 61 22.5t32 63.5l29 160q9 51 30 78.5t60 39.5l1 6q-54 18 -54 79q0 16 5 39l28 160q3 15 3 24q0 30 -18 46t-47 16h-20l16 91h28q65 0 105.5 -36.5t40.5 -97.5q0 -19 -3 -39l-28 -163q-2 -14 -2 -19q0 -28 15.5 -42.5t42.5 -14.5l-17 -92q-30 0 -53 -19
t-29 -57l-30 -167q-14 -82 -63.5 -125.5t-134.5 -43.5h-33z" />
    <glyph glyph-name="asciitilde" unicode="~" horiz-adv-x="541" 
d="M300.5 237.5q-24.5 8.5 -62.5 25.5q-32 15 -50 21.5t-37 6.5q-23 0 -38 -13.5t-21 -33.5h-88q9 68 48 105.5t108 37.5q29 0 54 -8.5t61 -25.5q26 -14 46 -21t40 -7q23 0 38.5 13.5t21.5 33.5h88q-10 -68 -48.5 -105.5t-107.5 -37.5q-28 0 -52.5 8.5z" />
    <glyph glyph-name="uni00A0" unicode="&#xa0;" horiz-adv-x="220" 
 />
    <glyph glyph-name="exclamdown" unicode="&#xa1;" horiz-adv-x="249" 
d="M98.5 394.5q-22.5 22.5 -22.5 54.5t22.5 54.5t54.5 22.5t54 -22.5t22 -54.5t-22 -54.5t-54 -22.5t-54.5 22.5zM19 1l61 281h89l-38 -281l-39 -217h-111z" />
    <glyph glyph-name="cent" unicode="&#xa2;" horiz-adv-x="530" 
d="M192 87q-75 15 -122.5 76.5t-47.5 146.5q0 76 33.5 139t92.5 102.5t135 47.5l15 85h82l-16 -87q60 -11 99 -47.5t55 -86.5l-100 -40q-8 28 -25.5 48.5t-44.5 28.5l-57 -319q63 12 104 83l85 -40q-39 -65 -87.5 -99t-118.5 -41l-15 -84h-82zM265 502q-62 -13 -99.5 -63.5
t-37.5 -118.5q0 -49 21.5 -85t60.5 -51z" />
    <glyph glyph-name="sterling" unicode="&#xa3;" horiz-adv-x="528" 
d="M-13 92q49 21 83.5 61t37.5 88v3h-93l14 88h61l-8 24q-14 37 -21 65.5t-7 61.5q0 59 29 109t83.5 79t125.5 29q81 0 127.5 -41t61.5 -104l-105 -40q-19 84 -98 84q-50 0 -82.5 -34.5t-32.5 -85.5q0 -25 6.5 -48.5t19.5 -60.5l13 -38h137l-15 -88h-111q-4 -40 -25 -75
t-55 -62l4 -6h163q34 0 54.5 14.5t35.5 43.5l81 -38q-27 -61 -71 -91t-115 -30h-315z" />
    <glyph glyph-name="currency" unicode="&#xa4;" horiz-adv-x="603" 
d="M60 147l59 58q-35 54 -35 120t35 120l-59 59l58 58l59 -57q55 39 124 39q70 0 125 -39l59 57l58 -58l-58 -58q34 -54 34 -121t-34 -120l58 -58l-58 -59l-59 57q-57 -39 -125 -39q-67 0 -124 39l-59 -57zM388.5 234.5q35.5 37.5 35.5 90.5t-35.5 90.5t-87.5 37.5
q-51 0 -86.5 -37.5t-35.5 -90.5t35.5 -90.5t86.5 -37.5q52 0 87.5 37.5z" />
    <glyph glyph-name="yen" unicode="&#xa5;" horiz-adv-x="600" 
d="M209 151h-169l17 94h169l13 74h-169l17 95h107l-125 270h127l88 -205l22 -65h6l44 65l157 205h132l-218 -270h105l-17 -95h-164l-14 -74h165l-17 -94h-165l-26 -151h-112z" />
    <glyph glyph-name="brokenbar" unicode="&#xa6;" horiz-adv-x="245" 
d="M148 756h101l-67 -380h-101zM66 292h101l-73 -412h-100z" />
    <glyph glyph-name="section" unicode="&#xa7;" horiz-adv-x="546" 
d="M89 -208q-49 24 -79.5 68.5t-34.5 102.5l101 38q7 -58 40.5 -94t89.5 -36q52 0 87.5 26.5t35.5 72.5q0 43 -28.5 68t-94.5 46l-15 6q-67 22 -108 65.5t-41 101.5q0 51 31 93.5t80 67.5q-27 24 -42 55.5t-15 66.5q0 54 29.5 98t82.5 69t119 25q85 0 135 -42t66 -106
l-108 -41q-6 34 -32 60t-73 26q-42 0 -73.5 -21t-31.5 -56q0 -33 26 -56t86 -45l16 -5q76 -28 116.5 -72.5t40.5 -109.5q0 -54 -26 -95.5t-71 -68.5q43 -45 43 -116q0 -59 -32 -108.5t-88 -78.5t-125 -29q-58 0 -107 24zM364.5 192q17.5 24 17.5 52q0 79 -117 117l-22 7
q-37 -12 -63.5 -37.5t-26.5 -57.5q0 -33 25.5 -55.5t76.5 -39.5q37 -13 66 -26q26 16 43.5 40z" />
    <glyph glyph-name="dieresis" unicode="&#xa8;" horiz-adv-x="424" 
d="M129 614q-19 19 -19 45q0 27 19 45.5t45 18.5q27 0 45.5 -18.5t18.5 -45.5q0 -26 -18.5 -45t-45.5 -19q-26 0 -45 19zM308 614q-19 19 -19 45q0 27 18.5 45.5t44.5 18.5q28 0 46 -18.5t18 -45.5q0 -26 -18.5 -45t-45.5 -19q-25 0 -44 19z" />
    <glyph glyph-name="copyright" unicode="&#xa9;" horiz-adv-x="532" 
d="M151 303q-53 31 -84 84t-31 115t31 115t84 84t115 31t115 -31t84 -84t31 -115t-31 -115t-84 -84t-115 -31t-115 31zM357.5 344.5q41.5 24.5 66 66.5t24.5 91q0 50 -24.5 91.5t-66 66t-91.5 24.5q-49 0 -91 -24.5t-66.5 -66t-24.5 -91.5q0 -49 25 -90.5t66.5 -66.5
t90.5 -25q50 0 91.5 24.5zM185.5 418q-34.5 35 -34.5 84q0 50 34 84.5t85 34.5q28 0 48 -10t39 -29l-32 -29q-12 13 -23.5 18.5t-31.5 5.5q-29 0 -51 -21.5t-22 -53.5q0 -31 22 -53t51 -22q36 0 60 31l34 -27q-36 -48 -94 -48q-50 0 -84.5 35z" />
    <glyph glyph-name="ordfeminine" unicode="&#xaa;" horiz-adv-x="486" 
d="M89 308.5q-42 36.5 -42 95.5q0 49 28 86t75 56.5t103 19.5q66 0 124 -26l2 14q1 7 1 15q0 35 -25.5 56.5t-65.5 21.5q-73 0 -112 -52l-73 46q27 41 77.5 66t117.5 25q80 0 130.5 -41t50.5 -110q0 -16 -3 -36l-46 -259h-99l9 55h-6q-25 -31 -60.5 -50t-77.5 -19
q-66 0 -108 36.5zM315 387q40 32 49 78q-47 26 -104 26q-43 0 -75.5 -19t-32.5 -58q0 -29 22 -44t52 -15q49 0 89 32z" />
    <glyph glyph-name="guillemotleft" unicode="&#xab;" horiz-adv-x="581" 
d="M188 47l-167 224l246 224l56 -63l-184 -167l120 -162zM399 47l-167 224l246 224l56 -63l-184 -167l120 -162z" />
    <glyph glyph-name="logicalnot" unicode="&#xac;" horiz-adv-x="577" 
d="M392 300h-357l16 94h449l-51 -289h-92z" />
    <glyph glyph-name="uni00AD" unicode="&#xad;" horiz-adv-x="441" 
d="M384 357l-17 -94h-329l17 94h329z" />
    <glyph glyph-name="registered" unicode="&#xae;" horiz-adv-x="532" 
d="M151 303q-53 31 -84 84t-31 115t31 115t84 84t115 31t115 -31t84 -84t31 -115t-31 -115t-84 -84t-115 -31t-115 31zM357.5 344.5q41.5 24.5 66 66.5t24.5 91q0 50 -24.5 91.5t-66 66t-91.5 24.5q-49 0 -91 -24.5t-66.5 -66t-24.5 -91.5q0 -49 25 -90.5t66.5 -66.5
t90.5 -25q50 0 91.5 24.5zM189 615h96q29 0 51 -21t22 -51q0 -23 -14.5 -41.5t-35.5 -24.5l-2 -2l60 -84v-2h-52l-55 84h-24v-84h-46v226zM281 515q13 0 22 8t9 20q0 11 -8.5 19.5t-21.5 8.5h-47v-56h46z" />
    <glyph glyph-name="macron" unicode="&#xaf;" horiz-adv-x="407" 
d="M120 702h288l-15 -86h-288z" />
    <glyph glyph-name="degree" unicode="&#xb0;" horiz-adv-x="325" 
d="M102 474q-35 32 -35 82q0 63 41.5 103.5t104.5 40.5q49 0 84 -32t35 -82q0 -63 -41.5 -103.5t-104.5 -40.5q-49 0 -84 32zM238.5 531q18.5 19 18.5 46q0 23 -14 38t-37 15q-27 0 -45.5 -19t-18.5 -47q0 -23 14 -37.5t37 -14.5q27 0 45.5 19z" />
    <glyph glyph-name="plusminus" unicode="&#xb1;" horiz-adv-x="559" 
d="M223 305h-176l15 91h176l27 150h94l-26 -150h176l-16 -91h-176l-27 -149h-94zM9 95h447l-17 -95h-446z" />
    <glyph glyph-name="uni00B2" unicode="&#xb2;" horiz-adv-x="310" 
d="M33 412l154 131q23 20 37 36.5t14 34.5t-12 28.5t-31 10.5q-42 0 -61 -53l-67 28q13 45 50.5 70.5t87.5 25.5q52 0 84 -28t32 -71q0 -36 -18 -61.5t-58 -59.5l-99 -83h144l-14 -71h-254z" />
    <glyph glyph-name="uni00B3" unicode="&#xb3;" horiz-adv-x="328" 
d="M79.5 368q-35.5 26 -44.5 74l71 26q15 -56 64 -56q25 0 43 14.5t18 37.5q0 21 -15 32.5t-42 11.5h-34l12 64h36q25 0 42 13t17 33q0 16 -12 26t-29 10q-40 0 -61 -40l-65 28q16 37 52 59.5t84 22.5q49 0 80.5 -26.5t31.5 -65.5q0 -30 -18.5 -54t-45.5 -36
q22 -11 34.5 -30.5t12.5 -44.5q0 -54 -42.5 -89.5t-106.5 -35.5q-47 0 -82.5 26z" />
    <glyph glyph-name="acute" unicode="&#xb4;" horiz-adv-x="420" 
d="M260 720h126l-104 -132h-93z" />
    <glyph glyph-name="mu" unicode="&#xb5;" horiz-adv-x="583" 
d="M87 510h110l-55 -308q-3 -18 -3 -35q0 -38 25.5 -60t68.5 -22q58 0 99 41t53 107l49 277h110l-90 -510h-104l12 66h-6q-57 -82 -161 -82q-24 0 -48 9t-37 24h-6l-4 -60l-32 -173h-109z" />
    <glyph glyph-name="paragraph" unicode="&#xb6;" horiz-adv-x="633" 
d="M283 296h-35q-60 0 -111.5 25.5t-82 73.5t-30.5 111t30.5 111t82 73.5t111.5 25.5h305v-932h-96v835h-78v-835h-96v512z" />
    <glyph glyph-name="periodcentered" unicode="&#xb7;" horiz-adv-x="193" 
d="M40.5 269.5q-22.5 22.5 -22.5 54.5t22.5 54.5t54.5 22.5t54.5 -22.5t22.5 -54.5t-22.5 -54.5t-54.5 -22.5t-54.5 22.5z" />
    <glyph glyph-name="cedilla" unicode="&#xb8;" horiz-adv-x="405" 
d="M28 -217.5q-27 19.5 -33 46.5l61 25q2 -13 12.5 -22t24.5 -9q17 0 29 11.5t12 30.5q0 14 -9 23.5t-24 9.5q-16 0 -31 -15l-49 24l52 93h61l-29 -48q12 2 19 2q35 0 56.5 -24t21.5 -63q0 -46 -31.5 -75t-81.5 -29q-34 0 -61 19.5z" />
    <glyph glyph-name="uni00B9" unicode="&#xb9;" horiz-adv-x="256" 
d="M160 612l-52 -38l-37 59l116 83h71l-65 -366h-79z" />
    <glyph glyph-name="ordmasculine" unicode="&#xba;" horiz-adv-x="525" 
d="M150.5 296.5q-45.5 24.5 -70.5 69.5t-25 104q0 67 33 127.5t93 97.5t137 37q90 0 144 -53.5t54 -144.5q0 -69 -35 -129.5t-95 -96.5t-132 -36q-58 0 -103.5 24.5zM336.5 386.5q34.5 20.5 55 57.5t20.5 83q0 49 -30.5 80t-75.5 31q-40 0 -74 -22t-53.5 -58.5t-19.5 -79.5
q0 -50 29.5 -81t73.5 -31q40 0 74.5 20.5z" />
    <glyph glyph-name="guillemotright" unicode="&#xbb;" horiz-adv-x="581" 
d="M148 495l167 -224l-246 -224l-56 63l184 167l-120 162zM359 495l167 -224l-246 -224l-56 63l184 167l-120 162z" />
    <glyph glyph-name="onequarter" unicode="&#xbc;" horiz-adv-x="729" 
d="M185 612l-52 -38l-37 59l116 83h71l-65 -366h-79zM647 727l61 -47l-588 -692l-63 48zM514 69h-171l9 55l216 242h76l-40 -231h47l-12 -66h-47l-13 -69h-77zM526 135l21 116h-6l-102 -116h87z" />
    <glyph glyph-name="onehalf" unicode="&#xbd;" horiz-adv-x="791" 
d="M185 612l-52 -38l-37 59l116 83h71l-65 -366h-79zM645 727l61 -47l-588 -692l-63 48zM447 62l153 131q23 19 37.5 36t14.5 35t-12.5 28.5t-31.5 10.5q-42 0 -61 -53l-67 28q13 45 50.5 70.5t87.5 25.5q52 0 84 -28t32 -71q0 -36 -18 -61.5t-58 -59.5l-98 -83h143l-13 -71
h-255z" />
    <glyph glyph-name="threequarters" unicode="&#xbe;" horiz-adv-x="833" 
d="M117.5 368q-35.5 26 -44.5 74l71 26q15 -56 64 -56q25 0 43 14.5t18 37.5q0 21 -15 32.5t-42 11.5h-34l12 64h36q25 0 42 13t17 33q0 16 -12 26t-29 10q-40 0 -61 -40l-65 28q16 37 52 59.5t84 22.5q49 0 80.5 -26.5t31.5 -65.5q0 -30 -18.5 -54t-45.5 -36
q22 -11 34.5 -30.5t12.5 -44.5q0 -54 -42.5 -89.5t-106.5 -35.5q-47 0 -82.5 26zM723 727l61 -47l-588 -692l-63 48zM612 69h-171l9 55l216 242h76l-40 -231h47l-12 -66h-47l-13 -69h-77zM624 135l21 116h-6l-102 -116h87z" />
    <glyph glyph-name="questiondown" unicode="&#xbf;" horiz-adv-x="492" 
d="M229.5 394.5q-22.5 22.5 -22.5 54.5t22.5 54.5t54.5 22.5t54 -22.5t22 -54.5t-22 -54.5t-54 -22.5t-54.5 22.5zM76 -210q-43 22 -67.5 60t-24.5 85q0 58 32 100.5t94 90.5q38 30 55.5 54.5t23.5 57.5l9 44h111l-10 -56q-9 -48 -32.5 -81t-83.5 -77q-40 -29 -63.5 -56
t-23.5 -60q0 -36 25.5 -58t67.5 -22q45 0 75 25.5t43 64.5l93 -42q-23 -66 -81.5 -109t-144.5 -43q-55 0 -98 22z" />
    <glyph glyph-name="Agrave" unicode="&#xc0;" horiz-adv-x="696" 
d="M343 716h129l143 -716h-120l-33 183h-287l-98 -183h-127zM443 287l-40 213l-13 83h-5l-43 -83l-113 -213h214zM307 904h121l24 -132h-89z" />
    <glyph glyph-name="Aacute" unicode="&#xc1;" horiz-adv-x="696" 
d="M343 716h129l143 -716h-120l-33 183h-287l-98 -183h-127zM443 287l-40 213l-13 83h-5l-43 -83l-113 -213h214zM437 904h126l-104 -132h-93z" />
    <glyph glyph-name="Acircumflex" unicode="&#xc2;" horiz-adv-x="696" 
d="M343 716h129l143 -716h-120l-33 183h-287l-98 -183h-127zM443 287l-40 213l-13 83h-5l-43 -83l-113 -213h214zM255 785l127 121h98l87 -121l-2 -7h-100l-37 60h-9l-54 -60h-112z" />
    <glyph glyph-name="Atilde" unicode="&#xc3;" horiz-adv-x="696" 
d="M343 716h129l143 -716h-120l-33 183h-287l-98 -183h-127zM443 287l-40 213l-13 83h-5l-43 -83l-113 -213h214zM453 781q-15 6 -36 18q-18 10 -30 15t-25 5q-27 0 -36 -32h-83q8 60 40 91t80 31q18 0 32.5 -5.5t38.5 -18.5q33 -20 53 -20q29 0 36 32h84q-8 -60 -40 -91
t-81 -31q-18 0 -33 6z" />
    <glyph glyph-name="Adieresis" unicode="&#xc4;" horiz-adv-x="696" 
d="M343 716h129l143 -716h-120l-33 183h-287l-98 -183h-127zM443 287l-40 213l-13 83h-5l-43 -83l-113 -213h214zM290 798q-19 19 -19 45q0 27 19 45.5t45 18.5q27 0 45.5 -18.5t18.5 -45.5q0 -26 -18.5 -45t-45.5 -19q-26 0 -45 19zM469 798q-19 19 -19 45q0 27 18.5 45.5
t44.5 18.5q28 0 46 -18.5t18 -45.5q0 -26 -18.5 -45t-45.5 -19q-25 0 -44 19z" />
    <glyph glyph-name="Aring" unicode="&#xc5;" horiz-adv-x="696" 
d="M324 681q-29 32 -29 75q0 49 34 82.5t82 33.5t82.5 -34t34.5 -82q0 -27 -12.5 -51t-33.5 -41l133 -664h-120l-33 183h-287l-98 -183h-127zM439.5 728q11.5 12 11.5 28q0 17 -11.5 28.5t-28.5 11.5q-16 0 -28 -11.5t-12 -28.5q0 -16 12 -28t28 -12q17 0 28.5 12zM443 287
l-40 213l-13 83h-5l-43 -83l-113 -213h214z" />
    <glyph glyph-name="AE" unicode="&#xc6;" horiz-adv-x="988" 
d="M488 716h504l-19 -107h-323l-35 -198h291l-18 -106h-291l-35 -198h323l-20 -107h-434l32 184h-246l-139 -184h-138zM482 290l57 319h-7l-41 -59l-197 -260h188z" />
    <glyph glyph-name="Ccedilla" unicode="&#xc7;" horiz-adv-x="747" 
d="M357 -16l-19 -32q12 2 19 2q35 0 56.5 -24t21.5 -63q0 -46 -31.5 -75t-81.5 -29q-34 0 -61 19.5t-33 46.5l61 25q2 -13 12.5 -22t24.5 -9q17 0 29 11.5t12 30.5q0 14 -9 23.5t-24 9.5q-16 0 -31 -15l-49 24l46 81q-78 12 -137.5 54.5t-92.5 111.5t-33 156q0 111 56 208
t155 155.5t221 58.5q83 0 149 -33t103 -88l-89 -74q-32 45 -74.5 66.5t-101.5 21.5q-83 0 -153 -42.5t-111.5 -114t-41.5 -152.5q0 -68 28.5 -119t78.5 -78.5t113 -27.5q66 0 118 25.5t104 76.5l72 -81q-68 -67 -139.5 -97.5t-166.5 -30.5h-1z" />
    <glyph glyph-name="Egrave" unicode="&#xc8;" horiz-adv-x="573" 
d="M143 716h434l-19 -107h-323l-35 -198h291l-18 -106h-291l-35 -198h323l-20 -107h-434zM266 904h121l24 -132h-89z" />
    <glyph glyph-name="Eacute" unicode="&#xc9;" horiz-adv-x="573" 
d="M143 716h434l-19 -107h-323l-35 -198h291l-18 -106h-291l-35 -198h323l-20 -107h-434zM396 904h126l-104 -132h-93z" />
    <glyph glyph-name="Ecircumflex" unicode="&#xca;" horiz-adv-x="573" 
d="M143 716h434l-19 -107h-323l-35 -198h291l-18 -106h-291l-35 -198h323l-20 -107h-434zM214 785l127 121h98l87 -121l-2 -7h-100l-37 60h-9l-54 -60h-112z" />
    <glyph glyph-name="Edieresis" unicode="&#xcb;" horiz-adv-x="573" 
d="M143 716h434l-19 -107h-323l-35 -198h291l-18 -106h-291l-35 -198h323l-20 -107h-434zM249 798q-19 19 -19 45q0 27 19 45.5t45 18.5q27 0 45.5 -18.5t18.5 -45.5q0 -26 -18.5 -45t-45.5 -19q-26 0 -45 19zM428 798q-19 19 -19 45q0 27 18.5 45.5t44.5 18.5
q28 0 46 -18.5t18 -45.5q0 -26 -18.5 -45t-45.5 -19q-25 0 -44 19z" />
    <glyph glyph-name="Igrave" unicode="&#xcc;" horiz-adv-x="275" 
d="M143 716h112l-127 -716h-112zM104 904h121l24 -132h-89z" />
    <glyph glyph-name="Iacute" unicode="&#xcd;" horiz-adv-x="275" 
d="M143 716h112l-127 -716h-112zM234 904h126l-104 -132h-93z" />
    <glyph glyph-name="Icircumflex" unicode="&#xce;" horiz-adv-x="275" 
d="M143 716h112l-127 -716h-112zM52 785l127 121h98l87 -121l-2 -7h-100l-37 60h-9l-54 -60h-112z" />
    <glyph glyph-name="Idieresis" unicode="&#xcf;" horiz-adv-x="276" 
d="M97 800q-19 19 -19 44q0 26 18.5 44t44.5 18t44 -18t18 -44t-18 -44.5t-44 -18.5q-25 0 -44 19zM250.5 800q-18.5 19 -18.5 44q0 26 18.5 44t43.5 18q27 0 45 -18t18 -44t-18 -44.5t-45 -18.5q-25 0 -43.5 19zM143 716h112l-127 -716h-112z" />
    <glyph glyph-name="Eth" unicode="&#xd0;" horiz-adv-x="765" 
d="M121 311h-75l16 92h76l56 313h223q100 0 171 -40t107.5 -110.5t36.5 -160.5q0 -108 -51.5 -201t-148 -148.5t-225.5 -55.5h-240zM313 107q87 0 156.5 37.5t109 103t39.5 146.5q0 104 -56 159.5t-160 55.5h-116l-36 -206h193l-17 -92h-193l-35 -204h115z" />
    <glyph glyph-name="Ntilde" unicode="&#xd1;" horiz-adv-x="727" 
d="M143 716h125l235 -521h6l19 138l68 383h111l-127 -716h-109l-247 548h-6l-18 -138l-73 -410h-111zM464 781q-15 6 -36 18q-18 10 -30 15t-25 5q-27 0 -36 -32h-83q8 60 40 91t80 31q18 0 32.5 -5.5t38.5 -18.5q33 -20 53 -20q29 0 36 32h84q-8 -60 -40 -91t-81 -31
q-18 0 -33 6z" />
    <glyph glyph-name="Ograve" unicode="&#xd2;" horiz-adv-x="833" 
d="M201 25.5q-76 41.5 -119.5 116t-43.5 170.5q0 111 53.5 207.5t150 154.5t219.5 58q94 0 169.5 -42t118.5 -116.5t43 -169.5q0 -111 -53.5 -207.5t-150 -154.5t-218.5 -58q-93 0 -169 41.5zM530.5 134q68.5 43 108 114t39.5 151q0 67 -30 118.5t-82.5 79.5t-116.5 28
q-81 0 -149.5 -42.5t-108 -113.5t-39.5 -151q0 -68 30 -119.5t82 -79.5t116 -28q82 0 150.5 43zM368 904h121l24 -132h-89z" />
    <glyph glyph-name="Oacute" unicode="&#xd3;" horiz-adv-x="833" 
d="M201 25.5q-76 41.5 -119.5 116t-43.5 170.5q0 111 53.5 207.5t150 154.5t219.5 58q94 0 169.5 -42t118.5 -116.5t43 -169.5q0 -111 -53.5 -207.5t-150 -154.5t-218.5 -58q-93 0 -169 41.5zM530.5 134q68.5 43 108 114t39.5 151q0 67 -30 118.5t-82.5 79.5t-116.5 28
q-81 0 -149.5 -42.5t-108 -113.5t-39.5 -151q0 -68 30 -119.5t82 -79.5t116 -28q82 0 150.5 43zM498 904h126l-104 -132h-93z" />
    <glyph glyph-name="Ocircumflex" unicode="&#xd4;" horiz-adv-x="833" 
d="M201 25.5q-76 41.5 -119.5 116t-43.5 170.5q0 111 53.5 207.5t150 154.5t219.5 58q94 0 169.5 -42t118.5 -116.5t43 -169.5q0 -111 -53.5 -207.5t-150 -154.5t-218.5 -58q-93 0 -169 41.5zM530.5 134q68.5 43 108 114t39.5 151q0 67 -30 118.5t-82.5 79.5t-116.5 28
q-81 0 -149.5 -42.5t-108 -113.5t-39.5 -151q0 -68 30 -119.5t82 -79.5t116 -28q82 0 150.5 43zM316 785l127 121h98l87 -121l-2 -7h-100l-37 60h-9l-54 -60h-112z" />
    <glyph glyph-name="Otilde" unicode="&#xd5;" horiz-adv-x="833" 
d="M201 25.5q-76 41.5 -119.5 116t-43.5 170.5q0 111 53.5 207.5t150 154.5t219.5 58q94 0 169.5 -42t118.5 -116.5t43 -169.5q0 -111 -53.5 -207.5t-150 -154.5t-218.5 -58q-93 0 -169 41.5zM530.5 134q68.5 43 108 114t39.5 151q0 67 -30 118.5t-82.5 79.5t-116.5 28
q-81 0 -149.5 -42.5t-108 -113.5t-39.5 -151q0 -68 30 -119.5t82 -79.5t116 -28q82 0 150.5 43zM514 781q-15 6 -36 18q-18 10 -30 15t-25 5q-27 0 -36 -32h-83q8 60 40 91t80 31q18 0 32.5 -5.5t38.5 -18.5q33 -20 53 -20q29 0 36 32h84q-8 -60 -40 -91t-81 -31
q-18 0 -33 6z" />
    <glyph glyph-name="Odieresis" unicode="&#xd6;" horiz-adv-x="833" 
d="M201 25.5q-76 41.5 -119.5 116t-43.5 170.5q0 111 53.5 207.5t150 154.5t219.5 58q94 0 169.5 -42t118.5 -116.5t43 -169.5q0 -111 -53.5 -207.5t-150 -154.5t-218.5 -58q-93 0 -169 41.5zM530.5 134q68.5 43 108 114t39.5 151q0 67 -30 118.5t-82.5 79.5t-116.5 28
q-81 0 -149.5 -42.5t-108 -113.5t-39.5 -151q0 -68 30 -119.5t82 -79.5t116 -28q82 0 150.5 43zM351 798q-19 19 -19 45q0 27 19 45.5t45 18.5q27 0 45.5 -18.5t18.5 -45.5q0 -26 -18.5 -45t-45.5 -19q-26 0 -45 19zM530 798q-19 19 -19 45q0 27 18.5 45.5t44.5 18.5
q28 0 46 -18.5t18 -45.5q0 -26 -18.5 -45t-45.5 -19q-25 0 -44 19z" />
    <glyph glyph-name="multiply" unicode="&#xd7;" horiz-adv-x="574" 
d="M15 118l190 156l-132 154l73 62l133 -155l190 158l58 -70l-189 -156l132 -153l-73 -62l-133 154l-191 -158z" />
    <glyph glyph-name="Oslash" unicode="&#xd8;" horiz-adv-x="833" 
d="M77 10l53 67q-44 44 -68 104t-24 131q0 111 53.5 207.5t150 154.5t219.5 58q88 0 163 -39l55 69l72 -57l-53 -66q45 -44 69.5 -104t24.5 -131q0 -111 -53.5 -207.5t-150 -154.5t-218.5 -58q-89 0 -164 39l-55 -69zM552 603q-49 22 -103 22q-81 0 -149.5 -42.5
t-108 -113.5t-39.5 -151q0 -90 52 -150zM530.5 134q68.5 43 108 114t39.5 151q0 89 -52 149l-348 -436q48 -21 102 -21q82 0 150.5 43z" />
    <glyph glyph-name="Ugrave" unicode="&#xd9;" horiz-adv-x="680" 
d="M162.5 12q-52.5 28 -83 79t-30.5 118q0 40 9 91l73 416h112l-77 -439q-6 -29 -6 -54q0 -61 34 -96.5t101 -35.5q75 0 124.5 49t63.5 129l79 447h112l-81 -457q-24 -134 -104.5 -204.5t-209.5 -70.5q-64 0 -116.5 28zM301 904h121l24 -132h-89z" />
    <glyph glyph-name="Uacute" unicode="&#xda;" horiz-adv-x="680" 
d="M162.5 12q-52.5 28 -83 79t-30.5 118q0 40 9 91l73 416h112l-77 -439q-6 -29 -6 -54q0 -61 34 -96.5t101 -35.5q75 0 124.5 49t63.5 129l79 447h112l-81 -457q-24 -134 -104.5 -204.5t-209.5 -70.5q-64 0 -116.5 28zM431 904h126l-104 -132h-93z" />
    <glyph glyph-name="Ucircumflex" unicode="&#xdb;" horiz-adv-x="680" 
d="M162.5 12q-52.5 28 -83 79t-30.5 118q0 40 9 91l73 416h112l-77 -439q-6 -29 -6 -54q0 -61 34 -96.5t101 -35.5q75 0 124.5 49t63.5 129l79 447h112l-81 -457q-24 -134 -104.5 -204.5t-209.5 -70.5q-64 0 -116.5 28zM249 785l127 121h98l87 -121l-2 -7h-100l-37 60h-9
l-54 -60h-112z" />
    <glyph glyph-name="Udieresis" unicode="&#xdc;" horiz-adv-x="680" 
d="M162.5 12q-52.5 28 -83 79t-30.5 118q0 40 9 91l73 416h112l-77 -439q-6 -29 -6 -54q0 -61 34 -96.5t101 -35.5q75 0 124.5 49t63.5 129l79 447h112l-81 -457q-24 -134 -104.5 -204.5t-209.5 -70.5q-64 0 -116.5 28zM284 798q-19 19 -19 45q0 27 19 45.5t45 18.5
q27 0 45.5 -18.5t18.5 -45.5q0 -26 -18.5 -45t-45.5 -19q-26 0 -45 19zM463 798q-19 19 -19 45q0 27 18.5 45.5t44.5 18.5q28 0 46 -18.5t18 -45.5q0 -26 -18.5 -45t-45.5 -19q-25 0 -44 19z" />
    <glyph glyph-name="Yacute" unicode="&#xdd;" horiz-adv-x="619" 
d="M249 333l-173 383h129l114 -266h6l204 266h137l-305 -383l-59 -333h-112zM393 904h126l-104 -132h-93z" />
    <glyph glyph-name="Thorn" unicode="&#xde;" horiz-adv-x="576" 
d="M133 716h112l-21 -116h128q59 0 106 -24.5t73.5 -69t26.5 -101.5q0 -76 -34.5 -131t-96 -83.5t-140.5 -28.5h-140l-29 -162h-112zM305 268q62 0 101 32t39 94q0 45 -28 72.5t-73 27.5h-138l-40 -226h139z" />
    <glyph glyph-name="germandbls" unicode="&#xdf;" horiz-adv-x="572" 
d="M490.5 324.5q24.5 -39.5 24.5 -94.5q0 -70 -34.5 -124t-94 -84t-134.5 -30q-39 0 -64 4l18 103q30 -5 52 -5q61 0 103 35t42 96q0 49 -30 78.5t-88 29.5h-28l17 99h23q53 0 92 29.5t39 80.5q0 40 -26.5 63.5t-70.5 23.5q-49 0 -82 -32.5t-42 -85.5l-90 -511h-111l90 512
q18 100 80 160t169 60q58 0 102.5 -23.5t68.5 -63.5t24 -88q0 -62 -31.5 -104t-81.5 -63l-1 -6q40 -20 64.5 -59.5z" />
    <glyph glyph-name="agrave" unicode="&#xe0;" horiz-adv-x="543" 
d="M101 4.5q-38 20.5 -60.5 56.5t-22.5 81q0 85 61 135t171 50q37 0 73 -8t65 -21l5 25q3 15 3 24q0 38 -32.5 61.5t-79.5 23.5q-78 0 -128 -60l-79 57q38 47 95 72t124 25q96 0 151 -46t55 -122q0 -21 -5 -53l-54 -305h-108l11 61h-6q-25 -36 -64 -56.5t-91 -20.5
q-46 0 -84 20.5zM320 114q43 39 53 100q-28 15 -55.5 22t-68.5 7q-54 0 -86 -24.5t-32 -68.5q0 -34 24.5 -54.5t61.5 -20.5q60 0 103 39zM216 739h121l24 -131h-89z" />
    <glyph glyph-name="aacute" unicode="&#xe1;" horiz-adv-x="543" 
d="M101 4.5q-38 20.5 -60.5 56.5t-22.5 81q0 85 61 135t171 50q37 0 73 -8t65 -21l5 25q3 15 3 24q0 38 -32.5 61.5t-79.5 23.5q-78 0 -128 -60l-79 57q38 47 95 72t124 25q96 0 151 -46t55 -122q0 -21 -5 -53l-54 -305h-108l11 61h-6q-25 -36 -64 -56.5t-91 -20.5
q-46 0 -84 20.5zM320 114q43 39 53 100q-28 15 -55.5 22t-68.5 7q-54 0 -86 -24.5t-32 -68.5q0 -34 24.5 -54.5t61.5 -20.5q60 0 103 39zM338 739h126l-103 -131h-94z" />
    <glyph glyph-name="acircumflex" unicode="&#xe2;" horiz-adv-x="543" 
d="M101 4.5q-38 20.5 -60.5 56.5t-22.5 81q0 85 61 135t171 50q37 0 73 -8t65 -21l5 25q3 15 3 24q0 38 -32.5 61.5t-79.5 23.5q-78 0 -128 -60l-79 57q38 47 95 72t124 25q96 0 151 -46t55 -122q0 -21 -5 -53l-54 -305h-108l11 61h-6q-25 -36 -64 -56.5t-91 -20.5
q-46 0 -84 20.5zM320 114q43 39 53 100q-28 15 -55.5 22t-68.5 7q-54 0 -86 -24.5t-32 -68.5q0 -34 24.5 -54.5t61.5 -20.5q60 0 103 39zM156 615l128 121h98l86 -121l-1 -7h-100l-37 59h-10l-54 -59h-111z" />
    <glyph glyph-name="atilde" unicode="&#xe3;" horiz-adv-x="543" 
d="M101 4.5q-38 20.5 -60.5 56.5t-22.5 81q0 85 61 135t171 50q37 0 73 -8t65 -21l5 25q3 15 3 24q0 38 -32.5 61.5t-79.5 23.5q-78 0 -128 -60l-79 57q38 47 95 72t124 25q96 0 151 -46t55 -122q0 -21 -5 -53l-54 -305h-108l11 61h-6q-25 -36 -64 -56.5t-91 -20.5
q-46 0 -84 20.5zM320 114q43 39 53 100q-28 15 -55.5 22t-68.5 7q-54 0 -86 -24.5t-32 -68.5q0 -34 24.5 -54.5t61.5 -20.5q60 0 103 39zM353 617.5q-16 6.5 -35 17.5q-19 10 -30 15t-24 5q-29 0 -36 -33h-84q8 61 40 92t80 31q19 0 35 -6t36 -18q19 -10 30 -15t24 -5
q27 0 36 32h83q-8 -60 -40 -91t-80 -31q-19 0 -35 6.5z" />
    <glyph glyph-name="adieresis" unicode="&#xe4;" horiz-adv-x="543" 
d="M101 4.5q-38 20.5 -60.5 56.5t-22.5 81q0 85 61 135t171 50q37 0 73 -8t65 -21l5 25q3 15 3 24q0 38 -32.5 61.5t-79.5 23.5q-78 0 -128 -60l-79 57q38 47 95 72t124 25q96 0 151 -46t55 -122q0 -21 -5 -53l-54 -305h-108l11 61h-6q-25 -36 -64 -56.5t-91 -20.5
q-46 0 -84 20.5zM320 114q43 39 53 100q-28 15 -55.5 22t-68.5 7q-54 0 -86 -24.5t-32 -68.5q0 -34 24.5 -54.5t61.5 -20.5q60 0 103 39zM192.5 634q-18.5 19 -18.5 45q0 27 18.5 45t44.5 18q28 0 46 -18t18 -45t-18.5 -45.5t-45.5 -18.5q-26 0 -44.5 19zM371 634
q-19 19 -19 45q0 27 19 45t45 18q27 0 45.5 -18t18.5 -45q0 -26 -18.5 -45t-45.5 -19q-26 0 -45 19z" />
    <glyph glyph-name="aring" unicode="&#xe5;" horiz-adv-x="543" 
d="M101 4.5q-38 20.5 -60.5 56.5t-22.5 81q0 85 61 135t171 50q37 0 73 -8t65 -21l5 25q3 15 3 24q0 38 -32.5 61.5t-79.5 23.5q-78 0 -128 -60l-79 57q38 47 95 72t124 25q96 0 151 -46t55 -122q0 -21 -5 -53l-54 -305h-108l11 61h-6q-25 -36 -64 -56.5t-91 -20.5
q-46 0 -84 20.5zM320 114q43 39 53 100q-28 15 -55.5 22t-68.5 7q-54 0 -86 -24.5t-32 -68.5q0 -34 24.5 -54.5t61.5 -20.5q60 0 103 39zM254 617q-31 31 -31 75t31 74.5t75 30.5t75 -30.5t31 -74.5t-31 -75t-75 -31t-75 31zM357 663q12 12 12 29q0 16 -12 27.5t-28 11.5
t-28 -11.5t-12 -27.5t12 -28.5t28 -12.5t28 12z" />
    <glyph glyph-name="ae" unicode="&#xe6;" horiz-adv-x="938" 
d="M101 4.5q-38 20.5 -60.5 56.5t-22.5 81q0 91 65.5 138t173.5 47q42 0 77 -8.5t55 -18.5l5 26q2 12 2 19q0 40 -30 63.5t-79 23.5q-40 0 -72 -15t-50 -44l-85 48q33 52 88 78.5t129 26.5q62 0 108 -23.5t68 -62.5q37 42 87.5 64t110.5 22q67 0 116 -29.5t75 -79t26 -106.5
q0 -44 -11 -80h-391q-2 -12 -2 -22q1 -58 39.5 -92t92.5 -34q56 0 93.5 21t62.5 63l84 -46q-82 -137 -247 -137q-69 0 -119.5 32.5t-76.5 82.5q-85 -115 -228 -115q-46 0 -84 20.5zM782 315v8q0 44 -34 76t-90 32q-57 0 -99 -33.5t-58 -82.5h281zM320 114q43 39 53 100
q-55 29 -124 29q-54 0 -86 -24.5t-32 -68.5q0 -34 24.5 -54.5t61.5 -20.5q60 0 103 39z" />
    <glyph glyph-name="ccedilla" unicode="&#xe7;" horiz-adv-x="559" 
d="M342.5 107.5q36.5 22.5 58.5 61.5l91 -43q-79 -142 -247 -142h-3l-19 -32q12 2 19 2q35 0 56.5 -24t21.5 -63q0 -46 -31.5 -75t-81.5 -29q-34 0 -61 19.5t-33 46.5l61 25q2 -13 12.5 -22t24.5 -9q17 0 29 11.5t12 30.5q0 14 -9 23.5t-24 9.5q-16 0 -31 -15l-49 24l47 84
q-79 19 -126 83t-47 148q0 82 38 152t107 111t158 41q83 0 138 -41t73 -102l-103 -39q-13 37 -45 58.5t-77 21.5q-49 0 -89.5 -24.5t-64 -68.5t-23.5 -99q0 -63 37 -105t96 -42q48 0 84.5 22.5z" />
    <glyph glyph-name="egrave" unicode="&#xe8;" horiz-adv-x="577" 
d="M123.5 16q-53.5 32 -82 86.5t-28.5 119.5q0 80 37 150t104 112t153 42q68 0 118 -29.5t76 -78.5t26 -107q0 -44 -11 -80h-392q-1 -6 -1 -22q1 -58 39.5 -92t92.5 -34q56 0 93 21t62 63l84 -46q-82 -137 -247 -137q-70 0 -123.5 32zM420 315v8q0 44 -33.5 76t-90.5 32
t-98.5 -33.5t-58.5 -82.5h281zM223 739h121l24 -131h-89z" />
    <glyph glyph-name="eacute" unicode="&#xe9;" horiz-adv-x="577" 
d="M123.5 16q-53.5 32 -82 86.5t-28.5 119.5q0 80 37 150t104 112t153 42q68 0 118 -29.5t76 -78.5t26 -107q0 -44 -11 -80h-392q-1 -6 -1 -22q1 -58 39.5 -92t92.5 -34q56 0 93 21t62 63l84 -46q-82 -137 -247 -137q-70 0 -123.5 32zM420 315v8q0 44 -33.5 76t-90.5 32
t-98.5 -33.5t-58.5 -82.5h281zM345 739h126l-103 -131h-94z" />
    <glyph glyph-name="ecircumflex" unicode="&#xea;" horiz-adv-x="577" 
d="M123.5 16q-53.5 32 -82 86.5t-28.5 119.5q0 80 37 150t104 112t153 42q68 0 118 -29.5t76 -78.5t26 -107q0 -44 -11 -80h-392q-1 -6 -1 -22q1 -58 39.5 -92t92.5 -34q56 0 93 21t62 63l84 -46q-82 -137 -247 -137q-70 0 -123.5 32zM420 315v8q0 44 -33.5 76t-90.5 32
t-98.5 -33.5t-58.5 -82.5h281zM163 615l128 121h98l86 -121l-1 -7h-100l-37 59h-10l-54 -59h-111z" />
    <glyph glyph-name="edieresis" unicode="&#xeb;" horiz-adv-x="577" 
d="M123.5 16q-53.5 32 -82 86.5t-28.5 119.5q0 80 37 150t104 112t153 42q68 0 118 -29.5t76 -78.5t26 -107q0 -44 -11 -80h-392q-1 -6 -1 -22q1 -58 39.5 -92t92.5 -34q56 0 93 21t62 63l84 -46q-82 -137 -247 -137q-70 0 -123.5 32zM420 315v8q0 44 -33.5 76t-90.5 32
t-98.5 -33.5t-58.5 -82.5h281zM199.5 634q-18.5 19 -18.5 45q0 27 18.5 45t44.5 18q28 0 46 -18t18 -45t-18.5 -45.5t-45.5 -18.5q-26 0 -44.5 19zM378 634q-19 19 -19 45q0 27 19 45t45 18q27 0 45.5 -18t18.5 -45q0 -26 -18.5 -45t-45.5 -19q-26 0 -45 19z" />
    <glyph glyph-name="igrave" unicode="&#xec;" horiz-adv-x="255" 
d="M96 510h110l-89 -510h-110zM70 739h121l24 -131h-89z" />
    <glyph glyph-name="iacute" unicode="&#xed;" horiz-adv-x="255" 
d="M96 510h110l-89 -510h-110zM192 739h126l-103 -131h-94z" />
    <glyph glyph-name="icircumflex" unicode="&#xee;" horiz-adv-x="255" 
d="M96 510h110l-89 -510h-110zM10 615l128 121h98l86 -121l-1 -7h-100l-37 59h-10l-54 -59h-111z" />
    <glyph glyph-name="idieresis" unicode="&#xef;" horiz-adv-x="255" 
d="M62.5 635q-18.5 19 -18.5 44q0 26 18.5 44t43.5 18q27 0 45 -18t18 -44t-18 -44.5t-45 -18.5q-25 0 -43.5 19zM213.5 635q-18.5 19 -18.5 44q0 26 18.5 44t43.5 18q27 0 45 -18t18 -44t-18 -44.5t-45 -18.5q-25 0 -43.5 19zM96 510h110l-89 -510h-110z" />
    <glyph glyph-name="eth" unicode="&#xf0;" horiz-adv-x="585" 
d="M126.5 14q-52.5 30 -82.5 81.5t-30 114.5q0 78 34 142t97 101.5t144 37.5q38 0 70.5 -13t52.5 -33l7 4q-9 33 -27 57t-48 53l-127 -52l-28 68l83 34q-41 22 -91 33l33 88q96 -24 166 -77l114 47l28 -67l-82 -35q45 -54 69.5 -126t24.5 -154q0 -90 -32.5 -166t-98 -122
t-160.5 -46q-64 0 -116.5 30zM336 109q36 23 56.5 62t20.5 84q0 59 -33.5 97.5t-91.5 38.5q-48 0 -85 -24t-57.5 -64t-20.5 -86q0 -57 37 -94t94 -37q44 0 80 23z" />
    <glyph glyph-name="ntilde" unicode="&#xf1;" horiz-adv-x="583" 
d="M188 443q26 39 68 61t97 22q78 0 121 -42.5t43 -111.5q0 -31 -6 -67l-54 -305h-110l53 299q5 27 5 44q0 38 -25.5 59.5t-68.5 21.5q-58 0 -99.5 -41t-52.5 -107l-49 -276h-110l90 510h104l-12 -67h6zM387 617.5q-16 6.5 -35 17.5q-19 10 -30 15t-24 5q-29 0 -36 -33h-84
q8 61 40 92t80 31q19 0 35 -6t36 -18q19 -10 30 -15t24 -5q27 0 36 32h83q-8 -60 -40 -91t-80 -31q-19 0 -35 6.5z" />
    <glyph glyph-name="ograve" unicode="&#xf2;" horiz-adv-x="600" 
d="M128.5 16q-54.5 32 -84.5 87t-30 122q0 84 38 153t106.5 108.5t157.5 39.5q70 0 124.5 -32t84.5 -87t30 -122q0 -84 -38 -153t-106.5 -108.5t-157.5 -39.5q-70 0 -124.5 32zM355.5 110.5q40.5 25.5 64 69t23.5 95.5q0 65 -38 107t-101 42q-51 0 -91.5 -25t-64 -68.5
t-23.5 -95.5q0 -65 38.5 -107.5t101.5 -42.5q50 0 90.5 25.5zM236 739h121l24 -131h-89z" />
    <glyph glyph-name="oacute" unicode="&#xf3;" horiz-adv-x="600" 
d="M128.5 16q-54.5 32 -84.5 87t-30 122q0 84 38 153t106.5 108.5t157.5 39.5q70 0 124.5 -32t84.5 -87t30 -122q0 -84 -38 -153t-106.5 -108.5t-157.5 -39.5q-70 0 -124.5 32zM355.5 110.5q40.5 25.5 64 69t23.5 95.5q0 65 -38 107t-101 42q-51 0 -91.5 -25t-64 -68.5
t-23.5 -95.5q0 -65 38.5 -107.5t101.5 -42.5q50 0 90.5 25.5zM358 739h126l-103 -131h-94z" />
    <glyph glyph-name="ocircumflex" unicode="&#xf4;" horiz-adv-x="600" 
d="M128.5 16q-54.5 32 -84.5 87t-30 122q0 84 38 153t106.5 108.5t157.5 39.5q70 0 124.5 -32t84.5 -87t30 -122q0 -84 -38 -153t-106.5 -108.5t-157.5 -39.5q-70 0 -124.5 32zM355.5 110.5q40.5 25.5 64 69t23.5 95.5q0 65 -38 107t-101 42q-51 0 -91.5 -25t-64 -68.5
t-23.5 -95.5q0 -65 38.5 -107.5t101.5 -42.5q50 0 90.5 25.5zM176 615l128 121h98l86 -121l-1 -7h-100l-37 59h-10l-54 -59h-111z" />
    <glyph glyph-name="otilde" unicode="&#xf5;" horiz-adv-x="600" 
d="M128.5 16q-54.5 32 -84.5 87t-30 122q0 84 38 153t106.5 108.5t157.5 39.5q70 0 124.5 -32t84.5 -87t30 -122q0 -84 -38 -153t-106.5 -108.5t-157.5 -39.5q-70 0 -124.5 32zM355.5 110.5q40.5 25.5 64 69t23.5 95.5q0 65 -38 107t-101 42q-51 0 -91.5 -25t-64 -68.5
t-23.5 -95.5q0 -65 38.5 -107.5t101.5 -42.5q50 0 90.5 25.5zM373 617.5q-16 6.5 -35 17.5q-19 10 -30 15t-24 5q-29 0 -36 -33h-84q8 61 40 92t80 31q19 0 35 -6t36 -18q19 -10 30 -15t24 -5q27 0 36 32h83q-8 -60 -40 -91t-80 -31q-19 0 -35 6.5z" />
    <glyph glyph-name="odieresis" unicode="&#xf6;" horiz-adv-x="600" 
d="M128.5 16q-54.5 32 -84.5 87t-30 122q0 84 38 153t106.5 108.5t157.5 39.5q70 0 124.5 -32t84.5 -87t30 -122q0 -84 -38 -153t-106.5 -108.5t-157.5 -39.5q-70 0 -124.5 32zM355.5 110.5q40.5 25.5 64 69t23.5 95.5q0 65 -38 107t-101 42q-51 0 -91.5 -25t-64 -68.5
t-23.5 -95.5q0 -65 38.5 -107.5t101.5 -42.5q50 0 90.5 25.5zM212.5 634q-18.5 19 -18.5 45q0 27 18.5 45t44.5 18q28 0 46 -18t18 -45t-18.5 -45.5t-45.5 -18.5q-26 0 -44.5 19zM391 634q-19 19 -19 45q0 27 19 45t45 18q27 0 45.5 -18t18.5 -45q0 -26 -18.5 -45t-45.5 -19
q-26 0 -45 19z" />
    <glyph glyph-name="divide" unicode="&#xf7;" horiz-adv-x="559" 
d="M244.5 408q-21.5 22 -21.5 53t21.5 52.5t52.5 21.5t53 -21.5t22 -52.5t-21.5 -53t-53.5 -22q-31 0 -52.5 22zM49 316h447l-17 -90h-447zM178 28.5q-22 21.5 -22 52.5q0 32 22 53.5t53 21.5t52.5 -22t21.5 -53t-21.5 -52.5t-52.5 -21.5t-53 21.5z" />
    <glyph glyph-name="oslash" unicode="&#xf8;" horiz-adv-x="600" 
d="M45 11l34 43q-31 33 -48 77t-17 94q0 84 38 153t106.5 108.5t157.5 39.5q63 0 112 -26l39 50l65 -52l-38 -48q29 -32 45 -74.5t16 -90.5q0 -84 -38 -153t-106.5 -108.5t-157.5 -39.5q-58 0 -106 23l-35 -46zM362 415q-25 13 -58 13q-50 0 -91.5 -26t-65 -70.5
t-23.5 -96.5t25 -91zM356.5 107q41.5 26 65 70.5t23.5 97.5q0 50 -22 84l-209 -268q21 -10 51 -10q50 0 91.5 26z" />
    <glyph glyph-name="ugrave" unicode="&#xf9;" horiz-adv-x="583" 
d="M356 66q-26 -38 -68.5 -60t-97.5 -22q-77 0 -120.5 42.5t-43.5 110.5q0 33 7 68l54 305h110l-53 -300q-5 -25 -5 -43q0 -38 26 -60t68 -22q58 0 99 41t53 107l49 277h110l-90 -510h-104l12 66h-6zM234 739h121l24 -131h-89z" />
    <glyph glyph-name="uacute" unicode="&#xfa;" horiz-adv-x="583" 
d="M356 66q-26 -38 -68.5 -60t-97.5 -22q-77 0 -120.5 42.5t-43.5 110.5q0 33 7 68l54 305h110l-53 -300q-5 -25 -5 -43q0 -38 26 -60t68 -22q58 0 99 41t53 107l49 277h110l-90 -510h-104l12 66h-6zM356 739h126l-103 -131h-94z" />
    <glyph glyph-name="ucircumflex" unicode="&#xfb;" horiz-adv-x="583" 
d="M356 66q-26 -38 -68.5 -60t-97.5 -22q-77 0 -120.5 42.5t-43.5 110.5q0 33 7 68l54 305h110l-53 -300q-5 -25 -5 -43q0 -38 26 -60t68 -22q58 0 99 41t53 107l49 277h110l-90 -510h-104l12 66h-6zM174 615l128 121h98l86 -121l-1 -7h-100l-37 59h-10l-54 -59h-111z" />
    <glyph glyph-name="udieresis" unicode="&#xfc;" horiz-adv-x="583" 
d="M356 66q-26 -38 -68.5 -60t-97.5 -22q-77 0 -120.5 42.5t-43.5 110.5q0 33 7 68l54 305h110l-53 -300q-5 -25 -5 -43q0 -38 26 -60t68 -22q58 0 99 41t53 107l49 277h110l-90 -510h-104l12 66h-6zM210.5 634q-18.5 19 -18.5 45q0 27 18.5 45t44.5 18q28 0 46 -18t18 -45
t-18.5 -45.5t-45.5 -18.5q-26 0 -44.5 19zM389 634q-19 19 -19 45q0 27 19 45t45 18q27 0 45.5 -18t18.5 -45q0 -26 -18.5 -45t-45.5 -19q-26 0 -45 19z" />
    <glyph glyph-name="yacute" unicode="&#xfd;" horiz-adv-x="549" 
d="M172 30l-126 480h120l84 -347h4l202 347h124l-444 -726h-119zM345 739h126l-103 -131h-94z" />
    <glyph glyph-name="thorn" unicode="&#xfe;" horiz-adv-x="602" 
d="M135 716h110l-35 -201l-18 -72h5q57 83 173 83q59 0 106 -30t74 -83t27 -121q0 -85 -37 -155.5t-103.5 -111.5t-150.5 -41q-53 0 -95.5 24t-60.5 58h-6l-6 -71l-37 -211h-110zM379 110.5q41 25.5 64 70.5t23 101q0 65 -37.5 103.5t-95.5 38.5q-48 0 -89 -25.5t-65 -71
t-24 -103.5q0 -63 37.5 -101t94.5 -38q51 0 92 25.5z" />
    <glyph glyph-name="ydieresis" unicode="&#xff;" horiz-adv-x="549" 
d="M172 30l-126 480h120l84 -347h4l202 347h124l-444 -726h-119zM199.5 634q-18.5 19 -18.5 45q0 27 18.5 45t44.5 18q28 0 46 -18t18 -45t-18.5 -45.5t-45.5 -18.5q-26 0 -44.5 19zM378 634q-19 19 -19 45q0 27 19 45t45 18q27 0 45.5 -18t18.5 -45q0 -26 -18.5 -45
t-45.5 -19q-26 0 -45 19z" />
    <glyph glyph-name="Amacron" unicode="&#x100;" horiz-adv-x="696" 
d="M343 716h129l143 -716h-120l-33 183h-287l-98 -183h-127zM443 287l-40 213l-13 83h-5l-43 -83l-113 -213h214zM288 886h288l-15 -86h-288z" />
    <glyph glyph-name="amacron" unicode="&#x101;" horiz-adv-x="543" 
d="M101 4.5q-38 20.5 -60.5 56.5t-22.5 81q0 85 61 135t171 50q37 0 73 -8t65 -21l5 25q3 15 3 24q0 38 -32.5 61.5t-79.5 23.5q-78 0 -128 -60l-79 57q38 47 95 72t124 25q96 0 151 -46t55 -122q0 -21 -5 -53l-54 -305h-108l11 61h-6q-25 -36 -64 -56.5t-91 -20.5
q-46 0 -84 20.5zM320 114q43 39 53 100q-28 15 -55.5 22t-68.5 7q-54 0 -86 -24.5t-32 -68.5q0 -34 24.5 -54.5t61.5 -20.5q60 0 103 39zM191 721h287l-15 -85h-287z" />
    <glyph glyph-name="Abreve" unicode="&#x102;" horiz-adv-x="696" 
d="M343 716h129l143 -716h-120l-33 183h-287l-98 -183h-127zM443 287l-40 213l-13 83h-5l-43 -83l-113 -213h214zM332.5 797.5q-33.5 30.5 -33.5 77.5q0 6 2 22h83q-1 -4 -1 -10q0 -17 11 -29t31 -12q22 0 37.5 14t20.5 37h82q-10 -64 -49.5 -97t-100.5 -33
q-49 0 -82.5 30.5z" />
    <glyph glyph-name="abreve" unicode="&#x103;" horiz-adv-x="543" 
d="M101 4.5q-38 20.5 -60.5 56.5t-22.5 81q0 85 61 135t171 50q37 0 73 -8t65 -21l5 25q3 15 3 24q0 38 -32.5 61.5t-79.5 23.5q-78 0 -128 -60l-79 57q38 47 95 72t124 25q96 0 151 -46t55 -122q0 -21 -5 -53l-54 -305h-108l11 61h-6q-25 -36 -64 -56.5t-91 -20.5
q-46 0 -84 20.5zM320 114q43 39 53 100q-28 15 -55.5 22t-68.5 7q-54 0 -86 -24.5t-32 -68.5q0 -34 24.5 -54.5t61.5 -20.5q60 0 103 39zM233.5 633.5q-33.5 30.5 -33.5 77.5q0 6 2 22h82q-1 -4 -1 -10q0 -18 11 -30t31 -12q23 0 39 14t20 38h81q-10 -64 -49.5 -97
t-99.5 -33q-49 0 -82.5 30.5z" />
    <glyph glyph-name="Aogonek" unicode="&#x104;" horiz-adv-x="696" 
d="M457.5 -197.5q-29.5 26.5 -29.5 67.5q0 73 75 128v2h-8l-33 183h-287l-98 -183h-127l393 716h129l143 -716q-33 -19 -60.5 -48t-27.5 -57q0 -16 10 -25t25 -9q19 0 42 10l-15 -86q-13 -5 -24 -7t-29 -2q-49 0 -78.5 26.5zM443 287l-40 213l-13 83h-5l-43 -83l-113 -213
h214z" />
    <glyph glyph-name="aogonek" unicode="&#x105;" horiz-adv-x="543" 
d="M285 -197.5q-30 26.5 -30 67.5q0 38 22 70.5t60 56.5l-2 3l11 61h-6q-25 -36 -64 -56.5t-91 -20.5q-46 0 -84 20.5t-60.5 56.5t-22.5 81q0 85 61 135t171 50q37 0 73 -8t65 -21l5 25q3 15 3 24q0 38 -32.5 61.5t-79.5 23.5q-78 0 -128 -60l-79 57q38 47 95 72t124 25
q96 0 151 -46t55 -122q0 -21 -5 -53l-54 -305q-34 -19 -61 -48t-27 -57q0 -16 10 -25t25 -9q18 0 41 10l-14 -86q-14 -5 -24.5 -7t-28.5 -2q-49 0 -79 26.5zM320 114q43 39 53 100q-28 15 -55.5 22t-68.5 7q-54 0 -86 -24.5t-32 -68.5q0 -34 24.5 -54.5t61.5 -20.5
q60 0 103 39z" />
    <glyph glyph-name="Cacute" unicode="&#x106;" horiz-adv-x="747" 
d="M193 24q-73 40 -114.5 114t-41.5 172q0 111 56 208t155 155.5t221 58.5q83 0 149 -33t103 -88l-89 -74q-32 45 -74.5 66.5t-101.5 21.5q-83 0 -153 -42.5t-111.5 -114t-41.5 -152.5q0 -68 28.5 -119t78.5 -78.5t113 -27.5q66 0 118 25.5t104 76.5l72 -81
q-68 -67 -139.5 -97.5t-166.5 -30.5q-92 0 -165 40zM491 904h126l-104 -132h-93z" />
    <glyph glyph-name="cacute" unicode="&#x107;" horiz-adv-x="559" 
d="M124 16q-53 32 -82 86.5t-29 119.5q0 82 38 152t107 111t158 41q83 0 138 -41t73 -102l-103 -39q-13 37 -45 58.5t-77 21.5q-49 0 -89.5 -24.5t-64 -68.5t-23.5 -99q0 -63 37 -105t96 -42q48 0 84.5 22.5t58.5 61.5l91 -43q-79 -142 -247 -142q-68 0 -121 32zM346 739
h126l-103 -131h-94z" />
    <glyph glyph-name="Ccircumflex" unicode="&#x108;" horiz-adv-x="747" 
d="M193 24q-73 40 -114.5 114t-41.5 172q0 111 56 208t155 155.5t221 58.5q83 0 149 -33t103 -88l-89 -74q-32 45 -74.5 66.5t-101.5 21.5q-83 0 -153 -42.5t-111.5 -114t-41.5 -152.5q0 -68 28.5 -119t78.5 -78.5t113 -27.5q66 0 118 25.5t104 76.5l72 -81
q-68 -67 -139.5 -97.5t-166.5 -30.5q-92 0 -165 40zM309 785l127 121h98l87 -121l-2 -7h-100l-37 60h-9l-54 -60h-112z" />
    <glyph glyph-name="ccircumflex" unicode="&#x109;" horiz-adv-x="559" 
d="M124 16q-53 32 -82 86.5t-29 119.5q0 82 38 152t107 111t158 41q83 0 138 -41t73 -102l-103 -39q-13 37 -45 58.5t-77 21.5q-49 0 -89.5 -24.5t-64 -68.5t-23.5 -99q0 -63 37 -105t96 -42q48 0 84.5 22.5t58.5 61.5l91 -43q-79 -142 -247 -142q-68 0 -121 32zM164 615
l128 121h98l86 -121l-1 -7h-100l-37 59h-10l-54 -59h-111z" />
    <glyph glyph-name="Cdotaccent" unicode="&#x10a;" horiz-adv-x="747" 
d="M193 24q-73 40 -114.5 114t-41.5 172q0 111 56 208t155 155.5t221 58.5q83 0 149 -33t103 -88l-89 -74q-32 45 -74.5 66.5t-101.5 21.5q-83 0 -153 -42.5t-111.5 -114t-41.5 -152.5q0 -68 28.5 -119t78.5 -78.5t113 -27.5q66 0 118 25.5t104 76.5l72 -81
q-68 -67 -139.5 -97.5t-166.5 -30.5q-92 0 -165 40zM438.5 813.5q-18.5 18.5 -18.5 42.5q0 25 18.5 43t42.5 18q25 0 43 -17.5t18 -43.5q0 -24 -18 -42.5t-43 -18.5q-24 0 -42.5 18.5z" />
    <glyph glyph-name="cdotaccent" unicode="&#x10b;" horiz-adv-x="559" 
d="M124 16q-53 32 -82 86.5t-29 119.5q0 82 38 152t107 111t158 41q83 0 138 -41t73 -102l-103 -39q-13 37 -45 58.5t-77 21.5q-49 0 -89.5 -24.5t-64 -68.5t-23.5 -99q0 -63 37 -105t96 -42q48 0 84.5 22.5t58.5 61.5l91 -43q-79 -142 -247 -142q-68 0 -121 32zM288 629
q-20 20 -20 46q0 27 19.5 46.5t46.5 19.5q28 0 47 -19t19 -47q0 -27 -19.5 -46.5t-46.5 -19.5q-26 0 -46 20z" />
    <glyph glyph-name="Ccaron" unicode="&#x10c;" horiz-adv-x="747" 
d="M193 24q-73 40 -114.5 114t-41.5 172q0 111 56 208t155 155.5t221 58.5q83 0 149 -33t103 -88l-89 -74q-32 45 -74.5 66.5t-101.5 21.5q-83 0 -153 -42.5t-111.5 -114t-41.5 -152.5q0 -68 28.5 -119t78.5 -78.5t113 -27.5q66 0 118 25.5t104 76.5l72 -81
q-68 -67 -139.5 -97.5t-166.5 -30.5q-92 0 -165 40zM336 899l2 7h100l37 -59h10l54 59h111l-2 -7l-127 -121h-98z" />
    <glyph glyph-name="ccaron" unicode="&#x10d;" horiz-adv-x="559" 
d="M124 16q-53 32 -82 86.5t-29 119.5q0 82 38 152t107 111t158 41q83 0 138 -41t73 -102l-103 -39q-13 37 -45 58.5t-77 21.5q-49 0 -89.5 -24.5t-64 -68.5t-23.5 -99q0 -63 37 -105t96 -42q48 0 84.5 22.5t58.5 61.5l91 -43q-79 -142 -247 -142q-68 0 -121 32zM191 729
l1 7h101l36 -60h10l54 60h111l-1 -7l-128 -121h-98z" />
    <glyph glyph-name="Dcaron" unicode="&#x10e;" horiz-adv-x="723" 
d="M143 716h223q100 0 171 -40t107.5 -110.5t36.5 -160.5q0 -108 -51.5 -201t-147.5 -148.5t-225 -55.5h-241zM262 107q87 0 157 37.5t109.5 103t39.5 146.5q0 104 -56 159.5t-161 55.5h-116l-88 -502h115zM241 893l2 7h100l37 -59h10l54 59h111l-2 -7l-127 -121h-98z" />
    <glyph glyph-name="dcaron" unicode="&#x10f;" horiz-adv-x="717" 
d="M114 13.5q-47 29.5 -74 82.5t-27 121q0 85 37 156t103.5 112t150.5 41q54 0 96 -24.5t60 -58.5h6l6 72l36 201h110l-127 -716h-104l12 66h-6q-58 -82 -173 -82q-59 0 -106 29.5zM346 110.5q41 25.5 65 71.5t24 104q0 62 -37.5 100t-94.5 38q-51 0 -92 -25.5t-64 -70.5
t-23 -101q0 -64 37.5 -103t95.5 -39q48 0 89 25.5zM677 716h118l-71 -195h-81z" />
    <glyph glyph-name="Dcroat" unicode="&#x110;" horiz-adv-x="718" 
d="M-6 327l14 90h77l53 299h223q100 0 171.5 -40t108 -110.5t36.5 -160.5q0 -108 -51.5 -201t-148 -148.5t-225.5 -55.5h-241l58 327h-75zM414.5 144.5q69.5 37.5 109 103t39.5 146.5q0 104 -56 159.5t-161 55.5h-115l-34 -192h181l-15 -90h-183l-38 -220h115
q88 0 157.5 37.5z" />
    <glyph glyph-name="dcroat" unicode="&#x111;" horiz-adv-x="618" 
d="M114 13.5q-47 29.5 -74 82.5t-27 121q0 85 37 156t103.5 112t150.5 41q54 0 96 -24.5t60 -58.5h6l6 72l11 61h-145l14 81h145l11 59h110l-11 -59h62l-15 -81h-61l-102 -576h-104l12 66h-6q-58 -82 -173 -82q-59 0 -106 29.5zM346 110.5q41 25.5 65 71.5t24 104
q0 62 -37.5 100t-94.5 38q-51 0 -92 -25.5t-64 -70.5t-23 -101q0 -64 37.5 -103t95.5 -39q48 0 89 25.5z" />
    <glyph glyph-name="Emacron" unicode="&#x112;" horiz-adv-x="573" 
d="M143 716h434l-19 -107h-323l-35 -198h291l-18 -106h-291l-35 -198h323l-20 -107h-434zM247 886h288l-15 -86h-288z" />
    <glyph glyph-name="emacron" unicode="&#x113;" horiz-adv-x="577" 
d="M123.5 16q-53.5 32 -82 86.5t-28.5 119.5q0 80 37 150t104 112t153 42q68 0 118 -29.5t76 -78.5t26 -107q0 -44 -11 -80h-392q-1 -6 -1 -22q1 -58 39.5 -92t92.5 -34q56 0 93 21t62 63l84 -46q-82 -137 -247 -137q-70 0 -123.5 32zM420 315v8q0 44 -33.5 76t-90.5 32
t-98.5 -33.5t-58.5 -82.5h281zM198 721h287l-15 -85h-287z" />
    <glyph glyph-name="Ebreve" unicode="&#x114;" horiz-adv-x="573" 
d="M143 716h434l-19 -107h-323l-35 -198h291l-18 -106h-291l-35 -198h323l-20 -107h-434zM291.5 797.5q-33.5 30.5 -33.5 77.5q0 6 2 22h83q-1 -4 -1 -10q0 -17 11 -29t31 -12q22 0 37.5 14t20.5 37h82q-10 -64 -49.5 -97t-100.5 -33q-49 0 -82.5 30.5z" />
    <glyph glyph-name="ebreve" unicode="&#x115;" horiz-adv-x="577" 
d="M123.5 16q-53.5 32 -82 86.5t-28.5 119.5q0 80 37 150t104 112t153 42q68 0 118 -29.5t76 -78.5t26 -107q0 -44 -11 -80h-392q-1 -6 -1 -22q1 -58 39.5 -92t92.5 -34q56 0 93 21t62 63l84 -46q-82 -137 -247 -137q-70 0 -123.5 32zM420 315v8q0 44 -33.5 76t-90.5 32
t-98.5 -33.5t-58.5 -82.5h281zM240.5 633.5q-33.5 30.5 -33.5 77.5q0 6 2 22h82q-1 -4 -1 -10q0 -18 11 -30t31 -12q23 0 39 14t20 38h81q-10 -64 -49.5 -97t-99.5 -33q-49 0 -82.5 30.5z" />
    <glyph glyph-name="Edotaccent" unicode="&#x116;" horiz-adv-x="573" 
d="M143 716h434l-19 -107h-323l-35 -198h291l-18 -106h-291l-35 -198h323l-20 -107h-434zM343.5 813.5q-18.5 18.5 -18.5 42.5q0 25 18.5 43t42.5 18q25 0 43 -17.5t18 -43.5q0 -24 -18 -42.5t-43 -18.5q-24 0 -42.5 18.5z" />
    <glyph glyph-name="edotaccent" unicode="&#x117;" horiz-adv-x="577" 
d="M123.5 16q-53.5 32 -82 86.5t-28.5 119.5q0 80 37 150t104 112t153 42q68 0 118 -29.5t76 -78.5t26 -107q0 -44 -11 -80h-392q-1 -6 -1 -22q1 -58 39.5 -92t92.5 -34q56 0 93 21t62 63l84 -46q-82 -137 -247 -137q-70 0 -123.5 32zM420 315v8q0 44 -33.5 76t-90.5 32
t-98.5 -33.5t-58.5 -82.5h281zM287 629q-20 20 -20 46q0 27 19.5 46.5t46.5 19.5q28 0 47 -19t19 -47q0 -27 -19.5 -46.5t-46.5 -19.5q-26 0 -46 20z" />
    <glyph glyph-name="Eogonek" unicode="&#x118;" horiz-adv-x="573" 
d="M143 716h434l-19 -107h-323l-35 -198h291l-18 -106h-291l-35 -198h323l-20 -107h-434zM292.5 -197.5q-29.5 26.5 -29.5 67.5q0 40 22 73t61 57h104q-33 -19 -60.5 -48t-27.5 -57q0 -16 10 -25t25 -9q19 0 42 10l-15 -86q-13 -5 -24 -7t-29 -2q-49 0 -78.5 26.5z" />
    <glyph glyph-name="eogonek" unicode="&#x119;" horiz-adv-x="577" 
d="M196.5 -197.5q-30.5 26.5 -30.5 67.5q0 66 62 115q-65 4 -114 37t-75 85.5t-26 114.5q0 80 37 150t104 112t153 42q68 0 118 -29.5t76 -78.5t26 -107q0 -44 -11 -80h-392q-1 -6 -1 -22q1 -58 39.5 -92t92.5 -34q56 0 93 21t62 63l84 -46q-48 -82 -129 -117
q-41 -17 -70 -48t-29 -61q0 -16 10 -25t25 -9q16 0 36 8l-2 -83q-24 -10 -59 -10q-49 0 -79.5 26.5zM420 315v8q0 44 -33.5 76t-90.5 32t-98.5 -33.5t-58.5 -82.5h281z" />
    <glyph glyph-name="Ecaron" unicode="&#x11a;" horiz-adv-x="573" 
d="M143 716h434l-19 -107h-323l-35 -198h291l-18 -106h-291l-35 -198h323l-20 -107h-434zM241 899l2 7h100l37 -59h10l54 59h111l-2 -7l-127 -121h-98z" />
    <glyph glyph-name="ecaron" unicode="&#x11b;" horiz-adv-x="577" 
d="M123.5 16q-53.5 32 -82 86.5t-28.5 119.5q0 80 37 150t104 112t153 42q68 0 118 -29.5t76 -78.5t26 -107q0 -44 -11 -80h-392q-1 -6 -1 -22q1 -58 39.5 -92t92.5 -34q56 0 93 21t62 63l84 -46q-82 -137 -247 -137q-70 0 -123.5 32zM420 315v8q0 44 -33.5 76t-90.5 32
t-98.5 -33.5t-58.5 -82.5h281zM190 729l1 7h101l36 -60h10l54 60h111l-1 -7l-128 -121h-98z" />
    <glyph glyph-name="Gcircumflex" unicode="&#x11c;" horiz-adv-x="821" 
d="M203.5 25.5q-75.5 41.5 -120 117.5t-44.5 175q0 111 55 206t154 151.5t226 56.5q83 0 151 -30.5t105 -82.5l-89 -76q-25 37 -73.5 59.5t-107.5 22.5q-85 0 -155.5 -39t-111 -108t-40.5 -155q0 -72 30.5 -124.5t82.5 -80t115 -27.5q118 0 191 73q51 48 73 124h-239l17 100
h349q0 -21 -3 -48q-16 -151 -116 -248q-110 -108 -282 -108q-92 0 -167.5 41.5zM318 785l127 121h98l87 -121l-2 -7h-100l-37 60h-9l-54 -60h-112z" />
    <glyph glyph-name="gcircumflex" unicode="&#x11d;" horiz-adv-x="613" 
d="M107.5 -211.5q-45.5 20.5 -73 54t-35.5 70.5l108 42q9 -40 40 -64t79 -24q72 0 117 40t59 115l9 50h-5q-27 -39 -67.5 -58t-99.5 -19q-58 0 -105 28.5t-74 80.5t-27 118q0 80 35 150t99.5 112t149.5 42q54 0 95 -21t60 -57h6l11 62h105l-87 -491q-22 -127 -97 -189
t-197 -62q-60 0 -105.5 20.5zM360 121q41 26 64.5 70.5t23.5 96.5q0 62 -36.5 99.5t-90.5 37.5q-52 0 -92.5 -25.5t-63 -70t-22.5 -99.5q0 -64 35.5 -99.5t90.5 -35.5q50 0 91 26zM183 615l128 121h98l86 -121l-1 -7h-100l-37 59h-10l-54 -59h-111z" />
    <glyph glyph-name="Gbreve" unicode="&#x11e;" horiz-adv-x="821" 
d="M203.5 25.5q-75.5 41.5 -120 117.5t-44.5 175q0 111 55 206t154 151.5t226 56.5q83 0 151 -30.5t105 -82.5l-89 -76q-25 37 -73.5 59.5t-107.5 22.5q-85 0 -155.5 -39t-111 -108t-40.5 -155q0 -72 30.5 -124.5t82.5 -80t115 -27.5q118 0 191 73q51 48 73 124h-239l17 100
h349q0 -21 -3 -48q-16 -151 -116 -248q-110 -108 -282 -108q-92 0 -167.5 41.5zM395.5 797.5q-33.5 30.5 -33.5 77.5q0 6 2 22h83q-1 -4 -1 -10q0 -17 11 -29t31 -12q22 0 37.5 14t20.5 37h82q-10 -64 -49.5 -97t-100.5 -33q-49 0 -82.5 30.5z" />
    <glyph glyph-name="gbreve" unicode="&#x11f;" horiz-adv-x="613" 
d="M107.5 -211.5q-45.5 20.5 -73 54t-35.5 70.5l108 42q9 -40 40 -64t79 -24q72 0 117 40t59 115l9 50h-5q-27 -39 -67.5 -58t-99.5 -19q-58 0 -105 28.5t-74 80.5t-27 118q0 80 35 150t99.5 112t149.5 42q54 0 95 -21t60 -57h6l11 62h105l-87 -491q-22 -127 -97 -189
t-197 -62q-60 0 -105.5 20.5zM360 121q41 26 64.5 70.5t23.5 96.5q0 62 -36.5 99.5t-90.5 37.5q-52 0 -92.5 -25.5t-63 -70t-22.5 -99.5q0 -64 35.5 -99.5t90.5 -35.5q50 0 91 26zM260.5 633.5q-33.5 30.5 -33.5 77.5q0 6 2 22h82q-1 -4 -1 -10q0 -18 11 -30t31 -12
q23 0 39 14t20 38h81q-10 -64 -49.5 -97t-99.5 -33q-49 0 -82.5 30.5z" />
    <glyph glyph-name="Gdotaccent" unicode="&#x120;" horiz-adv-x="821" 
d="M203.5 25.5q-75.5 41.5 -120 117.5t-44.5 175q0 111 55 206t154 151.5t226 56.5q83 0 151 -30.5t105 -82.5l-89 -76q-25 37 -73.5 59.5t-107.5 22.5q-85 0 -155.5 -39t-111 -108t-40.5 -155q0 -72 30.5 -124.5t82.5 -80t115 -27.5q118 0 191 73q51 48 73 124h-239l17 100
h349q0 -21 -3 -48q-16 -151 -116 -248q-110 -108 -282 -108q-92 0 -167.5 41.5zM447.5 813.5q-18.5 18.5 -18.5 42.5q0 25 18.5 43t42.5 18q25 0 43 -17.5t18 -43.5q0 -24 -18 -42.5t-43 -18.5q-24 0 -42.5 18.5z" />
    <glyph glyph-name="gdotaccent" unicode="&#x121;" horiz-adv-x="613" 
d="M107.5 -211.5q-45.5 20.5 -73 54t-35.5 70.5l108 42q9 -40 40 -64t79 -24q72 0 117 40t59 115l9 50h-5q-27 -39 -67.5 -58t-99.5 -19q-58 0 -105 28.5t-74 80.5t-27 118q0 80 35 150t99.5 112t149.5 42q54 0 95 -21t60 -57h6l11 62h105l-87 -491q-22 -127 -97 -189
t-197 -62q-60 0 -105.5 20.5zM360 121q41 26 64.5 70.5t23.5 96.5q0 62 -36.5 99.5t-90.5 37.5q-52 0 -92.5 -25.5t-63 -70t-22.5 -99.5q0 -64 35.5 -99.5t90.5 -35.5q50 0 91 26zM307 629q-20 20 -20 46q0 27 19.5 46.5t46.5 19.5q28 0 47 -19t19 -47q0 -27 -19.5 -46.5
t-46.5 -19.5q-26 0 -46 20z" />
    <glyph glyph-name="uni0122" unicode="&#x122;" horiz-adv-x="821" 
d="M203.5 25.5q-75.5 41.5 -120 117.5t-44.5 175q0 111 55 206t154 151.5t226 56.5q83 0 151 -30.5t105 -82.5l-89 -76q-25 37 -73.5 59.5t-107.5 22.5q-85 0 -155.5 -39t-111 -108t-40.5 -155q0 -72 30.5 -124.5t82.5 -80t115 -27.5q118 0 191 73q51 48 73 124h-239l17 100
h349q0 -21 -3 -48q-16 -151 -116 -248q-110 -108 -282 -108q-92 0 -167.5 41.5zM331 -171q-20 5 -31.5 21.5t-11.5 37.5q0 26 18.5 45t46.5 19t46 -19t18 -47q0 -32 -18 -53l-81 -98l-40 34z" />
    <glyph glyph-name="uni0123" unicode="&#x123;" horiz-adv-x="613" 
d="M107.5 -211.5q-45.5 20.5 -73 54t-35.5 70.5l108 42q9 -40 40 -64t79 -24q72 0 117 40t59 115l9 50h-5q-27 -39 -67.5 -58t-99.5 -19q-58 0 -105 28.5t-74 80.5t-27 118q0 80 35 150t99.5 112t149.5 42q54 0 95 -21t60 -57h6l11 62h105l-87 -491q-22 -127 -97 -189
t-197 -62q-60 0 -105.5 20.5zM360 121q41 26 64.5 70.5t23.5 96.5q0 62 -36.5 99.5t-90.5 37.5q-52 0 -92.5 -25.5t-63 -70t-22.5 -99.5q0 -64 35.5 -99.5t90.5 -35.5q50 0 91 26zM375 715q20 -5 31.5 -21.5t11.5 -37.5q0 -26 -18.5 -45t-46.5 -19t-46 19t-18 47q0 32 18 53
l81 98l40 -34z" />
    <glyph glyph-name="Hcircumflex" unicode="&#x124;" horiz-adv-x="719" 
d="M143 716h112l-54 -297h332l54 297h111l-127 -716h-111l55 313h-332l-55 -313h-112zM272 785l127 121h98l87 -121l-2 -7h-100l-37 60h-9l-54 -60h-112z" />
    <glyph glyph-name="hcircumflex" unicode="&#x125;" horiz-adv-x="583" 
d="M126 716h110l-35 -195l-19 -78h6q26 39 68 61t97 22q78 0 121 -42.5t43 -111.5q0 -38 -6 -67l-54 -305h-110l53 299q5 27 5 44q0 37 -26 59t-68 22q-59 0 -99.5 -42t-53.5 -113l-48 -269h-110zM207 779l128 121h98l86 -121l-1 -7h-100l-37 59h-10l-54 -59h-111z" />
    <glyph glyph-name="Hbar" unicode="&#x126;" horiz-adv-x="719" 
d="M41 500l15 84h63l24 132h112l-24 -132h332l24 132h111l-23 -132h63l-15 -84h-63l-89 -500h-111l55 313h-332l-55 -313h-112l88 500h-63zM548 500h-332l-15 -81h332z" />
    <glyph glyph-name="hbar" unicode="&#x127;" horiz-adv-x="581" 
d="M100 576h-61l14 81h61l11 59h110l-11 -59h140l-14 -81h-140l-10 -55l-19 -78h5q26 39 68.5 61t97.5 22q77 0 120.5 -42.5t43.5 -111.5q0 -31 -6 -67l-54 -305h-110l53 299q5 27 5 44q0 37 -26 59t-68 22q-59 0 -100 -42t-53 -113l-48 -269h-110z" />
    <glyph glyph-name="Itilde" unicode="&#x128;" horiz-adv-x="275" 
d="M143 716h112l-127 -716h-112zM250 781q-15 6 -36 18q-18 10 -30 15t-25 5q-27 0 -36 -32h-83q8 60 40 91t80 31q18 0 32.5 -5.5t38.5 -18.5q33 -20 53 -20q29 0 36 32h84q-8 -60 -40 -91t-81 -31q-18 0 -33 6z" />
    <glyph glyph-name="itilde" unicode="&#x129;" horiz-adv-x="255" 
d="M96 510h110l-89 -510h-110zM207 617.5q-16 6.5 -35 17.5q-19 10 -30 15t-24 5q-29 0 -36 -33h-84q8 61 40 92t80 31q19 0 35 -6t36 -18q19 -10 30 -15t24 -5q27 0 36 32h83q-8 -60 -40 -91t-80 -31q-19 0 -35 6.5z" />
    <glyph glyph-name="Imacron" unicode="&#x12a;" horiz-adv-x="275" 
d="M96 886h261l-15 -86h-261zM143 716h112l-127 -716h-112z" />
    <glyph glyph-name="imacron" unicode="&#x12b;" horiz-adv-x="255" 
d="M96 510h110l-89 -510h-110zM45 721h287l-15 -85h-287z" />
    <glyph glyph-name="Ibreve" unicode="&#x12c;" horiz-adv-x="275" 
d="M143 716h112l-127 -716h-112zM129.5 797.5q-33.5 30.5 -33.5 77.5q0 6 2 22h83q-1 -4 -1 -10q0 -17 11 -29t31 -12q22 0 37.5 14t20.5 37h82q-10 -64 -49.5 -97t-100.5 -33q-49 0 -82.5 30.5z" />
    <glyph glyph-name="ibreve" unicode="&#x12d;" horiz-adv-x="255" 
d="M96 510h110l-89 -510h-110zM87.5 633.5q-33.5 30.5 -33.5 77.5q0 6 2 22h82q-1 -4 -1 -10q0 -18 11 -30t31 -12q23 0 39 14t20 38h81q-10 -64 -49.5 -97t-99.5 -33q-49 0 -82.5 30.5z" />
    <glyph glyph-name="Iogonek" unicode="&#x12e;" horiz-adv-x="275" 
d="M-30 -197.5q-30 26.5 -30 67.5q0 76 81 128l-1 2h-4l127 716h112l-127 -716q-34 -19 -61 -48t-27 -57q0 -16 10 -25t25 -9q18 0 41 10l-14 -86q-13 -5 -24 -7t-29 -2q-49 0 -79 26.5z" />
    <glyph glyph-name="iogonek" unicode="&#x12f;" horiz-adv-x="255" 
d="M127 610q-21 21 -21 50q0 30 21 50.5t51 20.5q29 0 50 -20.5t21 -50.5q0 -29 -21 -50t-50 -21q-30 0 -51 21zM-40.5 -197.5q-29.5 26.5 -29.5 67.5q0 76 79 127l-2 3l89 510h110l-89 -510q-33 -19 -60.5 -48t-27.5 -57q0 -16 10 -25t25 -9q19 0 42 10l-15 -86
q-13 -5 -24 -7t-29 -2q-49 0 -78.5 26.5z" />
    <glyph glyph-name="Idotaccent" unicode="&#x130;" horiz-adv-x="275" 
d="M143 716h112l-127 -716h-112zM181.5 813.5q-18.5 18.5 -18.5 42.5q0 25 18.5 43t42.5 18q25 0 43 -17.5t18 -43.5q0 -24 -18 -42.5t-43 -18.5q-24 0 -42.5 18.5z" />
    <glyph glyph-name="dotlessi" unicode="&#x131;" horiz-adv-x="255" 
d="M96 510h110l-89 -510h-110z" />
    <glyph glyph-name="Jcircumflex" unicode="&#x134;" horiz-adv-x="552" 
d="M60.5 30.5q-57.5 46.5 -66.5 122.5l108 42q6 -53 36 -78.5t75 -25.5q52 0 88 36t47 93l87 496h112l-87 -492q-22 -121 -91 -180.5t-169 -59.5q-82 0 -139.5 46.5zM344 785l127 121h98l87 -121l-2 -7h-100l-37 60h-9l-54 -60h-112z" />
    <glyph glyph-name="jcircumflex" unicode="&#x135;" horiz-adv-x="256" 
d="M-130 -218l18 103q17 -10 46 -10t43 16t20 47l101 572h110l-101 -577q-16 -90 -60 -124.5t-117 -34.5q-32 0 -60 8zM12 615l128 121h98l86 -121l-1 -7h-100l-37 59h-10l-54 -59h-111z" />
    <glyph glyph-name="uni0136" unicode="&#x136;" horiz-adv-x="658" 
d="M143 716h112l-59 -337h5l346 337h143l-1 -6l-316 -303l212 -401l-1 -6h-131l-170 322l-118 -113l-37 -209h-112zM250 -171q-20 5 -31.5 21.5t-11.5 37.5q0 26 18.5 45t46.5 19t46 -19t18 -47q0 -32 -18 -53l-81 -98l-40 34z" />
    <glyph glyph-name="uni0137" unicode="&#x137;" horiz-adv-x="536" 
d="M127 716h110l-72 -411h4l236 205h146l-2 -6l-236 -199l152 -299l-2 -6h-127l-111 231l-86 -73l-28 -158h-110zM187 -171q-20 5 -31.5 21.5t-11.5 37.5q0 26 18.5 45t46.5 19t46 -19t18 -47q0 -32 -18 -53l-81 -98l-40 34z" />
    <glyph glyph-name="kgreenlandic" unicode="&#x138;" horiz-adv-x="520" 
d="M90 510h109l-39 -225h6l225 225h137l-1 -6l-248 -241l170 -257l-1 -6h-128l-160 251h-6l-45 -251h-109z" />
    <glyph glyph-name="Lacute" unicode="&#x139;" horiz-adv-x="531" 
d="M143 716h112l-108 -609h307l-20 -107h-418zM234 904h126l-104 -132h-93z" />
    <glyph glyph-name="lacute" unicode="&#x13a;" horiz-adv-x="239" 
d="M126 716h110l-126 -716h-110zM215 903h126l-103 -131h-94z" />
    <glyph glyph-name="uni013B" unicode="&#x13b;" horiz-adv-x="531" 
d="M143 716h112l-108 -609h307l-20 -107h-418zM207 -171q-20 5 -31.5 21.5t-11.5 37.5q0 26 18.5 45t46.5 19t46 -19t18 -47q0 -32 -18 -53l-81 -98l-40 34z" />
    <glyph glyph-name="uni013C" unicode="&#x13c;" horiz-adv-x="239" 
d="M126 716h110l-126 -716h-110zM15 -171q-20 5 -31.5 21.5t-11.5 37.5q0 26 18.5 45t46.5 19t46 -19t18 -47q0 -32 -18 -53l-81 -98l-40 34z" />
    <glyph glyph-name="Lcaron" unicode="&#x13d;" horiz-adv-x="531" 
d="M143 716h112l-108 -609h307l-20 -107h-418zM393 716h118l-71 -195h-81z" />
    <glyph glyph-name="lcaron" unicode="&#x13e;" horiz-adv-x="361" 
d="M126 716h110l-126 -716h-110zM321 716h118l-71 -195h-81z" />
    <glyph glyph-name="Ldot" unicode="&#x13f;" horiz-adv-x="531" 
d="M143 716h112l-108 -609h307l-20 -107h-418zM320.5 289.5q-22.5 22.5 -22.5 54.5t22.5 54.5t54.5 22.5t54.5 -22.5t22.5 -54.5t-22.5 -54.5t-54.5 -22.5t-54.5 22.5z" />
    <glyph glyph-name="Lslash" unicode="&#x141;" horiz-adv-x="593" 
d="M67 227l-42 78l127 71l60 340h112l-47 -265l127 72l43 -78l-190 -106l-41 -232h307l-19 -107h-419l47 262z" />
    <glyph glyph-name="lslash" unicode="&#x142;" horiz-adv-x="390" 
d="M122 289l-56 -36l-47 75l124 80l55 308h110l-41 -231l72 47l47 -76l-141 -91l-64 -365h-109z" />
    <glyph glyph-name="Nacute" unicode="&#x143;" horiz-adv-x="727" 
d="M143 716h125l235 -521h6l19 138l68 383h111l-127 -716h-109l-247 548h-6l-18 -138l-73 -410h-111zM448 904h126l-104 -132h-93z" />
    <glyph glyph-name="nacute" unicode="&#x144;" horiz-adv-x="583" 
d="M188 443q26 39 68 61t97 22q78 0 121 -42.5t43 -111.5q0 -31 -6 -67l-54 -305h-110l53 299q5 27 5 44q0 38 -25.5 59.5t-68.5 21.5q-58 0 -99.5 -41t-52.5 -107l-49 -276h-110l90 510h104l-12 -67h6zM372 739h126l-103 -131h-94z" />
    <glyph glyph-name="uni0145" unicode="&#x145;" horiz-adv-x="727" 
d="M143 716h125l235 -521h6l19 138l68 383h111l-127 -716h-109l-247 548h-6l-18 -138l-73 -410h-111zM269 -171q-20 5 -31.5 21.5t-11.5 37.5q0 26 18.5 45t46.5 19t46 -19t18 -47q0 -32 -18 -53l-81 -98l-40 34z" />
    <glyph glyph-name="uni0146" unicode="&#x146;" horiz-adv-x="583" 
d="M188 443q26 39 68 61t97 22q78 0 121 -42.5t43 -111.5q0 -31 -6 -67l-54 -305h-110l53 299q5 27 5 44q0 38 -25.5 59.5t-68.5 21.5q-58 0 -99.5 -41t-52.5 -107l-49 -276h-110l90 510h104l-12 -67h6zM193 -171q-20 5 -31.5 21.5t-11.5 37.5q0 26 18.5 45t46.5 19t46 -19
t18 -47q0 -32 -18 -53l-81 -98l-40 34z" />
    <glyph glyph-name="Ncaron" unicode="&#x147;" horiz-adv-x="727" 
d="M143 716h125l235 -521h6l19 138l68 383h111l-127 -716h-109l-247 548h-6l-18 -138l-73 -410h-111zM293 899l2 7h100l37 -59h10l54 59h111l-2 -7l-127 -121h-98z" />
    <glyph glyph-name="ncaron" unicode="&#x148;" horiz-adv-x="583" 
d="M188 443q26 39 68 61t97 22q78 0 121 -42.5t43 -111.5q0 -31 -6 -67l-54 -305h-110l53 299q5 27 5 44q0 38 -25.5 59.5t-68.5 21.5q-58 0 -99.5 -41t-52.5 -107l-49 -276h-110l90 510h104l-12 -67h6zM217 729l1 7h101l36 -60h10l54 60h111l-1 -7l-128 -121h-98z" />
    <glyph glyph-name="Eng" unicode="&#x14a;" horiz-adv-x="727" 
d="M333 -219l19 105q19 -11 43 -11q28 0 43 16.5t21 51.5l11 60l-246 545h-6l-18 -138l-73 -410h-111l127 716h126l235 -517h6l19 138l67 379h111l-137 -775q-16 -85 -65 -126t-118 -41q-33 0 -54 7z" />
    <glyph glyph-name="eng" unicode="&#x14b;" horiz-adv-x="583" 
d="M209 -218l18 103q17 -10 46 -10t43 16t20 47l64 361q5 27 5 44q0 38 -25.5 59.5t-68.5 21.5q-58 0 -99 -41t-53 -107l-49 -276h-110l90 510h104l-12 -67h6q26 39 68 61t97 22q78 0 121 -42.5t43 -111.5q0 -31 -6 -67l-65 -372q-15 -90 -59.5 -124.5t-117.5 -34.5
q-30 0 -60 8z" />
    <glyph glyph-name="Omacron" unicode="&#x14c;" horiz-adv-x="833" 
d="M201 25.5q-76 41.5 -119.5 116t-43.5 170.5q0 111 53.5 207.5t150 154.5t219.5 58q94 0 169.5 -42t118.5 -116.5t43 -169.5q0 -111 -53.5 -207.5t-150 -154.5t-218.5 -58q-93 0 -169 41.5zM530.5 134q68.5 43 108 114t39.5 151q0 67 -30 118.5t-82.5 79.5t-116.5 28
q-81 0 -149.5 -42.5t-108 -113.5t-39.5 -151q0 -68 30 -119.5t82 -79.5t116 -28q82 0 150.5 43zM349 886h288l-15 -86h-288z" />
    <glyph glyph-name="omacron" unicode="&#x14d;" horiz-adv-x="600" 
d="M128.5 16q-54.5 32 -84.5 87t-30 122q0 84 38 153t106.5 108.5t157.5 39.5q70 0 124.5 -32t84.5 -87t30 -122q0 -84 -38 -153t-106.5 -108.5t-157.5 -39.5q-70 0 -124.5 32zM355.5 110.5q40.5 25.5 64 69t23.5 95.5q0 65 -38 107t-101 42q-51 0 -91.5 -25t-64 -68.5
t-23.5 -95.5q0 -65 38.5 -107.5t101.5 -42.5q50 0 90.5 25.5zM211 721h287l-15 -85h-287z" />
    <glyph glyph-name="Obreve" unicode="&#x14e;" horiz-adv-x="833" 
d="M201 25.5q-76 41.5 -119.5 116t-43.5 170.5q0 111 53.5 207.5t150 154.5t219.5 58q94 0 169.5 -42t118.5 -116.5t43 -169.5q0 -111 -53.5 -207.5t-150 -154.5t-218.5 -58q-93 0 -169 41.5zM530.5 134q68.5 43 108 114t39.5 151q0 67 -30 118.5t-82.5 79.5t-116.5 28
q-81 0 -149.5 -42.5t-108 -113.5t-39.5 -151q0 -68 30 -119.5t82 -79.5t116 -28q82 0 150.5 43zM393.5 797.5q-33.5 30.5 -33.5 77.5q0 6 2 22h83q-1 -4 -1 -10q0 -17 11 -29t31 -12q22 0 37.5 14t20.5 37h82q-10 -64 -49.5 -97t-100.5 -33q-49 0 -82.5 30.5z" />
    <glyph glyph-name="obreve" unicode="&#x14f;" horiz-adv-x="600" 
d="M128.5 16q-54.5 32 -84.5 87t-30 122q0 84 38 153t106.5 108.5t157.5 39.5q70 0 124.5 -32t84.5 -87t30 -122q0 -84 -38 -153t-106.5 -108.5t-157.5 -39.5q-70 0 -124.5 32zM355.5 110.5q40.5 25.5 64 69t23.5 95.5q0 65 -38 107t-101 42q-51 0 -91.5 -25t-64 -68.5
t-23.5 -95.5q0 -65 38.5 -107.5t101.5 -42.5q50 0 90.5 25.5zM253.5 633.5q-33.5 30.5 -33.5 77.5q0 6 2 22h82q-1 -4 -1 -10q0 -18 11 -30t31 -12q23 0 39 14t20 38h81q-10 -64 -49.5 -97t-99.5 -33q-49 0 -82.5 30.5z" />
    <glyph glyph-name="Ohungarumlaut" unicode="&#x150;" horiz-adv-x="833" 
d="M201 25.5q-76 41.5 -119.5 116t-43.5 170.5q0 111 53.5 207.5t150 154.5t219.5 58q94 0 169.5 -42t118.5 -116.5t43 -169.5q0 -111 -53.5 -207.5t-150 -154.5t-218.5 -58q-93 0 -169 41.5zM530.5 134q68.5 43 108 114t39.5 151q0 67 -30 118.5t-82.5 79.5t-116.5 28
q-81 0 -149.5 -42.5t-108 -113.5t-39.5 -151q0 -68 30 -119.5t82 -79.5t116 -28q82 0 150.5 43zM407 904h126l-104 -132h-93zM587 904h126l-104 -132h-93z" />
    <glyph glyph-name="ohungarumlaut" unicode="&#x151;" horiz-adv-x="600" 
d="M128.5 16q-54.5 32 -84.5 87t-30 122q0 84 38 153t106.5 108.5t157.5 39.5q70 0 124.5 -32t84.5 -87t30 -122q0 -84 -38 -153t-106.5 -108.5t-157.5 -39.5q-70 0 -124.5 32zM355.5 110.5q40.5 25.5 64 69t23.5 95.5q0 65 -38 107t-101 42q-51 0 -91.5 -25t-64 -68.5
t-23.5 -95.5q0 -65 38.5 -107.5t101.5 -42.5q50 0 90.5 25.5zM268 740h126l-104 -132h-93zM449 740h126l-104 -132h-93z" />
    <glyph glyph-name="OE" unicode="&#x152;" horiz-adv-x="1164" 
d="M199 25.5q-75 41.5 -118 116.5t-43 170q0 111 54 207.5t150.5 154.5t217.5 58q81 0 146 -31t105 -87h3l19 102h435l-20 -107h-322l-36 -198h291l-18 -106h-291l-35 -198h323l-19 -107h-435l14 81h-3q-49 -46 -113 -71.5t-139 -25.5q-91 0 -166 41.5zM529 133.5
q68 42.5 107 112.5t39 149q0 69 -29.5 121.5t-81 80.5t-116.5 28q-82 0 -150 -42.5t-107 -113.5t-39 -152q0 -67 30 -118.5t82 -79.5t115 -28q82 0 150 42.5z" />
    <glyph glyph-name="oe" unicode="&#x153;" horiz-adv-x="1003" 
d="M128.5 16q-54.5 32 -84.5 87t-30 122q0 84 38 153t106.5 108.5t157.5 39.5q64 0 114.5 -28t80.5 -77q41 49 97.5 77t125.5 28q67 0 117 -29.5t76 -78.5t26 -107q0 -44 -11 -80h-391q-2 -12 -2 -22q1 -58 39.5 -92t92.5 -34q56 0 93.5 21t62.5 63l84 -46
q-82 -137 -247 -137q-64 0 -114 27t-79 74q-40 -48 -98.5 -74.5t-129.5 -26.5q-70 0 -124.5 32zM847 315v8q0 44 -34 76t-90 32q-57 0 -99 -33.5t-58 -82.5h281zM355.5 110.5q40.5 25.5 64 69t23.5 95.5q0 65 -38 107t-101 42q-51 0 -91.5 -25t-64 -68.5t-23.5 -95.5
q0 -65 38.5 -107.5t101.5 -42.5q50 0 90.5 25.5z" />
    <glyph glyph-name="Racute" unicode="&#x154;" horiz-adv-x="612" 
d="M143 716h236q61 0 109 -25t75 -69.5t27 -100.5q0 -88 -55.5 -150t-143.5 -80l-3 -5l145 -280l-2 -6h-124l-141 280h-88l-50 -280h-112zM333 384q62 0 102.5 34t40.5 96q0 42 -28.5 69.5t-78.5 27.5h-134l-39 -227h137zM375 904h126l-104 -132h-93z" />
    <glyph glyph-name="racute" unicode="&#x155;" horiz-adv-x="404" 
d="M90 510h104l-12 -69h5q22 39 66.5 61.5t96.5 22.5q38 0 60 -10l-21 -117q-14 9 -34 14t-40 5q-57 0 -102 -43t-56 -104l-47 -270h-110zM289 739h126l-103 -131h-94z" />
    <glyph glyph-name="uni0156" unicode="&#x156;" horiz-adv-x="612" 
d="M143 716h236q61 0 109 -25t75 -69.5t27 -100.5q0 -88 -55.5 -150t-143.5 -80l-3 -5l145 -280l-2 -6h-124l-141 280h-88l-50 -280h-112zM333 384q62 0 102.5 34t40.5 96q0 42 -28.5 69.5t-78.5 27.5h-134l-39 -227h137zM225 -171q-20 5 -31.5 21.5t-11.5 37.5
q0 26 18.5 45t46.5 19t46 -19t18 -47q0 -32 -18 -53l-81 -98l-40 34z" />
    <glyph glyph-name="uni0157" unicode="&#x157;" horiz-adv-x="404" 
d="M90 510h104l-12 -69h5q22 39 66.5 61.5t96.5 22.5q38 0 60 -10l-21 -117q-14 9 -34 14t-40 5q-57 0 -102 -43t-56 -104l-47 -270h-110zM15 -171q-20 5 -31.5 21.5t-11.5 37.5q0 26 18.5 45t46.5 19t46 -19t18 -47q0 -32 -18 -53l-81 -98l-40 34z" />
    <glyph glyph-name="Rcaron" unicode="&#x158;" horiz-adv-x="612" 
d="M143 716h236q61 0 109 -25t75 -69.5t27 -100.5q0 -88 -55.5 -150t-143.5 -80l-3 -5l145 -280l-2 -6h-124l-141 280h-88l-50 -280h-112zM333 384q62 0 102.5 34t40.5 96q0 42 -28.5 69.5t-78.5 27.5h-134l-39 -227h137zM220 899l2 7h100l37 -59h10l54 59h111l-2 -7
l-127 -121h-98z" />
    <glyph glyph-name="rcaron" unicode="&#x159;" horiz-adv-x="404" 
d="M90 510h104l-12 -69h5q22 39 66.5 61.5t96.5 22.5q38 0 60 -10l-21 -117q-14 9 -34 14t-40 5q-57 0 -102 -43t-56 -104l-47 -270h-110zM134 729l1 7h101l36 -60h10l54 60h111l-1 -7l-128 -121h-98z" />
    <glyph glyph-name="Sacute" unicode="&#x15a;" horiz-adv-x="578" 
d="M81 36q-64 52 -79 146l108 43q5 -59 41 -96.5t97 -37.5q58 0 100 32t42 84q0 40 -28 67t-94 52l-39 15q-63 23 -104 68t-41 115q0 59 33 106.5t90 74.5t125 27q67 0 112.5 -23.5t69.5 -58t30 -68.5l-105 -40q-6 35 -35 60t-83 25q-51 0 -87 -26t-36 -70q0 -36 25.5 -59.5
t79.5 -43.5l42 -16q159 -59 159 -191q0 -70 -34.5 -124t-95.5 -83.5t-139 -29.5q-90 0 -154 52zM367 904h126l-104 -132h-93z" />
    <glyph glyph-name="sacute" unicode="&#x15b;" horiz-adv-x="483" 
d="M60.5 23q-55.5 39 -72.5 101l103 42q9 -41 42.5 -62.5t76.5 -21.5q40 0 66.5 18t26.5 46q0 27 -18.5 44t-57.5 26l-52 13q-59 16 -96 51t-37 88q0 46 26.5 82t74.5 56t109 20q71 0 122 -31.5t71 -85.5l-102 -39q-11 29 -37.5 45.5t-62.5 16.5q-41 0 -65 -16t-24 -41
q0 -18 17 -33.5t46 -23.5l70 -17q61 -15 95 -53t34 -91q0 -78 -57.5 -125.5t-158.5 -47.5q-84 0 -139.5 39zM295 739h126l-103 -131h-94z" />
    <glyph glyph-name="Scircumflex" unicode="&#x15c;" horiz-adv-x="578" 
d="M81 36q-64 52 -79 146l108 43q5 -59 41 -96.5t97 -37.5q58 0 100 32t42 84q0 40 -28 67t-94 52l-39 15q-63 23 -104 68t-41 115q0 59 33 106.5t90 74.5t125 27q67 0 112.5 -23.5t69.5 -58t30 -68.5l-105 -40q-6 35 -35 60t-83 25q-51 0 -87 -26t-36 -70q0 -36 25.5 -59.5
t79.5 -43.5l42 -16q159 -59 159 -191q0 -70 -34.5 -124t-95.5 -83.5t-139 -29.5q-90 0 -154 52zM185 785l127 121h98l87 -121l-2 -7h-100l-37 60h-9l-54 -60h-112z" />
    <glyph glyph-name="scircumflex" unicode="&#x15d;" horiz-adv-x="483" 
d="M60.5 23q-55.5 39 -72.5 101l103 42q9 -41 42.5 -62.5t76.5 -21.5q40 0 66.5 18t26.5 46q0 27 -18.5 44t-57.5 26l-52 13q-59 16 -96 51t-37 88q0 46 26.5 82t74.5 56t109 20q71 0 122 -31.5t71 -85.5l-102 -39q-11 29 -37.5 45.5t-62.5 16.5q-41 0 -65 -16t-24 -41
q0 -18 17 -33.5t46 -23.5l70 -17q61 -15 95 -53t34 -91q0 -78 -57.5 -125.5t-158.5 -47.5q-84 0 -139.5 39zM113 615l128 121h98l86 -121l-1 -7h-100l-37 59h-10l-54 -59h-111z" />
    <glyph glyph-name="Scedilla" unicode="&#x15e;" horiz-adv-x="578" 
d="M504 221q0 -70 -34.5 -124t-95.5 -83.5t-139 -29.5h-1l-19 -32q12 2 19 2q35 0 56.5 -24t21.5 -63q0 -46 -31.5 -75t-81.5 -29q-34 0 -61 19.5t-33 46.5l61 25q2 -13 12.5 -22t24.5 -9q17 0 29 11.5t12 30.5q0 14 -9 23.5t-24 9.5q-16 0 -31 -15l-49 24l46 83
q-69 15 -116 64.5t-59 127.5l108 43q5 -59 41 -96.5t97 -37.5q58 0 100 32t42 84q0 40 -28 67t-94 52l-39 15q-63 23 -104 68t-41 115q0 59 33 106.5t90 74.5t125 27q67 0 112.5 -23.5t69.5 -58t30 -68.5l-105 -40q-6 35 -35 60t-83 25q-51 0 -87 -26t-36 -70
q0 -36 25.5 -59.5t79.5 -43.5l42 -16q159 -59 159 -191z" />
    <glyph glyph-name="scedilla" unicode="&#x15f;" horiz-adv-x="483" 
d="M382 248q34 -38 34 -91q0 -78 -57 -125.5t-158 -47.5l-19 -32q12 2 19 2q35 0 56.5 -24t21.5 -63q0 -46 -31.5 -75t-81.5 -29q-34 0 -61 19.5t-33 46.5l61 25q2 -13 12.5 -22t24.5 -9q17 0 29 11.5t12 30.5q0 14 -9 23.5t-24 9.5q-16 0 -31 -15l-49 24l46 82
q-61 12 -101.5 48.5t-54.5 86.5l103 42q9 -41 42.5 -62.5t76.5 -21.5q40 0 66.5 18t26.5 46q0 27 -18.5 44t-57.5 26l-52 13q-59 16 -96 51t-37 88q0 46 26.5 82t74.5 56t109 20q71 0 122 -31.5t71 -85.5l-102 -39q-11 29 -37.5 45.5t-62.5 16.5q-41 0 -65 -16t-24 -41
q0 -18 17 -33.5t46 -23.5l70 -17q61 -15 95 -53z" />
    <glyph glyph-name="Scaron" unicode="&#x160;" horiz-adv-x="578" 
d="M81 36q-64 52 -79 146l108 43q5 -59 41 -96.5t97 -37.5q58 0 100 32t42 84q0 40 -28 67t-94 52l-39 15q-63 23 -104 68t-41 115q0 59 33 106.5t90 74.5t125 27q67 0 112.5 -23.5t69.5 -58t30 -68.5l-105 -40q-6 35 -35 60t-83 25q-51 0 -87 -26t-36 -70q0 -36 25.5 -59.5
t79.5 -43.5l42 -16q159 -59 159 -191q0 -70 -34.5 -124t-95.5 -83.5t-139 -29.5q-90 0 -154 52zM212 899l2 7h100l37 -59h10l54 59h111l-2 -7l-127 -121h-98z" />
    <glyph glyph-name="scaron" unicode="&#x161;" horiz-adv-x="483" 
d="M60.5 23q-55.5 39 -72.5 101l103 42q9 -41 42.5 -62.5t76.5 -21.5q40 0 66.5 18t26.5 46q0 27 -18.5 44t-57.5 26l-52 13q-59 16 -96 51t-37 88q0 46 26.5 82t74.5 56t109 20q71 0 122 -31.5t71 -85.5l-102 -39q-11 29 -37.5 45.5t-62.5 16.5q-41 0 -65 -16t-24 -41
q0 -18 17 -33.5t46 -23.5l70 -17q61 -15 95 -53t34 -91q0 -78 -57.5 -125.5t-158.5 -47.5q-84 0 -139.5 39zM140 729l1 7h101l36 -60h10l54 60h111l-1 -7l-128 -121h-98z" />
    <glyph glyph-name="uni0162" unicode="&#x162;" horiz-adv-x="565" 
d="M142 -217.5q-27 19.5 -33 46.5l61 25q2 -13 12 -22t25 -9q17 0 29 11.5t12 30.5q0 14 -9 23.5t-24 9.5q-16 0 -31 -15l-49 24l51 93h-25l108 609h-200l19 107h512l-20 -107h-200l-107 -609h-25l-29 -48q12 2 19 2q34 0 55.5 -24.5t21.5 -62.5q0 -46 -31.5 -75t-81.5 -29
q-33 0 -60 19.5z" />
    <glyph glyph-name="uni0163" unicode="&#x163;" horiz-adv-x="392" 
d="M85 -217.5q-27 19.5 -34 46.5l62 25q2 -13 12 -22t24 -9q17 0 29.5 11.5t12.5 30.5q0 14 -9.5 23.5t-24.5 9.5q-17 0 -30 -15l-49 24l56 103q-27 15 -42 42.5t-15 64.5q0 26 5 51l43 245h-89l17 97h89l26 144h110l-26 -144h125l-18 -97h-124l-42 -235q-3 -22 -3 -33
q0 -22 13.5 -36t36.5 -14q29 0 51 15l17 -98q-37 -20 -97 -20q-10 0 -24 2l-25 -42q10 2 19 2q34 0 55.5 -24.5t21.5 -62.5q0 -46 -31.5 -75t-81.5 -29q-33 0 -60 19.5z" />
    <glyph glyph-name="Tcaron" unicode="&#x164;" horiz-adv-x="565" 
d="M269 609h-200l19 107h512l-20 -107h-200l-107 -609h-112zM212 899l2 7h100l37 -59h10l54 59h111l-2 -7l-127 -121h-98z" />
    <glyph glyph-name="tcaron" unicode="&#x165;" horiz-adv-x="386" 
d="M348 716h104l-52 -147h-79zM113 25q-36 33 -36 92q0 26 5 51l43 245h-89l18 97h88l26 144h110l-26 -144h125l-18 -97h-124l-42 -235q-3 -22 -3 -33q0 -23 14 -36.5t39 -13.5q35 0 65 19l-18 -107q-36 -15 -81 -15q-60 0 -96 33z" />
    <glyph glyph-name="Tbar" unicode="&#x166;" horiz-adv-x="565" 
d="M218 330h-126l16 88h126l35 191h-200l19 107h512l-20 -107h-200l-34 -191h128l-16 -88h-128l-57 -330h-112z" />
    <glyph glyph-name="tbar" unicode="&#x167;" horiz-adv-x="391" 
d="M113 25q-36 33 -36 92q0 26 5 51l10 59h-85l16 91h86l16 95h-89l18 97h88l26 144h110l-26 -144h125l-18 -97h-124l-16 -95h113l-16 -91h-114l-9 -49q-3 -22 -3 -33q0 -23 14 -36.5t39 -13.5q35 0 65 19l-18 -107q-36 -15 -81 -15q-60 0 -96 33z" />
    <glyph glyph-name="Utilde" unicode="&#x168;" horiz-adv-x="680" 
d="M162.5 12q-52.5 28 -83 79t-30.5 118q0 40 9 91l73 416h112l-77 -439q-6 -29 -6 -54q0 -61 34 -96.5t101 -35.5q75 0 124.5 49t63.5 129l79 447h112l-81 -457q-24 -134 -104.5 -204.5t-209.5 -70.5q-64 0 -116.5 28zM447 781q-15 6 -36 18q-18 10 -30 15t-25 5
q-27 0 -36 -32h-83q8 60 40 91t80 31q18 0 32.5 -5.5t38.5 -18.5q33 -20 53 -20q29 0 36 32h84q-8 -60 -40 -91t-81 -31q-18 0 -33 6z" />
    <glyph glyph-name="utilde" unicode="&#x169;" horiz-adv-x="583" 
d="M356 66q-26 -38 -68.5 -60t-97.5 -22q-77 0 -120.5 42.5t-43.5 110.5q0 33 7 68l54 305h110l-53 -300q-5 -25 -5 -43q0 -38 26 -60t68 -22q58 0 99 41t53 107l49 277h110l-90 -510h-104l12 66h-6zM371 617.5q-16 6.5 -35 17.5q-19 10 -30 15t-24 5q-29 0 -36 -33h-84
q8 61 40 92t80 31q19 0 35 -6t36 -18q19 -10 30 -15t24 -5q27 0 36 32h83q-8 -60 -40 -91t-80 -31q-19 0 -35 6.5z" />
    <glyph glyph-name="Umacron" unicode="&#x16a;" horiz-adv-x="680" 
d="M162.5 12q-52.5 28 -83 79t-30.5 118q0 40 9 91l73 416h112l-77 -439q-6 -29 -6 -54q0 -61 34 -96.5t101 -35.5q75 0 124.5 49t63.5 129l79 447h112l-81 -457q-24 -134 -104.5 -204.5t-209.5 -70.5q-64 0 -116.5 28zM282 886h288l-15 -86h-288z" />
    <glyph glyph-name="umacron" unicode="&#x16b;" horiz-adv-x="583" 
d="M356 66q-26 -38 -68.5 -60t-97.5 -22q-77 0 -120.5 42.5t-43.5 110.5q0 33 7 68l54 305h110l-53 -300q-5 -25 -5 -43q0 -38 26 -60t68 -22q58 0 99 41t53 107l49 277h110l-90 -510h-104l12 66h-6zM209 721h287l-15 -85h-287z" />
    <glyph glyph-name="Ubreve" unicode="&#x16c;" horiz-adv-x="680" 
d="M162.5 12q-52.5 28 -83 79t-30.5 118q0 40 9 91l73 416h112l-77 -439q-6 -29 -6 -54q0 -61 34 -96.5t101 -35.5q75 0 124.5 49t63.5 129l79 447h112l-81 -457q-24 -134 -104.5 -204.5t-209.5 -70.5q-64 0 -116.5 28zM326.5 797.5q-33.5 30.5 -33.5 77.5q0 6 2 22h83
q-1 -4 -1 -10q0 -17 11 -29t31 -12q22 0 37.5 14t20.5 37h82q-10 -64 -49.5 -97t-100.5 -33q-49 0 -82.5 30.5z" />
    <glyph glyph-name="ubreve" unicode="&#x16d;" horiz-adv-x="583" 
d="M356 66q-26 -38 -68.5 -60t-97.5 -22q-77 0 -120.5 42.5t-43.5 110.5q0 33 7 68l54 305h110l-53 -300q-5 -25 -5 -43q0 -38 26 -60t68 -22q58 0 99 41t53 107l49 277h110l-90 -510h-104l12 66h-6zM251.5 633.5q-33.5 30.5 -33.5 77.5q0 6 2 22h82q-1 -4 -1 -10
q0 -18 11 -30t31 -12q23 0 39 14t20 38h81q-10 -64 -49.5 -97t-99.5 -33q-49 0 -82.5 30.5z" />
    <glyph glyph-name="Uring" unicode="&#x16e;" horiz-adv-x="680" 
d="M162.5 12q-52.5 28 -83 79t-30.5 118q0 40 9 91l73 416h112l-77 -439q-6 -29 -6 -54q0 -61 34 -96.5t101 -35.5q75 0 124.5 49t63.5 129l79 447h112l-81 -457q-24 -134 -104.5 -204.5t-209.5 -70.5q-64 0 -116.5 28zM346 781q-31 31 -31 75t31 75t75 31t74.5 -31
t30.5 -75t-31 -75t-74 -31q-44 0 -75 31zM448.5 828q11.5 12 11.5 28t-11.5 28t-27.5 12q-17 0 -28.5 -11.5t-11.5 -28.5q0 -16 11.5 -28t28.5 -12q16 0 27.5 12z" />
    <glyph glyph-name="uring" unicode="&#x16f;" horiz-adv-x="583" 
d="M356 66q-26 -38 -68.5 -60t-97.5 -22q-77 0 -120.5 42.5t-43.5 110.5q0 33 7 68l54 305h110l-53 -300q-5 -25 -5 -43q0 -38 26 -60t68 -22q58 0 99 41t53 107l49 277h110l-90 -510h-104l12 66h-6zM272 617q-31 31 -31 75t31 74.5t75 30.5t75 -30.5t31 -74.5t-31 -75
t-75 -31t-75 31zM375 663q12 12 12 29q0 16 -12 27.5t-28 11.5t-28 -11.5t-12 -27.5t12 -28.5t28 -12.5t28 12z" />
    <glyph glyph-name="Uhungarumlaut" unicode="&#x170;" horiz-adv-x="680" 
d="M162.5 12q-52.5 28 -83 79t-30.5 118q0 40 9 91l73 416h112l-77 -439q-6 -29 -6 -54q0 -61 34 -96.5t101 -35.5q75 0 124.5 49t63.5 129l79 447h112l-81 -457q-24 -134 -104.5 -204.5t-209.5 -70.5q-64 0 -116.5 28zM340 904h126l-104 -132h-93zM520 904h126l-104 -132
h-93z" />
    <glyph glyph-name="uhungarumlaut" unicode="&#x171;" horiz-adv-x="583" 
d="M356 66q-26 -38 -68.5 -60t-97.5 -22q-77 0 -120.5 42.5t-43.5 110.5q0 33 7 68l54 305h110l-53 -300q-5 -25 -5 -43q0 -38 26 -60t68 -22q58 0 99 41t53 107l49 277h110l-90 -510h-104l12 66h-6zM266 740h126l-104 -132h-93zM447 740h126l-104 -132h-93z" />
    <glyph glyph-name="Uogonek" unicode="&#x172;" horiz-adv-x="680" 
d="M232 -197.5q-30 26.5 -30 67.5q0 66 62 115q-61 3 -110 31.5t-77 78.5t-28 114q0 40 9 91l73 416h112l-77 -439q-6 -30 -6 -54q0 -61 34 -96.5t101 -35.5q75 0 124.5 49t63.5 129l79 447h112l-81 -457q-17 -99 -65.5 -162.5t-116.5 -87.5q-51 -19 -80 -50t-29 -64
q0 -16 10 -25t25 -9q18 0 41 10l-14 -86q-14 -5 -24.5 -7t-28.5 -2q-49 0 -79 26.5z" />
    <glyph glyph-name="uogonek" unicode="&#x173;" horiz-adv-x="583" 
d="M296.5 -197.5q-29.5 26.5 -29.5 67.5q0 77 84 127l-1 3l12 66h-6q-26 -38 -68.5 -60t-97.5 -22q-77 0 -120.5 42.5t-43.5 110.5q0 33 7 68l54 305h110l-53 -300q-5 -25 -5 -43q0 -38 26 -60t68 -22q58 0 99 41t53 107l49 277h110l-90 -510q-33 -19 -60.5 -48t-27.5 -57
q0 -16 10 -25t26 -9q18 0 41 10l-15 -86q-13 -5 -24 -7t-29 -2q-49 0 -78.5 26.5z" />
    <glyph glyph-name="Wcircumflex" unicode="&#x174;" horiz-adv-x="965" 
d="M79 716h123l30 -461l2 -62h6l26 62l222 461h114l55 -461l4 -61h6l23 61l193 461h126l-312 -716h-119l-56 472l-5 64h-6l-27 -64l-224 -472h-116zM396 785l127 121h98l87 -121l-2 -7h-100l-37 60h-9l-54 -60h-112z" />
    <glyph glyph-name="wcircumflex" unicode="&#x175;" horiz-adv-x="807" 
d="M32 510h116l39 -365h4l178 365h117l51 -365h4l164 365h120l-250 -510h-120l-50 366h-3l-181 -366h-115zM281 615l128 121h98l86 -121l-1 -7h-100l-37 59h-10l-54 -59h-111z" />
    <glyph glyph-name="Ycircumflex" unicode="&#x176;" horiz-adv-x="619" 
d="M249 333l-173 383h129l114 -266h6l204 266h137l-305 -383l-59 -333h-112zM211 785l127 121h98l87 -121l-2 -7h-100l-37 60h-9l-54 -60h-112z" />
    <glyph glyph-name="ycircumflex" unicode="&#x177;" horiz-adv-x="549" 
d="M172 30l-126 480h120l84 -347h4l202 347h124l-444 -726h-119zM163 615l128 121h98l86 -121l-1 -7h-100l-37 59h-10l-54 -59h-111z" />
    <glyph glyph-name="Ydieresis" unicode="&#x178;" horiz-adv-x="619" 
d="M249 333l-173 383h129l114 -266h6l204 266h137l-305 -383l-59 -333h-112zM246 798q-19 19 -19 45q0 27 19 45.5t45 18.5q27 0 45.5 -18.5t18.5 -45.5q0 -26 -18.5 -45t-45.5 -19q-26 0 -45 19zM425 798q-19 19 -19 45q0 27 18.5 45.5t44.5 18.5q28 0 46 -18.5t18 -45.5
q0 -26 -18.5 -45t-45.5 -19q-25 0 -44 19z" />
    <glyph glyph-name="Zacute" unicode="&#x179;" horiz-adv-x="592" 
d="M-6 115l456 494h-353l19 107h487l-21 -115l-454 -494h371l-19 -107h-506zM381 904h126l-104 -132h-93z" />
    <glyph glyph-name="zacute" unicode="&#x17a;" horiz-adv-x="495" 
d="M323 413h-270l17 97h409l-16 -93l-336 -321h282l-17 -96h-419l15 92zM305 739h126l-103 -131h-94z" />
    <glyph glyph-name="Zdotaccent" unicode="&#x17b;" horiz-adv-x="592" 
d="M-6 115l456 494h-353l19 107h487l-21 -115l-454 -494h371l-19 -107h-506zM328.5 813.5q-18.5 18.5 -18.5 42.5q0 25 18.5 43t42.5 18q25 0 43 -17.5t18 -43.5q0 -24 -18 -42.5t-43 -18.5q-24 0 -42.5 18.5z" />
    <glyph glyph-name="zdotaccent" unicode="&#x17c;" horiz-adv-x="495" 
d="M323 413h-270l17 97h409l-16 -93l-336 -321h282l-17 -96h-419l15 92zM247 629q-20 20 -20 46q0 27 19.5 46.5t46.5 19.5q28 0 47 -19t19 -47q0 -27 -19.5 -46.5t-46.5 -19.5q-26 0 -46 20z" />
    <glyph glyph-name="Zcaron" unicode="&#x17d;" horiz-adv-x="592" 
d="M-6 115l456 494h-353l19 107h487l-21 -115l-454 -494h371l-19 -107h-506zM226 899l2 7h100l37 -59h10l54 59h111l-2 -7l-127 -121h-98z" />
    <glyph glyph-name="zcaron" unicode="&#x17e;" horiz-adv-x="495" 
d="M323 413h-270l17 97h409l-16 -93l-336 -321h282l-17 -96h-419l15 92zM150 729l1 7h101l36 -60h10l54 60h111l-1 -7l-128 -121h-98z" />
    <glyph glyph-name="florin" unicode="&#x192;" horiz-adv-x="587" 
d="M448 601q-22 -17 -29 -49l-28 -139h121v-98h-140l-77 -388q-13 -65 -57 -106t-113 -41q-21 0 -36 2.5t-33 8.5v106q31 -15 63 -15q28 0 47.5 18t25.5 51l72 364h-98v98h118l29 148q14 73 63.5 116t123.5 43q22 0 35 -2t27 -7v-108q-27 15 -61 15q-31 0 -53 -17z" />
    <glyph glyph-name="Aringacute" unicode="&#x1fa;" horiz-adv-x="696" 
d="M324 681q-29 32 -29 75q0 46 30.5 79t76.5 36l42 71h103l-67 -93q22 -15 35 -40t13 -53q0 -27 -12.5 -51t-33.5 -41l133 -664h-120l-33 183h-287l-98 -183h-127zM439.5 728q11.5 12 11.5 28q0 17 -11.5 28.5t-28.5 11.5q-16 0 -28 -11.5t-12 -28.5q0 -16 12 -28t28 -12
q17 0 28.5 12zM443 287l-40 213l-13 83h-5l-43 -83l-113 -213h214z" />
    <glyph glyph-name="aringacute" unicode="&#x1fb;" horiz-adv-x="543" 
d="M346 927h119l-84 -110h-90zM248 614q-31 31 -31 75t31 75t75 31t74.5 -31t30.5 -75t-31 -75t-74 -31q-44 0 -75 31zM350.5 661q11.5 12 11.5 28t-11.5 28t-27.5 12t-28 -11.5t-12 -28.5q0 -16 12 -28t28 -12t27.5 12zM101 4.5q-38 20.5 -60.5 56.5t-22.5 81q0 85 61 135
t171 50q37 0 73 -8t65 -21l5 25q3 15 3 24q0 38 -32.5 61.5t-79.5 23.5q-78 0 -128 -60l-79 57q38 47 95 72t124 25q96 0 151 -46t55 -122q0 -21 -5 -53l-54 -305h-108l11 61h-6q-25 -36 -64 -56.5t-91 -20.5q-46 0 -84 20.5zM320 114q43 39 53 100q-28 15 -55.5 22t-68.5 7
q-54 0 -86 -24.5t-32 -68.5q0 -34 24.5 -54.5t61.5 -20.5q60 0 103 39z" />
    <glyph glyph-name="AEacute" unicode="&#x1fc;" horiz-adv-x="988" 
d="M488 716h504l-19 -107h-323l-35 -198h291l-18 -106h-291l-35 -198h323l-20 -107h-434l32 184h-246l-139 -184h-138zM482 290l57 319h-7l-41 -59l-197 -260h188zM775 904h126l-104 -132h-93z" />
    <glyph glyph-name="aeacute" unicode="&#x1fd;" horiz-adv-x="938" 
d="M101 4.5q-38 20.5 -60.5 56.5t-22.5 81q0 91 65.5 138t173.5 47q42 0 77 -8.5t55 -18.5l5 26q2 12 2 19q0 40 -30 63.5t-79 23.5q-40 0 -72 -15t-50 -44l-85 48q33 52 88 78.5t129 26.5q62 0 108 -23.5t68 -62.5q37 42 87.5 64t110.5 22q67 0 116 -29.5t75 -79t26 -106.5
q0 -44 -11 -80h-391q-2 -12 -2 -22q1 -58 39.5 -92t92.5 -34q56 0 93.5 21t62.5 63l84 -46q-82 -137 -247 -137q-69 0 -119.5 32.5t-76.5 82.5q-85 -115 -228 -115q-46 0 -84 20.5zM782 315v8q0 44 -34 76t-90 32q-57 0 -99 -33.5t-58 -82.5h281zM320 114q43 39 53 100
q-55 29 -124 29q-54 0 -86 -24.5t-32 -68.5q0 -34 24.5 -54.5t61.5 -20.5q60 0 103 39zM521 739h126l-103 -131h-94z" />
    <glyph glyph-name="Oslashacute" unicode="&#x1fe;" horiz-adv-x="833" 
d="M77 10l53 67q-44 44 -68 104t-24 131q0 111 53.5 207.5t150 154.5t219.5 58q88 0 163 -39l55 69l72 -57l-53 -66q45 -44 69.5 -104t24.5 -131q0 -111 -53.5 -207.5t-150 -154.5t-218.5 -58q-89 0 -164 39l-55 -69zM552 603q-49 22 -103 22q-81 0 -149.5 -42.5
t-108 -113.5t-39.5 -151q0 -90 52 -150zM530.5 134q68.5 43 108 114t39.5 151q0 89 -52 149l-348 -436q48 -21 102 -21q82 0 150.5 43zM498 904h126l-104 -132h-93z" />
    <glyph glyph-name="oslashacute" unicode="&#x1ff;" horiz-adv-x="600" 
d="M45 11l34 43q-31 33 -48 77t-17 94q0 84 38 153t106.5 108.5t157.5 39.5q63 0 112 -26l39 50l65 -52l-38 -48q29 -32 45 -74.5t16 -90.5q0 -84 -38 -153t-106.5 -108.5t-157.5 -39.5q-58 0 -106 23l-35 -46zM362 415q-25 13 -58 13q-50 0 -91.5 -26t-65 -70.5
t-23.5 -96.5t25 -91zM356.5 107q41.5 26 65 70.5t23.5 97.5q0 50 -22 84l-209 -268q21 -10 51 -10q50 0 91.5 26zM358 739h126l-103 -131h-94z" />
    <glyph glyph-name="uni0218" unicode="&#x218;" horiz-adv-x="578" 
d="M81 36q-64 52 -79 146l108 43q5 -59 41 -96.5t97 -37.5q58 0 100 32t42 84q0 40 -28 67t-94 52l-39 15q-63 23 -104 68t-41 115q0 59 33 106.5t90 74.5t125 27q67 0 112.5 -23.5t69.5 -58t30 -68.5l-105 -40q-6 35 -35 60t-83 25q-51 0 -87 -26t-36 -70q0 -36 25.5 -59.5
t79.5 -43.5l42 -16q159 -59 159 -191q0 -70 -34.5 -124t-95.5 -83.5t-139 -29.5q-90 0 -154 52zM173 -171q-20 5 -31.5 21.5t-11.5 37.5q0 26 18.5 45t46.5 19t46 -19t18 -47q0 -32 -18 -53l-81 -98l-40 34z" />
    <glyph glyph-name="uni0219" unicode="&#x219;" horiz-adv-x="483" 
d="M60.5 23q-55.5 39 -72.5 101l103 42q9 -41 42.5 -62.5t76.5 -21.5q40 0 66.5 18t26.5 46q0 27 -18.5 44t-57.5 26l-52 13q-59 16 -96 51t-37 88q0 46 26.5 82t74.5 56t109 20q71 0 122 -31.5t71 -85.5l-102 -39q-11 29 -37.5 45.5t-62.5 16.5q-41 0 -65 -16t-24 -41
q0 -18 17 -33.5t46 -23.5l70 -17q61 -15 95 -53t34 -91q0 -78 -57.5 -125.5t-158.5 -47.5q-84 0 -139.5 39zM140 -171q-20 5 -31.5 21.5t-11.5 37.5q0 26 18.5 45t46.5 19t46 -19t18 -47q0 -32 -18 -53l-81 -98l-40 34z" />
    <glyph glyph-name="uni021A" unicode="&#x21a;" horiz-adv-x="565" 
d="M269 609h-200l19 107h512l-20 -107h-200l-107 -609h-112zM174 -171q-20 5 -31.5 21.5t-11.5 37.5q0 26 18.5 45t46.5 19t46 -19t18 -47q0 -32 -18 -53l-81 -98l-40 34z" />
    <glyph glyph-name="uni021B" unicode="&#x21b;" horiz-adv-x="392" 
d="M113 25q-36 33 -36 92q0 26 5 51l43 245h-89l18 97h88l26 144h110l-26 -144h125l-18 -97h-124l-42 -235q-3 -22 -3 -33q0 -23 14 -36.5t39 -13.5q35 0 65 19l-18 -107q-36 -15 -81 -15q-60 0 -96 33zM148 -171q-20 5 -31.5 21.5t-11.5 37.5q0 26 18.5 45t46.5 19t46 -19
t18 -47q0 -32 -18 -53l-81 -98l-40 34z" />
    <glyph glyph-name="uni0237" unicode="&#x237;" horiz-adv-x="256" 
d="M-130 -218l18 103q17 -10 46 -10t43 16t20 47l101 572h110l-101 -577q-16 -90 -60 -124.5t-117 -34.5q-32 0 -60 8z" />
    <glyph glyph-name="uni0259" unicode="&#x259;" horiz-adv-x="560" 
d="M112 13.5q-50 29.5 -76 78.5t-26 107q0 44 11 80h392q1 5 1 21q-1 58 -39.5 92.5t-92.5 34.5q-55 0 -92.5 -21t-62.5 -63l-84 45q81 138 247 138q70 0 123.5 -32.5t82 -86.5t28.5 -119q0 -80 -37 -150t-104 -112t-153 -42q-68 0 -118 29.5zM339.5 112.5
q41.5 33.5 58.5 82.5h-281v-8q0 -45 34 -76.5t90 -31.5q57 0 98.5 33.5z" />
    <glyph glyph-name="circumflex" unicode="&#x2c6;" horiz-adv-x="426" 
d="M98 595l127 121h98l87 -121l-2 -7h-100l-37 60h-9l-54 -60h-112z" />
    <glyph glyph-name="caron" unicode="&#x2c7;" horiz-adv-x="426" 
d="M118 709l2 7h100l37 -59h10l54 59h111l-2 -7l-127 -121h-98z" />
    <glyph glyph-name="breve" unicode="&#x2d8;" horiz-adv-x="407" 
d="M165.5 613.5q-33.5 30.5 -33.5 77.5q0 6 2 22h83q-1 -4 -1 -10q0 -17 11 -29t31 -12q22 0 37.5 14t20.5 37h82q-10 -64 -49.5 -97t-100.5 -33q-49 0 -82.5 30.5z" />
    <glyph glyph-name="dotaccent" unicode="&#x2d9;" horiz-adv-x="249" 
d="M130.5 609.5q-19.5 19.5 -19.5 45.5q0 28 19 47t46 19q29 0 47.5 -18.5t18.5 -47.5q0 -27 -19 -46t-47 -19q-26 0 -45.5 19.5z" />
    <glyph glyph-name="ring" unicode="&#x2da;" horiz-adv-x="404" 
d="M177 597q-31 31 -31 75t31 75t75 31t74.5 -31t30.5 -75t-31 -75t-74 -31q-44 0 -75 31zM279.5 644q11.5 12 11.5 28t-11.5 28t-27.5 12t-28 -11.5t-12 -28.5q0 -16 12 -28t28 -12t27.5 12z" />
    <glyph glyph-name="ogonek" unicode="&#x2db;" horiz-adv-x="412" 
d="M52.5 -197.5q-29.5 26.5 -29.5 67.5q0 40 22 73t61 57h104q-33 -19 -60.5 -48t-27.5 -57q0 -16 10 -25t25 -9q19 0 42 10l-15 -86q-13 -5 -24 -7t-29 -2q-49 0 -78.5 26.5z" />
    <glyph glyph-name="tilde" unicode="&#x2dc;" horiz-adv-x="409" 
d="M284 597q-15 6 -36 18q-18 10 -30 15t-25 5q-27 0 -36 -32h-83q8 60 40 91t80 31q18 0 32.5 -5.5t38.5 -18.5q33 -20 53 -20q29 0 36 32h84q-8 -60 -40 -91t-81 -31q-18 0 -33 6z" />
    <glyph glyph-name="hungarumlaut" unicode="&#x2dd;" horiz-adv-x="435" 
d="M180 720h126l-104 -132h-93zM361 720h126l-104 -132h-93z" />
    <glyph glyph-name="gravecomb" unicode="&#x300;" horiz-adv-x="0" 
d="M-256 739h121l24 -131h-89z" />
    <glyph glyph-name="acutecomb" unicode="&#x301;" horiz-adv-x="0" 
d="M-157 739h126l-103 -131h-94z" />
    <glyph glyph-name="uni0302" unicode="&#x302;" horiz-adv-x="0" 
d="M-325 615l128 121h98l86 -121l-1 -7h-100l-37 59h-10l-54 -59h-111z" />
    <glyph glyph-name="tildecomb" unicode="&#x303;" horiz-adv-x="0" 
d="M-123 617.5q-16 6.5 -35 17.5q-19 10 -30 15t-24 5q-29 0 -36 -33h-84q8 61 40 92t80 31q19 0 35 -6t36 -18q19 -10 30 -15t24 -5q27 0 36 32h83q-8 -60 -40 -91t-80 -31q-19 0 -35 6.5z" />
    <glyph glyph-name="uni0304" unicode="&#x304;" horiz-adv-x="0" 
d="M-283 721h287l-15 -85h-287z" />
    <glyph glyph-name="uni0306" unicode="&#x306;" horiz-adv-x="0" 
d="M-237.5 633.5q-33.5 30.5 -33.5 77.5q0 6 2 22h82q-1 -4 -1 -10q0 -18 11 -30t31 -12q23 0 39 14t20 38h81q-10 -64 -49.5 -97t-99.5 -33q-49 0 -82.5 30.5z" />
    <glyph glyph-name="uni0307" unicode="&#x307;" horiz-adv-x="0" 
d="M-115 629q-20 20 -20 46q0 27 19.5 46.5t46.5 19.5q28 0 47 -19t19 -47q0 -27 -19.5 -46.5t-46.5 -19.5q-26 0 -46 20z" />
    <glyph glyph-name="uni0308" unicode="&#x308;" horiz-adv-x="0" 
d="M-291.5 634q-18.5 19 -18.5 45q0 27 18.5 45t44.5 18q28 0 46 -18t18 -45t-18.5 -45.5t-45.5 -18.5q-26 0 -44.5 19zM-113 634q-19 19 -19 45q0 27 19 45t45 18q27 0 45.5 -18t18.5 -45q0 -26 -18.5 -45t-45.5 -19q-26 0 -45 19z" />
    <glyph glyph-name="uni030A" unicode="&#x30a;" horiz-adv-x="0" 
d="M-224 617q-31 31 -31 75t31 74.5t75 30.5t75 -30.5t31 -74.5t-31 -75t-75 -31t-75 31zM-121 663q12 12 12 29q0 16 -12 27.5t-28 11.5t-28 -11.5t-12 -27.5t12 -28.5t28 -12.5t28 12z" />
    <glyph glyph-name="uni030B" unicode="&#x30b;" horiz-adv-x="0" 
d="M-252 740h126l-104 -132h-93zM-71 740h126l-104 -132h-93z" />
    <glyph glyph-name="uni030C" unicode="&#x30c;" horiz-adv-x="0" 
d="M-304 729l1 7h101l36 -60h10l54 60h111l-1 -7l-128 -121h-98z" />
    <glyph glyph-name="uni0312" unicode="&#x312;" horiz-adv-x="0" 
d="M-123 715q20 -5 31.5 -21.5t11.5 -37.5q0 -26 -18.5 -45t-46.5 -19t-46 19t-18 47q0 32 18 53l81 98l40 -34z" />
    <glyph glyph-name="uni0326" unicode="&#x326;" horiz-adv-x="0" 
d="M-289 -171q-20 5 -31.5 21.5t-11.5 37.5q0 26 18.5 45t46.5 19t46 -19t18 -47q0 -32 -18 -53l-81 -98l-40 34z" />
    <glyph glyph-name="uni0327" unicode="&#x327;" horiz-adv-x="0" 
d="M-377 -217.5q-27 19.5 -33 46.5l61 25q2 -13 12.5 -22t24.5 -9q17 0 29 11.5t12 30.5q0 14 -9 23.5t-24 9.5q-16 0 -31 -15l-49 24l52 93h61l-29 -48q12 2 19 2q35 0 56.5 -24t21.5 -63q0 -46 -31.5 -75t-81.5 -29q-34 0 -61 19.5z" />
    <glyph glyph-name="uni0328" unicode="&#x328;" horiz-adv-x="0" 
d="M-359.5 -197.5q-29.5 26.5 -29.5 67.5q0 40 22 73t61 57h104q-33 -19 -60.5 -48t-27.5 -57q0 -16 10 -25t25 -9q19 0 42 10l-15 -86q-13 -5 -24 -7t-29 -2q-49 0 -78.5 26.5z" />
    <glyph glyph-name="uni0374" unicode="&#x374;" horiz-adv-x="294" 
d="M317 716l-161 -215h-92l116 215h137z" />
    <glyph glyph-name="uni0375" unicode="&#x375;" horiz-adv-x="294" 
d="M18 -93l133 215h93l-92 -215h-134z" />
    <glyph glyph-name="uni037E" unicode="&#x37e;" horiz-adv-x="250" 
d="M83.5 387.5q-22.5 22.5 -22.5 54.5t22.5 54.5t54.5 22.5t54.5 -22.5t22.5 -54.5t-22.5 -54.5t-54.5 -22.5t-54.5 22.5zM-26 -71l71 86q-16 9 -28.5 26t-12.5 43q0 32 22.5 54t53.5 22q32 0 54.5 -22t22.5 -54q0 -17 -9.5 -33.5t-28.5 -39.5l-100 -120z" />
    <glyph glyph-name="tonos" unicode="&#x384;" horiz-adv-x="420" 
d="M242 736h125l-102 -132h-94z" />
    <glyph glyph-name="dieresistonos" unicode="&#x385;" horiz-adv-x="430" 
d="M244 732h69l-25 -144h-69zM100.5 618q-17.5 18 -17.5 41q0 25 17.5 42t41.5 17q25 0 41.5 -17t16.5 -42q0 -24 -17 -41.5t-41 -17.5t-41.5 18zM349.5 618q-17.5 18 -17.5 41q0 25 17.5 42t40.5 17q25 0 42 -17t17 -42q0 -24 -17.5 -41.5t-41.5 -17.5q-23 0 -40.5 18z" />
    <glyph glyph-name="Alphatonos" unicode="&#x386;" horiz-adv-x="696" 
d="M343 716h129l143 -716h-120l-33 183h-287l-98 -183h-127zM443 287l-40 213l-13 83h-5l-43 -83l-113 -213h214zM147 720h126l-104 -132h-93z" />
    <glyph glyph-name="anoteleia" unicode="&#x387;" horiz-adv-x="193" 
d="M40.5 269.5q-22.5 22.5 -22.5 54.5t22.5 54.5t54.5 22.5t54.5 -22.5t22.5 -54.5t-22.5 -54.5t-54.5 -22.5t-54.5 22.5z" />
    <glyph glyph-name="Epsilontonos" unicode="&#x388;" horiz-adv-x="632" 
d="M202 716h434l-19 -107h-323l-35 -198h291l-18 -106h-291l-35 -198h323l-20 -107h-434zM38 720h126l-104 -132h-93z" />
    <glyph glyph-name="Etatonos" unicode="&#x389;" horiz-adv-x="775" 
d="M200 716h112l-54 -297h332l54 297h111l-127 -716h-111l55 313h-332l-55 -313h-112zM26 720h126l-104 -132h-93z" />
    <glyph glyph-name="Iotatonos" unicode="&#x38a;" horiz-adv-x="332" 
d="M200 716h112l-127 -716h-112zM26 720h126l-104 -132h-93z" />
    <glyph glyph-name="Omicrontonos" unicode="&#x38c;" horiz-adv-x="833" 
d="M201 25.5q-76 41.5 -119.5 116t-43.5 170.5q0 111 53.5 207.5t150 154.5t219.5 58q94 0 169.5 -42t118.5 -116.5t43 -169.5q0 -111 -53.5 -207.5t-150 -154.5t-218.5 -58q-93 0 -169 41.5zM530.5 134q68.5 43 108 114t39.5 151q0 67 -30 118.5t-82.5 79.5t-116.5 28
q-81 0 -149.5 -42.5t-108 -113.5t-39.5 -151q0 -68 30 -119.5t82 -79.5t116 -28q82 0 150.5 43zM22 720h126l-104 -132h-93z" />
    <glyph glyph-name="Upsilontonos" unicode="&#x38e;" horiz-adv-x="710" 
d="M339 333l-173 383h129l114 -266h6l204 266h137l-305 -383l-59 -333h-112zM27 720h126l-104 -132h-93z" />
    <glyph glyph-name="Omegatonos" unicode="&#x38f;" horiz-adv-x="765" 
d="M22 720h126l-104 -132h-93zM-16 102h152l2 6q-52 41 -87 101.5t-35 142.5q0 102 51.5 189t144.5 139t210 52q95 0 166 -40t109 -108t38 -150q0 -106 -56.5 -188t-157.5 -138l-2 -6h146l-17 -102h-288l26 145q65 15 118.5 55.5t84.5 97.5t31 120t-27 109.5t-75 72
t-111 25.5q-78 0 -141.5 -36t-99.5 -97t-36 -133q0 -82 42 -136.5t108 -77.5l-26 -145h-286z" />
    <glyph glyph-name="iotadieresistonos" unicode="&#x390;" horiz-adv-x="255" 
d="M96 510h110l-89 -510h-110zM156 732h69l-25 -144h-69zM12.5 618q-17.5 18 -17.5 41q0 25 17.5 42t41.5 17q25 0 41.5 -17t16.5 -42q0 -24 -17 -41.5t-41 -17.5t-41.5 18zM261.5 618q-17.5 18 -17.5 41q0 25 17.5 42t40.5 17q25 0 42 -17t17 -42q0 -24 -17.5 -41.5
t-41.5 -17.5q-23 0 -40.5 18z" />
    <glyph glyph-name="Alpha" unicode="&#x391;" horiz-adv-x="696" 
d="M343 716h129l143 -716h-120l-33 183h-287l-98 -183h-127zM443 287l-40 213l-13 83h-5l-43 -83l-113 -213h214z" />
    <glyph glyph-name="Beta" unicode="&#x392;" horiz-adv-x="628" 
d="M143 716h249q62 0 107.5 -24t69.5 -64t24 -87q0 -64 -36 -107t-90 -60l-1 -6q95 -49 95 -148q0 -63 -35 -113.5t-95.5 -78.5t-133.5 -28h-281zM354 416q56 0 91 28t35 78q0 39 -25.5 65t-69.5 26h-149l-35 -197h153zM315 104q53 0 92.5 30.5t39.5 84.5q0 44 -28.5 70.5
t-77.5 26.5h-158l-37 -212h169z" />
    <glyph glyph-name="Gamma" unicode="&#x393;" horiz-adv-x="527" 
d="M143 716h418l-19 -107h-307l-107 -609h-112z" />
    <glyph glyph-name="uni0394" unicode="&#x394;" horiz-adv-x="688" 
d="M341 716h128l138 -716h-657zM469 105l-83 473h-5l-249 -473h337z" />
    <glyph glyph-name="Epsilon" unicode="&#x395;" horiz-adv-x="573" 
d="M143 716h434l-19 -107h-323l-35 -198h291l-18 -106h-291l-35 -198h323l-20 -107h-434z" />
    <glyph glyph-name="Zeta" unicode="&#x396;" horiz-adv-x="592" 
d="M-6 115l456 494h-353l19 107h487l-21 -115l-454 -494h371l-19 -107h-506z" />
    <glyph glyph-name="Eta" unicode="&#x397;" horiz-adv-x="719" 
d="M143 716h112l-54 -297h332l54 297h111l-127 -716h-111l55 313h-332l-55 -313h-112z" />
    <glyph glyph-name="Theta" unicode="&#x398;" horiz-adv-x="847" 
d="M201 25.5q-76 41.5 -119.5 116t-43.5 170.5q0 111 53.5 207.5t150 154.5t219.5 58q94 0 169.5 -42t118.5 -116.5t43 -169.5q0 -111 -53.5 -207.5t-150 -154.5t-218.5 -58q-93 0 -169 41.5zM530.5 134q68.5 43 108 114t39.5 151q0 67 -30 118.5t-82.5 79.5t-116.5 28
q-81 0 -149.5 -42.5t-108 -113.5t-39.5 -151q0 -68 30 -119.5t82 -79.5t116 -28q82 0 150.5 43zM270 409h316l-17 -102h-316z" />
    <glyph glyph-name="Iota" unicode="&#x399;" horiz-adv-x="275" 
d="M143 716h112l-127 -716h-112z" />
    <glyph glyph-name="Kappa" unicode="&#x39a;" horiz-adv-x="648" 
d="M143 716h112l-62 -347h6l340 347h146l-1 -6l-364 -363l251 -341l-1 -6h-139l-239 328h-6l-58 -328h-112z" />
    <glyph glyph-name="Lambda" unicode="&#x39b;" horiz-adv-x="680" 
d="M337 716h128l134 -716h-120l-84 504l-11 79h-6l-38 -79l-262 -504h-128z" />
    <glyph glyph-name="Mu" unicode="&#x39c;" horiz-adv-x="885" 
d="M143 716h149l111 -543h5l301 543h156l-127 -716h-111l71 401l29 129h-6l-295 -530h-92l-113 530h-6l-17 -129l-71 -401h-111z" />
    <glyph glyph-name="Nu" unicode="&#x39d;" horiz-adv-x="727" 
d="M143 716h125l235 -521h6l19 138l68 383h111l-127 -716h-109l-247 548h-6l-18 -138l-73 -410h-111z" />
    <glyph glyph-name="Xi" unicode="&#x39e;" horiz-adv-x="525" 
d="M95 716h458l-19 -107h-459zM72 411h395l-18 -106h-395zM-12 107h457l-19 -107h-458z" />
    <glyph glyph-name="Omicron" unicode="&#x39f;" horiz-adv-x="833" 
d="M201 25.5q-76 41.5 -119.5 116t-43.5 170.5q0 111 53.5 207.5t150 154.5t219.5 58q94 0 169.5 -42t118.5 -116.5t43 -169.5q0 -111 -53.5 -207.5t-150 -154.5t-218.5 -58q-93 0 -169 41.5zM530.5 134q68.5 43 108 114t39.5 151q0 67 -30 118.5t-82.5 79.5t-116.5 28
q-81 0 -149.5 -42.5t-108 -113.5t-39.5 -151q0 -68 30 -119.5t82 -79.5t116 -28q82 0 150.5 43z" />
    <glyph glyph-name="Pi" unicode="&#x3a0;" horiz-adv-x="696" 
d="M143 716h533l-127 -716h-112l108 609h-310l-107 -609h-112z" />
    <glyph glyph-name="Rho" unicode="&#x3a1;" horiz-adv-x="595" 
d="M143 716h239q59 0 106 -24.5t73.5 -69t26.5 -101.5q0 -76 -34.5 -131t-96 -83.5t-140.5 -28.5h-140l-49 -278h-112zM335 384q62 0 101 31.5t39 94.5q0 45 -28 72t-73 27h-139l-39 -225h139z" />
    <glyph glyph-name="Sigma" unicode="&#x3a3;" horiz-adv-x="527" 
d="M386 366l-249 -261h312l-19 -105h-445l20 113l247 256l-161 234l20 113h446l-20 -105h-317z" />
    <glyph glyph-name="Tau" unicode="&#x3a4;" horiz-adv-x="565" 
d="M269 609h-200l19 107h512l-20 -107h-200l-107 -609h-112z" />
    <glyph glyph-name="Upsilon" unicode="&#x3a5;" horiz-adv-x="619" 
d="M249 333l-173 383h129l114 -266h6l204 266h137l-305 -383l-59 -333h-112z" />
    <glyph glyph-name="Phi" unicode="&#x3a6;" horiz-adv-x="817" 
d="M297 59q-77 9 -135 45t-90 93.5t-32 128.5q0 92 47.5 164.5t130.5 115.5t185 51l13 74h112l-13 -75q78 -10 136.5 -47t90 -94.5t31.5 -128.5q0 -91 -47.5 -163t-130 -114.5t-186.5 -50.5l-13 -73h-112zM385 553q-99 -13 -165 -69.5t-66 -146.5q0 -74 42 -118.5t119 -55.5
zM593.5 230.5q65.5 56.5 65.5 147.5q0 74 -42.5 119t-120.5 56l-69 -390q101 11 166.5 67.5z" />
    <glyph glyph-name="Chi" unicode="&#x3a7;" horiz-adv-x="664" 
d="M263 376l-169 340h137l115 -253h6l203 253h141l-289 -349l182 -367h-135l-132 273h-6l-224 -273h-138z" />
    <glyph glyph-name="Psi" unicode="&#x3a8;" horiz-adv-x="772" 
d="M182 184q-49 28 -78 81t-29 125q0 24 7 68l45 258h112l-48 -270q-5 -32 -5 -53q0 -62 32 -96t93 -34l81 453h112l-81 -453q74 0 122 49t62 130l49 274h112l-52 -289q-15 -85 -60.5 -146t-111 -93t-140.5 -32l-27 -156h-112l27 156q-61 0 -110 28z" />
    <glyph glyph-name="uni03A9" unicode="&#x3a9;" horiz-adv-x="812" 
d="M16 102h152l2 6q-52 41 -87 101.5t-35 142.5q0 102 51.5 189t144.5 139t210 52q95 0 166 -40t109 -108t38 -150q0 -106 -56.5 -188t-157.5 -138l-2 -6h146l-17 -102h-288l26 145q65 15 118.5 55.5t84.5 97.5t31 120t-27 109.5t-75 72t-111 25.5q-78 0 -141.5 -36
t-99.5 -97t-36 -133q0 -82 42 -136.5t108 -77.5l-26 -145h-286z" />
    <glyph glyph-name="Iotadieresis" unicode="&#x3aa;" horiz-adv-x="275" 
d="M94 815q-18 18 -18 41q0 24 17.5 41.5t41.5 17.5q25 0 42 -17t17 -42q0 -24 -17.5 -41.5t-41.5 -17.5q-23 0 -41 18zM258 815q-18 18 -18 41q0 24 17.5 41.5t41.5 17.5q25 0 42.5 -17t17.5 -42q0 -24 -17.5 -41.5t-42.5 -17.5q-23 0 -41 18zM141 716h112l-127 -716h-112z
" />
    <glyph glyph-name="Upsilondieresis" unicode="&#x3ab;" horiz-adv-x="619" 
d="M249 333l-173 383h129l114 -266h6l204 266h137l-305 -383l-59 -333h-112zM246 798q-19 19 -19 45q0 27 19 45.5t45 18.5q27 0 45.5 -18.5t18.5 -45.5q0 -26 -18.5 -45t-45.5 -19q-26 0 -45 19zM425 798q-19 19 -19 45q0 27 18.5 45.5t44.5 18.5q28 0 46 -18.5t18 -45.5
q0 -26 -18.5 -45t-45.5 -19q-25 0 -44 19z" />
    <glyph glyph-name="alphatonos" unicode="&#x3ac;" horiz-adv-x="615" 
d="M115.5 12.5q-47.5 28.5 -75.5 81t-28 121.5q0 86 37.5 157.5t104.5 112.5t151 41q56 0 96 -24t58 -59h5l12 67h104l-90 -510h-104l12 66h-6q-55 -82 -172 -82q-57 0 -104.5 28.5zM345.5 111q41.5 26 65.5 72t24 103q0 62 -37.5 100t-93.5 38q-51 0 -92.5 -25.5t-65 -70
t-23.5 -101.5q0 -64 37 -103t94 -39q50 0 91.5 26zM351 736h125l-102 -132h-94z" />
    <glyph glyph-name="epsilontonos" unicode="&#x3ad;" horiz-adv-x="513" 
d="M98 3q-43 19 -66 52t-23 73q0 51 28 84t78 50l1 6q-21 16 -35 41.5t-14 59.5q0 46 28 82t77 55.5t110 19.5q112 0 178 -86l-78 -61q-19 25 -46.5 39t-62.5 14q-42 0 -72 -17.5t-30 -51.5q0 -26 21 -44t54 -18h71l-15 -84h-86q-39 0 -67.5 -19.5t-28.5 -51.5
q0 -29 25 -47.5t66 -18.5q44 0 78 15t69 49l68 -66q-49 -49 -102 -71.5t-125 -22.5q-58 0 -101 19zM325 736h125l-102 -132h-94z" />
    <glyph glyph-name="etatonos" unicode="&#x3ae;" horiz-adv-x="583" 
d="M400 299q5 27 5 44q0 38 -25.5 59.5t-68.5 21.5q-58 0 -99 -41t-53 -107l-49 -276h-110l90 510h104l-12 -67h6q26 39 68 61t97 22q78 0 121 -42.5t43 -111.5q0 -31 -6 -67l-92 -521h-110zM372 736h125l-102 -132h-94z" />
    <glyph glyph-name="iotatonos" unicode="&#x3af;" horiz-adv-x="255" 
d="M96 510h110l-89 -510h-110zM192 736h125l-102 -132h-94z" />
    <glyph glyph-name="upsilondieresistonos" unicode="&#x3b0;" horiz-adv-x="580" 
d="M90.5 35.5q-55.5 51.5 -57.5 137.5q0 33 6 62l48 275h109l-48 -276q-4 -20 -4 -42q1 -51 29 -79t74 -28q83 0 127 59t44 146q0 102 -54 220h118q46 -108 46 -218q0 -93 -36.5 -163t-102.5 -107.5t-151 -37.5q-92 0 -147.5 51.5zM289 732h69l-25 -144h-69zM145.5 618
q-17.5 18 -17.5 41q0 25 17.5 42t41.5 17q25 0 41.5 -17t16.5 -42q0 -24 -17 -41.5t-41 -17.5t-41.5 18zM394.5 618q-17.5 18 -17.5 41q0 25 17.5 42t40.5 17q25 0 42 -17t17 -42q0 -24 -17.5 -41.5t-41.5 -17.5q-23 0 -40.5 18z" />
    <glyph glyph-name="alpha" unicode="&#x3b1;" horiz-adv-x="615" 
d="M115.5 12.5q-47.5 28.5 -75.5 81t-28 121.5q0 86 37.5 157.5t104.5 112.5t151 41q56 0 96 -24t58 -59h5l12 67h104l-90 -510h-104l12 66h-6q-55 -82 -172 -82q-57 0 -104.5 28.5zM345.5 111q41.5 26 65.5 72t24 103q0 62 -37.5 100t-93.5 38q-51 0 -92.5 -25.5t-65 -70
t-23.5 -101.5q0 -64 37 -103t94 -39q50 0 91.5 26z" />
    <glyph glyph-name="beta" unicode="&#x3b2;" horiz-adv-x="589" 
d="M104 512q17 100 78.5 160t166.5 60q57 0 102.5 -23t71 -62t25.5 -87q0 -64 -31.5 -107t-81.5 -63l-2 -6q41 -22 65 -62t24 -97q0 -66 -33 -121t-90.5 -87.5t-127.5 -32.5q-42 0 -79 17t-59 47h-6l-7 -72l-33 -192h-111zM338.5 103q31.5 17 51.5 48t20 72q0 50 -34 80
t-88 30h-26l17 99h26q52 0 91.5 29t39.5 76q0 42 -27.5 67t-71.5 25q-48 0 -80.5 -32.5t-41.5 -84.5l-51 -288q-3 -18 -3 -36q0 -47 30 -74.5t82 -27.5q34 0 65.5 17z" />
    <glyph glyph-name="gamma" unicode="&#x3b3;" horiz-adv-x="578" 
d="M175 6l-136 504h119l91 -373h4l222 373h125l-315 -502l-40 -224h-110z" />
    <glyph glyph-name="delta" unicode="&#x3b4;" horiz-adv-x="601" 
d="M128.5 15.5q-53.5 31.5 -84.5 85.5t-31 120q0 70 28 133t85.5 107.5t140.5 56.5l-143 113l15 85h430l-18 -96h-264l148 -115q114 -87 114 -221q0 -82 -37.5 -150.5t-106.5 -109t-159 -40.5q-64 0 -117.5 31.5zM347 109q41 24 66 67.5t25 99.5q0 40 -17.5 74.5t-49 55
t-72.5 20.5q-48 0 -88 -25.5t-63.5 -70.5t-23.5 -102q0 -41 18.5 -73.5t49.5 -51t66 -18.5q48 0 89 24z" />
    <glyph glyph-name="epsilon" unicode="&#x3b5;" horiz-adv-x="513" 
d="M98 3q-43 19 -66 52t-23 73q0 51 28 84t78 50l1 6q-21 16 -35 41.5t-14 59.5q0 46 28 82t77 55.5t110 19.5q112 0 178 -86l-78 -61q-19 25 -46.5 39t-62.5 14q-42 0 -72 -17.5t-30 -51.5q0 -26 21 -44t54 -18h71l-15 -84h-86q-39 0 -67.5 -19.5t-28.5 -51.5
q0 -29 25 -47.5t66 -18.5q44 0 78 15t69 49l68 -66q-49 -49 -102 -71.5t-125 -22.5q-58 0 -101 19z" />
    <glyph glyph-name="zeta" unicode="&#x3b6;" horiz-adv-x="509" 
d="M269 -75q22 0 36.5 10.5t14.5 30.5q0 34 -43 34h-126q-66 0 -104 35.5t-38 91.5q0 45 22.5 78t67.5 61q55 35 125.5 81.5t98.5 65.5h-247l17 97h407l-17 -94q-48 -32 -156.5 -103.5t-165.5 -108.5q-39 -24 -39 -59q0 -23 16.5 -36t41.5 -13h108q66 0 102.5 -31.5
t36.5 -87.5q0 -68 -47 -106.5t-128 -38.5z" />
    <glyph glyph-name="eta" unicode="&#x3b7;" horiz-adv-x="583" 
d="M400 299q5 27 5 44q0 38 -25.5 59.5t-68.5 21.5q-58 0 -99 -41t-53 -107l-49 -276h-110l90 510h104l-12 -67h6q26 39 68 61t97 22q78 0 121 -42.5t43 -111.5q0 -31 -6 -67l-92 -521h-110z" />
    <glyph glyph-name="theta" unicode="&#x3b8;" horiz-adv-x="682" 
d="M153.5 20q-53.5 36 -82.5 102t-29 156q0 110 44 207t121.5 156t174.5 59q71 0 124.5 -36t83 -102.5t29.5 -155.5q0 -110 -44 -207t-122 -156t-175 -59q-71 0 -124.5 36zM506 405q-4 90 -39.5 140.5t-96.5 50.5q-66 0 -121.5 -53.5t-79.5 -137.5h337zM382 117.5
q43 29.5 74 81.5t43 116h-344q-1 -9 -1 -20q0 -96 36.5 -151.5t100.5 -55.5q48 0 91 29.5z" />
    <glyph glyph-name="iota" unicode="&#x3b9;" horiz-adv-x="255" 
d="M96 510h110l-89 -510h-110z" />
    <glyph glyph-name="kappa" unicode="&#x3ba;" horiz-adv-x="520" 
d="M90 510h109l-39 -225h6l225 225h137l-1 -6l-248 -241l170 -257l-1 -6h-128l-160 251h-6l-45 -251h-109z" />
    <glyph glyph-name="lambda" unicode="&#x3bb;" horiz-adv-x="532" 
d="M232 464l-66 242h118l179 -706h-118l-75 324h-5l-191 -324h-125z" />
    <glyph glyph-name="uni03BC" unicode="&#x3bc;" horiz-adv-x="583" 
d="M87 510h110l-55 -308q-3 -18 -3 -35q0 -38 25.5 -60t68.5 -22q58 0 99 41t53 107l49 277h110l-90 -510h-104l12 66h-6q-57 -82 -161 -82q-24 0 -48 9t-37 24h-6l-4 -60l-32 -173h-109z" />
    <glyph glyph-name="nu" unicode="&#x3bd;" horiz-adv-x="546" 
d="M33 510h121l74 -368h5l208 368h124l-303 -510h-110z" />
    <glyph glyph-name="xi" unicode="&#x3be;" horiz-adv-x="542" 
d="M285 -75q21 0 36.5 11.5t15.5 30.5q0 33 -39 33h-80q-65 0 -113.5 23.5t-75 64.5t-26.5 92q0 139 148 202l2 6q-69 52 -69 133q0 57 32 105t90.5 77t133.5 29q69 0 119 -29.5t78 -79.5l-94 -62q-19 36 -46.5 52.5t-67.5 16.5q-57 0 -95 -29.5t-38 -82.5q0 -43 31 -68.5
t78 -25.5h95l-18 -99h-110q-69 0 -112 -32.5t-43 -87.5q0 -48 34.5 -74t88.5 -26h55q71 0 110 -31.5t39 -89.5q0 -70 -48.5 -110.5t-126.5 -41.5z" />
    <glyph glyph-name="omicron" unicode="&#x3bf;" horiz-adv-x="600" 
d="M128.5 16q-54.5 32 -84.5 87t-30 122q0 84 38 153t106.5 108.5t157.5 39.5q70 0 124.5 -32t84.5 -87t30 -122q0 -84 -38 -153t-106.5 -108.5t-157.5 -39.5q-70 0 -124.5 32zM355.5 110.5q40.5 25.5 64 69t23.5 95.5q0 65 -38 107t-101 42q-51 0 -91.5 -25t-64 -68.5
t-23.5 -95.5q0 -65 38.5 -107.5t101.5 -42.5q50 0 90.5 25.5z" />
    <glyph glyph-name="pi" unicode="&#x3c0;" horiz-adv-x="728" 
d="M456 25.5q-37 33.5 -37 91.5q0 20 5 51l43 245h-207l-72 -413h-110l72 413h-117l17 97h664l-17 -97h-120l-42 -235q-3 -19 -3 -33q0 -23 12.5 -38t35.5 -15q17 0 30.5 4t31.5 13l-19 -107q-35 -10 -71 -10q-59 0 -96 33.5z" />
    <glyph glyph-name="rho" unicode="&#x3c1;" horiz-adv-x="617" 
d="M51 260q21 120 96.5 193t195.5 73q71 0 123 -29.5t80 -82t28 -121.5q0 -83 -37 -154t-103.5 -113t-150.5 -42q-55 0 -95.5 23.5t-60.5 58.5h-6l-6 -71l-38 -211h-109zM373 110q41 25 65 70.5t24 102.5q0 64 -37 102.5t-93 38.5q-49 0 -90.5 -26.5t-65.5 -72.5t-24 -102
q0 -62 37 -100t92 -38q51 0 92 25z" />
    <glyph glyph-name="sigma1" unicode="&#x3c2;" horiz-adv-x="550" 
d="M132.5 15q-56.5 31 -87.5 86.5t-31 126.5q0 81 37.5 149t105 108t154.5 40q85 0 141 -39.5t74 -102.5l-105 -41q-12 40 -44 61t-79 21q-49 0 -88.5 -25.5t-62 -68.5t-22.5 -92q0 -69 38 -111t111 -42h29q67 0 106 -32t39 -88q0 -70 -47 -109t-127 -40l16 93
q23 0 37.5 11.5t14.5 30.5q0 14 -11.5 23.5t-32.5 9.5h-36q-73 0 -129.5 31z" />
    <glyph glyph-name="sigma" unicode="&#x3c3;" horiz-adv-x="622" 
d="M125.5 15q-53.5 31 -83 84.5t-29.5 119.5q0 80 37 146.5t104 105.5t153 39h324l-17 -97h-46l-74 6l-2 -6q23 -26 35 -62.5t12 -78.5q0 -81 -37 -146.5t-103 -103.5t-151 -38q-69 0 -122.5 31zM345 109.5q39 24.5 61 66t22 91.5q0 62 -36.5 101.5t-96.5 39.5
q-48 0 -87 -24t-61 -65t-22 -91q0 -62 37 -102.5t96 -40.5q48 0 87 24.5z" />
    <glyph glyph-name="tau" unicode="&#x3c4;" horiz-adv-x="491" 
d="M197 408h-162l18 102h435l-18 -102h-163l-72 -408h-110z" />
    <glyph glyph-name="upsilon" unicode="&#x3c5;" horiz-adv-x="580" 
d="M90.5 35.5q-55.5 51.5 -57.5 137.5q0 33 6 62l48 275h109l-48 -276q-4 -20 -4 -42q1 -51 29 -79t74 -28q83 0 127 59t44 146q0 102 -54 220h118q46 -108 46 -218q0 -93 -36.5 -163t-102.5 -107.5t-151 -37.5q-92 0 -147.5 51.5z" />
    <glyph glyph-name="phi" unicode="&#x3c6;" horiz-adv-x="754" 
d="M258 -12q-102 14 -163 77t-61 158q0 103 58.5 178.5t163.5 124.5l32 -94q-67 -33 -104 -82t-37 -115q0 -58 35 -96t93 -50l50 283q13 73 64.5 113.5t117.5 40.5q87 0 137 -59t50 -156q0 -89 -41 -160t-115 -114t-170 -50l-36 -203h-110zM528.5 160.5
q54.5 57.5 54.5 142.5q0 56 -21.5 88.5t-58.5 32.5q-27 0 -45.5 -16t-23.5 -45l-48 -275q88 15 142.5 72.5z" />
    <glyph glyph-name="chi" unicode="&#x3c7;" horiz-adv-x="513" 
d="M170 263l-130 247h127l81 -166h3l135 166h135l-220 -253l132 -257h-126l-83 173h-4l-140 -173h-134z" />
    <glyph glyph-name="psi" unicode="&#x3c8;" horiz-adv-x="728" 
d="M247 -16q-60 0 -109.5 25t-78.5 71t-29 107q0 27 4 51l48 272h110l-49 -278q-4 -20 -4 -36q0 -55 37 -83t88 -28l76 425h110l-75 -424q63 0 106 31t63.5 80.5t20.5 106.5q0 58 -9 106t-29 100h112q36 -90 36 -201q0 -94 -40 -168t-112 -115.5t-166 -41.5l-35 -200h-111z
" />
    <glyph glyph-name="omega" unicode="&#x3c9;" horiz-adv-x="817" 
d="M119.5 9q-41.5 25 -66.5 71.5t-25 108.5q0 84 35 163t97 158h124q-66 -85 -104 -159.5t-38 -147.5q0 -53 24.5 -84t64.5 -31q42 0 75.5 38t46.5 109l27 150h104l-27 -150q-5 -27 -5 -54q0 -43 22 -68t60 -25q43 0 74.5 29.5t47.5 76t16 96.5q0 54 -11.5 103.5
t-37.5 116.5h120q21 -59 31.5 -109.5t10.5 -110.5q0 -75 -30 -145.5t-89 -115.5t-142 -45q-53 0 -90 24.5t-55 65.5q-61 -90 -168 -90q-50 0 -91.5 25z" />
    <glyph glyph-name="iotadieresis" unicode="&#x3ca;" horiz-adv-x="255" 
d="M57 635q-19 19 -19 44q0 26 19 44t44 18q26 0 44.5 -18t18.5 -44t-18.5 -44.5t-44.5 -18.5q-25 0 -44 19zM208 635q-19 19 -19 44q0 26 18.5 44t44.5 18t44 -18t18 -44t-18 -44.5t-44 -18.5q-25 0 -44 19zM96 510h110l-89 -510h-110z" />
    <glyph glyph-name="upsilondieresis" unicode="&#x3cb;" horiz-adv-x="580" 
d="M90.5 35.5q-55.5 51.5 -57.5 137.5q0 33 6 62l48 275h109l-48 -276q-4 -20 -4 -42q1 -51 29 -79t74 -28q83 0 127 59t44 146q0 102 -54 220h118q46 -108 46 -218q0 -93 -36.5 -163t-102.5 -107.5t-151 -37.5q-92 0 -147.5 51.5zM179.5 634q-18.5 19 -18.5 45
q0 27 18.5 45t44.5 18q28 0 46 -18t18 -45t-18.5 -45.5t-45.5 -18.5q-26 0 -44.5 19zM358 634q-19 19 -19 45q0 27 19 45t45 18q27 0 45.5 -18t18.5 -45q0 -26 -18.5 -45t-45.5 -19q-26 0 -45 19z" />
    <glyph glyph-name="omicrontonos" unicode="&#x3cc;" horiz-adv-x="600" 
d="M128.5 16q-54.5 32 -84.5 87t-30 122q0 84 38 153t106.5 108.5t157.5 39.5q70 0 124.5 -32t84.5 -87t30 -122q0 -84 -38 -153t-106.5 -108.5t-157.5 -39.5q-70 0 -124.5 32zM355.5 110.5q40.5 25.5 64 69t23.5 95.5q0 65 -38 107t-101 42q-51 0 -91.5 -25t-64 -68.5
t-23.5 -95.5q0 -65 38.5 -107.5t101.5 -42.5q50 0 90.5 25.5zM358 736h125l-102 -132h-94z" />
    <glyph glyph-name="upsilontonos" unicode="&#x3cd;" horiz-adv-x="580" 
d="M90.5 35.5q-55.5 51.5 -57.5 137.5q0 33 6 62l48 275h109l-48 -276q-4 -20 -4 -42q1 -51 29 -79t74 -28q83 0 127 59t44 146q0 102 -54 220h118q46 -108 46 -218q0 -93 -36.5 -163t-102.5 -107.5t-151 -37.5q-92 0 -147.5 51.5zM325 736h125l-102 -132h-94z" />
    <glyph glyph-name="omegatonos" unicode="&#x3ce;" horiz-adv-x="817" 
d="M119.5 9q-41.5 25 -66.5 71.5t-25 108.5q0 84 35 163t97 158h124q-66 -85 -104 -159.5t-38 -147.5q0 -53 24.5 -84t64.5 -31q42 0 75.5 38t46.5 109l27 150h104l-27 -150q-5 -27 -5 -54q0 -43 22 -68t60 -25q43 0 74.5 29.5t47.5 76t16 96.5q0 54 -11.5 103.5
t-37.5 116.5h120q21 -59 31.5 -109.5t10.5 -110.5q0 -75 -30 -145.5t-89 -115.5t-142 -45q-53 0 -90 24.5t-55 65.5q-61 -90 -168 -90q-50 0 -91.5 25zM494 736h125l-102 -132h-94z" />
    <glyph glyph-name="theta1" unicode="&#x3d1;" horiz-adv-x="637" 
d="M119 7.5q-45 23.5 -70 67.5t-25 103q0 26 5 56l48 276h107l-49 -273q-4 -34 -4 -44q0 -54 29 -81.5t78 -27.5q126 0 154 149l7 44q-76 19 -123 84t-47 156q0 60 22.5 109t65.5 77.5t103 28.5q69 0 104 -38t35 -101q0 -19 -5 -48l-32 -177h90l-17 -95h-90l-9 -54
q-19 -108 -92 -171.5t-183 -63.5q-57 0 -102 23.5zM451 568q1 7 1 20q0 21 -12 34.5t-34 13.5q-34 0 -53 -33.5t-19 -79.5q0 -50 22 -90t61 -57z" />
    <glyph glyph-name="Upsilon1" unicode="&#x3d2;" horiz-adv-x="625" 
d="M246 315l-82 249q-10 31 -22.5 43.5t-31.5 12.5q-17 0 -31 -8l-30 90q16 9 41 15.5t50 6.5q41 0 71.5 -24t46.5 -75l59 -194h6l125 191q40 60 74.5 81t78.5 21q47 0 80 -24l-48 -89q-16 9 -31 9q-20 0 -37 -12.5t-39 -43.5l-169 -249l-55 -315h-112z" />
    <glyph glyph-name="uni03D3" unicode="&#x3d3;" horiz-adv-x="722" 
d="M343 315l-82 249q-10 31 -22.5 43.5t-31.5 12.5q-17 0 -31 -8l-30 90q16 9 41 15.5t50 6.5q41 0 71.5 -24t46.5 -75l59 -194h6l125 191q40 60 74.5 81t78.5 21q47 0 80 -24l-48 -89q-16 9 -31 9q-20 0 -37 -12.5t-39 -43.5l-169 -249l-55 -315h-112zM13 720h126
l-104 -132h-93z" />
    <glyph glyph-name="uni03D4" unicode="&#x3d4;" horiz-adv-x="625" 
d="M246 315l-82 249q-10 31 -22.5 43.5t-31.5 12.5q-17 0 -31 -8l-30 90q16 9 41 15.5t50 6.5q41 0 71.5 -24t46.5 -75l59 -194h6l125 191q40 60 74.5 81t78.5 21q47 0 80 -24l-48 -89q-16 9 -31 9q-20 0 -37 -12.5t-39 -43.5l-169 -249l-55 -315h-112zM241 798
q-19 19 -19 45q0 27 19 45.5t45 18.5q27 0 45.5 -18.5t18.5 -45.5q0 -26 -18.5 -45t-45.5 -19q-26 0 -45 19zM420 798q-19 19 -19 45q0 27 18.5 45.5t44.5 18.5q28 0 46 -18.5t18 -45.5q0 -26 -18.5 -45t-45.5 -19q-25 0 -44 19z" />
    <glyph glyph-name="omega1" unicode="&#x3d6;" horiz-adv-x="900" 
d="M140.5 7.5q-40.5 23.5 -64.5 68.5t-24 107q0 66 20 122.5t54 112.5h-77l16 92h821l-16 -92h-83q16 -62 16 -134q0 -79 -30 -148t-88.5 -110.5t-138.5 -41.5q-51 0 -89 24.5t-56 67.5q-29 -44 -73.5 -68t-96.5 -24q-50 0 -90.5 23.5zM326.5 126q35.5 38 48.5 109l18 99
h104l-18 -99q-5 -28 -5 -50q0 -46 21.5 -71.5t56.5 -25.5q67 0 102.5 57t35.5 139q0 63 -21 134h-420q-35 -52 -59 -111.5t-24 -113.5q0 -49 22 -77t60 -28q43 0 78.5 38z" />
    <glyph glyph-name="uni0400" unicode="&#x400;" horiz-adv-x="573" 
d="M143 716h434l-19 -107h-323l-35 -198h291l-18 -106h-291l-35 -198h323l-20 -107h-434zM266 904h121l24 -132h-89z" />
    <glyph glyph-name="uni0401" unicode="&#x401;" horiz-adv-x="573" 
d="M143 716h434l-19 -107h-323l-35 -198h291l-18 -106h-291l-35 -198h323l-20 -107h-434zM249 798q-19 19 -19 45q0 27 19 45.5t45 18.5q27 0 45.5 -18.5t18.5 -45.5q0 -26 -18.5 -45t-45.5 -19q-26 0 -45 19zM428 798q-19 19 -19 45q0 27 18.5 45.5t44.5 18.5
q28 0 46 -18.5t18 -45.5q0 -26 -18.5 -45t-45.5 -19q-25 0 -44 19z" />
    <glyph glyph-name="uni0402" unicode="&#x402;" horiz-adv-x="768" 
d="M257 609h-191l19 107h497l-19 -107h-194l-30 -170l-19 -71h6q37 33 81 51.5t103 18.5q55 0 101 -23.5t73.5 -69t27.5 -106.5q0 -67 -33 -121.5t-92.5 -86t-134.5 -31.5h-33l18 103h23q59 0 98 34.5t39 92.5q0 47 -32.5 75.5t-87.5 28.5q-49 0 -94.5 -21t-75.5 -56
l-46 -257h-112z" />
    <glyph glyph-name="uni0403" unicode="&#x403;" horiz-adv-x="527" 
d="M143 716h418l-19 -107h-307l-107 -609h-112zM387 904h126l-104 -132h-93z" />
    <glyph glyph-name="uni0404" unicode="&#x404;" horiz-adv-x="729" 
d="M182.5 25.5q-71.5 41.5 -112.5 118.5t-41 177q0 107 55 201.5t153.5 152t224.5 57.5q84 0 145 -29t109 -91l-90 -75q-66 88 -183 88q-68 0 -128.5 -27t-103.5 -76t-61 -114h330l-18 -100h-322q2 -66 31 -115t77.5 -75.5t109.5 -26.5q68 0 119.5 24.5t102.5 75.5l70 -77
q-67 -67 -140 -98.5t-167 -31.5q-89 0 -160.5 41.5z" />
    <glyph glyph-name="uni0405" unicode="&#x405;" horiz-adv-x="578" 
d="M81 36q-64 52 -79 146l108 43q5 -59 41 -96.5t97 -37.5q58 0 100 32t42 84q0 40 -28 67t-94 52l-39 15q-63 23 -104 68t-41 115q0 59 33 106.5t90 74.5t125 27q67 0 112.5 -23.5t69.5 -58t30 -68.5l-105 -40q-6 35 -35 60t-83 25q-51 0 -87 -26t-36 -70q0 -36 25.5 -59.5
t79.5 -43.5l42 -16q159 -59 159 -191q0 -70 -34.5 -124t-95.5 -83.5t-139 -29.5q-90 0 -154 52z" />
    <glyph glyph-name="uni0406" unicode="&#x406;" horiz-adv-x="275" 
d="M143 716h112l-127 -716h-112z" />
    <glyph glyph-name="uni0407" unicode="&#x407;" horiz-adv-x="256" 
d="M85 811q-18 18 -18 41q0 24 17.5 41.5t41.5 17.5q25 0 42 -17t17 -42q0 -24 -17.5 -41.5t-41.5 -17.5q-23 0 -41 18zM249 811q-18 18 -18 41q0 24 17.5 41.5t41.5 17.5q25 0 42 -17t17 -42q0 -24 -17 -41.5t-42 -17.5q-23 0 -41 18zM141 716h112l-127 -716h-112z" />
    <glyph glyph-name="uni0408" unicode="&#x408;" horiz-adv-x="552" 
d="M60.5 30.5q-57.5 46.5 -66.5 122.5l108 42q6 -53 36 -78.5t75 -25.5q52 0 88 36t47 93l87 496h112l-87 -492q-22 -121 -91 -180.5t-169 -59.5q-82 0 -139.5 46.5z" />
    <glyph glyph-name="uni0409" unicode="&#x409;" horiz-adv-x="1078" 
d="M-41 -4l19 107q11 -5 31 -5q40 0 68 25q23 20 37 62t27 119l73 412h491l-51 -294h160q91 0 149.5 -50.5t58.5 -140.5q0 -69 -34 -121t-95.5 -81t-140.5 -29h-284l107 609h-268l-59 -332q-16 -94 -41.5 -151t-64.5 -90q-28 -24 -61.5 -34t-79.5 -10q-22 0 -42 4zM773 105
q57 0 94.5 33t37.5 84q0 43 -27.5 69t-74.5 26h-168l-37 -212h175z" />
    <glyph glyph-name="uni040A" unicode="&#x40a;" horiz-adv-x="1034" 
d="M133 716h112l-53 -294h305l52 294h112l-53 -294h161q91 0 149.5 -50.5t58.5 -140.5q0 -69 -34 -121t-95 -81t-140 -29h-286l57 317h-305l-56 -317h-112zM728 105q58 0 95 32.5t37 84.5q0 43 -27.5 69t-74.5 26h-168l-37 -212h175z" />
    <glyph glyph-name="uni040B" unicode="&#x40b;" horiz-adv-x="762" 
d="M257 609h-191l19 107h497l-19 -107h-194l-30 -170l-19 -71h6q79 70 182 70q81 0 130.5 -47.5t49.5 -128.5q0 -19 -5 -49l-38 -213h-110l36 203q3 18 3 36q0 42 -29 68.5t-82 26.5q-89 0 -156 -77l-46 -257h-112z" />
    <glyph glyph-name="uni040C" unicode="&#x40c;" horiz-adv-x="648" 
d="M143 716h112l-62 -347h6l340 347h146l-1 -6l-364 -363l251 -341l-1 -6h-139l-239 328h-6l-58 -328h-112zM426 904h126l-104 -132h-93z" />
    <glyph glyph-name="uni040D" unicode="&#x40d;" horiz-adv-x="700" 
d="M133 716h111l-69 -391l-31 -138h6l407 529h132l-127 -716h-111l71 402l30 138h-6l-414 -540h-126zM306 904h121l24 -132h-89z" />
    <glyph glyph-name="uni040E" unicode="&#x40e;" horiz-adv-x="615" 
d="M15 2l46 99q19 -13 46 -13q25 0 42 11.5t34 37.5l37 56l-145 523h119l99 -395h6l238 395h129l-391 -620q-37 -59 -79.5 -85.5t-94.5 -26.5q-50 0 -86 18zM287.5 797.5q-33.5 30.5 -33.5 77.5q0 6 2 22h83q-1 -4 -1 -10q0 -17 11 -29t31 -12q22 0 37.5 14t20.5 37h82
q-10 -64 -49.5 -97t-100.5 -33q-49 0 -82.5 30.5z" />
    <glyph glyph-name="uni040F" unicode="&#x40f;" horiz-adv-x="678" 
d="M233 0h-212l126 716h112l-108 -609h309l108 609h112l-126 -716h-214l-27 -157h-107z" />
    <glyph glyph-name="uni0410" unicode="&#x410;" horiz-adv-x="696" 
d="M343 716h129l143 -716h-120l-33 183h-287l-98 -183h-127zM443 287l-40 213l-13 83h-5l-43 -83l-113 -213h214z" />
    <glyph glyph-name="uni0411" unicode="&#x411;" horiz-adv-x="627" 
d="M143 716h433l-19 -105h-321l-34 -188h159q58 0 103.5 -23t71.5 -65.5t26 -100.5q0 -71 -34 -124t-94.5 -81.5t-136.5 -28.5h-281zM316 105q57 0 94.5 33.5t37.5 85.5q0 44 -27.5 69.5t-74.5 25.5h-162l-37 -214h169z" />
    <glyph glyph-name="uni0412" unicode="&#x412;" horiz-adv-x="628" 
d="M143 716h249q62 0 107.5 -24t69.5 -64t24 -87q0 -64 -36 -107t-90 -60l-1 -6q95 -49 95 -148q0 -63 -35 -113.5t-95.5 -78.5t-133.5 -28h-281zM354 416q56 0 91 28t35 78q0 39 -25.5 65t-69.5 26h-149l-35 -197h153zM315 104q53 0 92.5 30.5t39.5 84.5q0 44 -28.5 70.5
t-77.5 26.5h-158l-37 -212h169z" />
    <glyph glyph-name="uni0413" unicode="&#x413;" horiz-adv-x="527" 
d="M143 716h418l-19 -107h-307l-107 -609h-112z" />
    <glyph glyph-name="uni0414" unicode="&#x414;" horiz-adv-x="786" 
d="M7 107h76q51 53 90 158.5t61 228.5l39 222h468l-107 -609h79l-45 -259h-107l26 152h-492l-26 -152h-106zM522 107l89 502h-246l-27 -149q-21 -120 -51.5 -204.5t-77.5 -148.5h313z" />
    <glyph glyph-name="uni0415" unicode="&#x415;" horiz-adv-x="573" 
d="M143 716h434l-19 -107h-323l-35 -198h291l-18 -106h-291l-35 -198h323l-20 -107h-434z" />
    <glyph glyph-name="uni0416" unicode="&#x416;" horiz-adv-x="928" 
d="M-60 6l342 354l-203 350l1 6h132l191 -338h6l60 338h112l-60 -338h5l306 338h141l-1 -6l-334 -363l220 -341l-2 -6h-137l-203 321h-5l-57 -321h-112l57 321h-6l-307 -321h-147z" />
    <glyph glyph-name="uni0417" unicode="&#x417;" horiz-adv-x="557" 
d="M126 4.5q-49 20.5 -83.5 61.5t-43.5 100l107 41q7 -55 40 -87t88 -32q60 0 102.5 36.5t42.5 95.5q0 45 -34 75t-86 30h-60l17 98h50q59 0 103 32t44 87q0 39 -28.5 63.5t-72.5 24.5q-49 0 -82.5 -26t-47.5 -63l-92 41q25 63 85.5 106.5t148.5 43.5q58 0 104.5 -22.5
t72 -61.5t25.5 -87q0 -61 -31.5 -106t-87.5 -73l-2 -6q37 -20 61.5 -59.5t24.5 -92.5q0 -70 -35.5 -124.5t-96 -85t-134.5 -30.5q-50 0 -99 20.5z" />
    <glyph glyph-name="uni0418" unicode="&#x418;" horiz-adv-x="700" 
d="M133 716h111l-69 -391l-31 -138h6l407 529h132l-127 -716h-111l71 402l30 138h-6l-414 -540h-126z" />
    <glyph glyph-name="uni0419" unicode="&#x419;" horiz-adv-x="700" 
d="M133 716h111l-69 -391l-31 -138h6l407 529h132l-127 -716h-111l71 402l30 138h-6l-414 -540h-126zM331.5 797.5q-33.5 30.5 -33.5 77.5q0 6 2 22h83q-1 -4 -1 -10q0 -17 11 -29t31 -12q22 0 37.5 14t20.5 37h82q-10 -64 -49.5 -97t-100.5 -33q-49 0 -82.5 30.5z" />
    <glyph glyph-name="uni041A" unicode="&#x41a;" horiz-adv-x="648" 
d="M143 716h112l-62 -347h6l340 347h146l-1 -6l-364 -363l251 -341l-1 -6h-139l-239 328h-6l-58 -328h-112z" />
    <glyph glyph-name="uni041B" unicode="&#x41b;" horiz-adv-x="717" 
d="M-41 -4l19 107q11 -5 31 -5q40 0 68 25q23 20 37 62t27 119l73 412h491l-126 -716h-111l107 609h-268l-59 -332q-16 -94 -41.5 -151t-64.5 -90q-29 -23 -62.5 -33.5t-78.5 -10.5q-22 0 -42 4z" />
    <glyph glyph-name="uni041C" unicode="&#x41c;" horiz-adv-x="885" 
d="M143 716h149l111 -543h5l301 543h156l-127 -716h-111l71 401l29 129h-6l-295 -530h-92l-113 530h-6l-17 -129l-71 -401h-111z" />
    <glyph glyph-name="uni041D" unicode="&#x41d;" horiz-adv-x="719" 
d="M143 716h112l-54 -297h332l54 297h111l-127 -716h-111l55 313h-332l-55 -313h-112z" />
    <glyph glyph-name="uni041E" unicode="&#x41e;" horiz-adv-x="833" 
d="M201 25.5q-76 41.5 -119.5 116t-43.5 170.5q0 111 53.5 207.5t150 154.5t219.5 58q94 0 169.5 -42t118.5 -116.5t43 -169.5q0 -111 -53.5 -207.5t-150 -154.5t-218.5 -58q-93 0 -169 41.5zM530.5 134q68.5 43 108 114t39.5 151q0 67 -30 118.5t-82.5 79.5t-116.5 28
q-81 0 -149.5 -42.5t-108 -113.5t-39.5 -151q0 -68 30 -119.5t82 -79.5t116 -28q82 0 150.5 43z" />
    <glyph glyph-name="uni041F" unicode="&#x41f;" horiz-adv-x="696" 
d="M143 716h533l-127 -716h-112l108 609h-310l-107 -609h-112z" />
    <glyph glyph-name="uni0420" unicode="&#x420;" horiz-adv-x="595" 
d="M143 716h239q59 0 106 -24.5t73.5 -69t26.5 -101.5q0 -76 -34.5 -131t-96 -83.5t-140.5 -28.5h-140l-49 -278h-112zM335 384q62 0 101 31.5t39 94.5q0 45 -28 72t-73 27h-139l-39 -225h139z" />
    <glyph glyph-name="uni0421" unicode="&#x421;" horiz-adv-x="747" 
d="M193 24q-73 40 -114.5 114t-41.5 172q0 111 56 208t155 155.5t221 58.5q83 0 149 -33t103 -88l-89 -74q-32 45 -74.5 66.5t-101.5 21.5q-83 0 -153 -42.5t-111.5 -114t-41.5 -152.5q0 -68 28.5 -119t78.5 -78.5t113 -27.5q66 0 118 25.5t104 76.5l72 -81
q-68 -67 -139.5 -97.5t-166.5 -30.5q-92 0 -165 40z" />
    <glyph glyph-name="uni0422" unicode="&#x422;" horiz-adv-x="565" 
d="M269 609h-200l19 107h512l-20 -107h-200l-107 -609h-112z" />
    <glyph glyph-name="uni0423" unicode="&#x423;" horiz-adv-x="615" 
d="M15 2l46 99q19 -13 46 -13q25 0 42 11.5t34 37.5l37 56l-145 523h119l99 -395h6l238 395h129l-391 -620q-37 -59 -79.5 -85.5t-94.5 -26.5q-50 0 -86 18z" />
    <glyph glyph-name="uni0424" unicode="&#x424;" horiz-adv-x="814" 
d="M297 59q-82 10 -142 46.5t-92 94.5t-32 130q0 96 49.5 167t134 111.5t187.5 48.5l19 107h111l-19 -108q124 -15 195 -87.5t71 -182.5q0 -96 -49.5 -167t-133.5 -111.5t-188 -49.5l-19 -106h-111zM383 554q-103 -12 -170.5 -68t-67.5 -147q0 -73 44 -119t126 -58z
M598 229.5q67 55.5 67 145.5q0 74 -44 120t-126 58l-69 -392q105 13 172 68.5z" />
    <glyph glyph-name="uni0425" unicode="&#x425;" horiz-adv-x="664" 
d="M263 376l-169 340h137l115 -253h6l203 253h141l-289 -349l182 -367h-135l-132 273h-6l-224 -273h-138z" />
    <glyph glyph-name="uni0426" unicode="&#x426;" horiz-adv-x="720" 
d="M519 0h-497l126 716h111l-106 -609h297l107 609h112l-108 -609h87l-48 -275h-110z" />
    <glyph glyph-name="uni0427" unicode="&#x427;" horiz-adv-x="597" 
d="M424 316q-36 -28 -75 -42t-95 -14q-54 0 -98.5 21.5t-70.5 64t-26 102.5q0 23 5 56l38 212h113l-39 -216q-2 -13 -2 -32q0 -48 31.5 -75t86.5 -27q86 0 152 66l51 284h112l-127 -716h-112z" />
    <glyph glyph-name="uni0428" unicode="&#x428;" horiz-adv-x="913" 
d="M133 716h112l-108 -609h216l109 609h112l-108 -609h217l107 609h112l-127 -716h-769z" />
    <glyph glyph-name="uni0429" unicode="&#x429;" horiz-adv-x="963" 
d="M748 0h-742l127 716h112l-108 -609h216l109 609h112l-108 -609h217l107 609h112l-108 -609h83l-48 -275h-110z" />
    <glyph glyph-name="uni042A" unicode="&#x42a;" horiz-adv-x="759" 
d="M256 612h-190l19 104h302l-46 -254h133q67 0 119.5 -25t82 -71.5t29.5 -109.5q0 -75 -36.5 -133t-102.5 -90.5t-152 -32.5h-266zM435 105q68 0 111.5 38t43.5 101q0 52 -32.5 83t-87.5 31h-147l-45 -253h157z" />
    <glyph glyph-name="uni042B" unicode="&#x42b;" horiz-adv-x="835" 
d="M133 716h112l-46 -254h133q67 0 119.5 -25t82 -71.5t29.5 -109.5q0 -75 -36.5 -133t-102.5 -90.5t-152 -32.5h-266zM713 716h112l-127 -716h-112zM293 105q68 0 111.5 38t43.5 101q0 52 -32.5 83t-87.5 31h-147l-45 -253h157z" />
    <glyph glyph-name="uni042C" unicode="&#x42c;" horiz-adv-x="617" 
d="M133 716h112l-46 -254h133q67 0 119.5 -25t82 -71.5t29.5 -109.5q0 -75 -36.5 -133t-102.5 -90.5t-152 -32.5h-266zM293 105q68 0 111.5 38t43.5 101q0 52 -32.5 83t-87.5 31h-147l-45 -253h157z" />
    <glyph glyph-name="uni042D" unicode="&#x42d;" horiz-adv-x="729" 
d="M110 22.5q-71 38.5 -114 98.5l88 73q72 -103 201 -103q70 0 129 28.5t100 78t58 110.5h-328l18 100h322q-4 103 -63.5 160t-152.5 57q-58 0 -108 -22.5t-89 -63.5l-76 76q59 58 128.5 87.5t155.5 29.5q94 0 166 -41.5t111.5 -117t39.5 -174.5q0 -111 -53.5 -206
t-149.5 -152t-217 -57q-95 0 -166 38.5z" />
    <glyph glyph-name="uni042E" unicode="&#x42e;" horiz-adv-x="1080" 
d="M460 24q-75 40 -119 113t-46 166v10h-122l-55 -313h-112l127 716h112l-53 -297h116q21 88 78.5 159t143.5 112.5t188 41.5q94 0 169.5 -42t118.5 -116.5t43 -169.5q0 -111 -53.5 -207.5t-150 -154.5t-218.5 -58q-92 0 -167 40zM786.5 134q68.5 43 108.5 114t40 151
q0 67 -30 118.5t-82.5 79.5t-116.5 28q-81 0 -149.5 -42.5t-108.5 -113.5t-40 -151q0 -68 30 -119.5t82.5 -79.5t116.5 -28q81 0 149.5 43z" />
    <glyph glyph-name="uni042F" unicode="&#x42f;" horiz-adv-x="620" 
d="M-31 6l246 283v5q-55 20 -92.5 68.5t-37.5 118.5q0 65 35 119t96.5 85t137.5 31h255l-127 -716h-111l50 280h-79l-238 -280h-136zM439 384l39 227h-139q-42 0 -74 -17t-49 -45t-17 -59q0 -49 30 -77.5t80 -28.5h130z" />
    <glyph glyph-name="uni0430" unicode="&#x430;" horiz-adv-x="543" 
d="M101 4.5q-38 20.5 -60.5 56.5t-22.5 81q0 85 61 135t171 50q37 0 73 -8t65 -21l5 25q3 15 3 24q0 38 -32.5 61.5t-79.5 23.5q-78 0 -128 -60l-79 57q38 47 95 72t124 25q96 0 151 -46t55 -122q0 -21 -5 -53l-54 -305h-108l11 61h-6q-25 -36 -64 -56.5t-91 -20.5
q-46 0 -84 20.5zM320 114q43 39 53 100q-28 15 -55.5 22t-68.5 7q-54 0 -86 -24.5t-32 -68.5q0 -34 24.5 -54.5t61.5 -20.5q60 0 103 39z" />
    <glyph glyph-name="uni0431" unicode="&#x431;" horiz-adv-x="620" 
d="M152.5 17.5q-53.5 33.5 -84 97t-30.5 148.5q0 111 39 203.5t115 156.5q44 37 101 57.5t120 20.5q54 0 73 7t29 25h102q-22 -73 -70 -99.5t-142 -26.5q-49 0 -81 -11.5t-59 -31.5q-32 -24 -54.5 -54t-34.5 -72h5q28 39 74 63.5t111 24.5q61 0 109 -31.5t74.5 -85
t26.5 -115.5q0 -87 -38.5 -157.5t-108 -111.5t-156.5 -41q-67 0 -120.5 33.5zM378.5 112q41.5 27 64 72t22.5 97q0 65 -37.5 104t-94.5 39t-99 -26.5t-64 -70.5t-22 -94q0 -46 19.5 -79.5t51 -51t66.5 -17.5q52 0 93.5 27z" />
    <glyph glyph-name="uni0432" unicode="&#x432;" horiz-adv-x="508" 
d="M81 510h236q68 0 109 -35.5t41 -89.5q0 -43 -24.5 -74.5t-58.5 -45.5l-1 -6q29 -13 47 -38.5t18 -62.5q0 -44 -25 -80.5t-68.5 -57t-95.5 -20.5h-268zM292 303q29 0 48.5 17.5t19.5 45.5q0 24 -15 38.5t-42 14.5h-131l-20 -116h140zM264 93q33 0 55.5 20t22.5 52
q0 24 -16 39.5t-44 15.5h-145l-23 -127h150z" />
    <glyph glyph-name="uni0433" unicode="&#x433;" horiz-adv-x="437" 
d="M81 510h357l-17 -97h-247l-73 -413h-110z" />
    <glyph glyph-name="uni0434" unicode="&#x434;" horiz-adv-x="661" 
d="M0 98h58q26 27 51 91t38 137l32 184h420l-72 -412h77l-44 -250h-102l27 152h-401l-27 -152h-101zM419 98l55 313h-206l-19 -108q-13 -67 -30 -114.5t-44 -90.5h244z" />
    <glyph glyph-name="uni0435" unicode="&#x435;" horiz-adv-x="577" 
d="M123.5 16q-53.5 32 -82 86.5t-28.5 119.5q0 80 37 150t104 112t153 42q68 0 118 -29.5t76 -78.5t26 -107q0 -44 -11 -80h-392q-1 -6 -1 -22q1 -58 39.5 -92t92.5 -34q56 0 93 21t62 63l84 -46q-82 -137 -247 -137q-70 0 -123.5 32zM420 315v8q0 44 -33.5 76t-90.5 32
t-98.5 -33.5t-58.5 -82.5h281z" />
    <glyph glyph-name="uni0436" unicode="&#x436;" horiz-adv-x="757" 
d="M-67 6l258 269l-155 229l2 6h124l141 -220h6l39 220h110l-39 -220h6l217 220h133l-1 -6l-242 -240l160 -258l-2 -6h-126l-147 245h-7l-42 -245h-110l43 245h-6l-230 -245h-133z" />
    <glyph glyph-name="uni0437" unicode="&#x437;" horiz-adv-x="494" 
d="M-11 77l86 65q20 -29 52.5 -45.5t72.5 -16.5q50 0 82.5 18.5t32.5 53.5q0 30 -25 47.5t-71 17.5h-63l14 84h65q48 0 75.5 18.5t27.5 46.5q0 29 -23.5 47.5t-62.5 18.5q-36 0 -63 -11.5t-52 -37.5l-71 61q44 42 91 62t106 20q52 0 93.5 -19.5t64.5 -53.5t23 -76t-25 -71.5
t-60 -41.5l-1 -6q29 -13 47 -40.5t18 -69.5q0 -77 -65.5 -120.5t-167.5 -43.5q-129 0 -201 93z" />
    <glyph glyph-name="uni0438" unicode="&#x438;" horiz-adv-x="570" 
d="M82 510h110l-44 -249l-23 -96h6l295 345h115l-91 -510h-110l44 249l23 96h-6l-295 -345h-114z" />
    <glyph glyph-name="uni0439" unicode="&#x439;" horiz-adv-x="570" 
d="M82 510h110l-44 -249l-23 -96h6l295 345h115l-91 -510h-110l44 249l23 96h-6l-295 -345h-114zM239.5 633.5q-33.5 30.5 -33.5 77.5q0 6 2 22h82q-1 -4 -1 -10q0 -18 11 -30t31 -12q23 0 39 14t20 38h81q-10 -64 -49.5 -97t-99.5 -33q-49 0 -82.5 30.5z" />
    <glyph glyph-name="uni043A" unicode="&#x43a;" horiz-adv-x="520" 
d="M90 510h109l-39 -225h6l225 225h137l-1 -6l-248 -241l170 -257l-1 -6h-128l-160 251h-6l-45 -251h-109z" />
    <glyph glyph-name="uni043B" unicode="&#x43b;" horiz-adv-x="627" 
d="M-22 0l19 98q15 -5 32 -5q22 0 36.5 14.5t25 48.5t21.5 96l45 258h439l-90 -510h-107l72 410h-225l-34 -188q-22 -126 -68 -178t-111 -52q-36 0 -55 8z" />
    <glyph glyph-name="uni043C" unicode="&#x43c;" horiz-adv-x="687" 
d="M78 510h128l104 -307h5l212 307h134l-90 -510h-108l44 243l23 96h-6l-194 -275h-77l-98 275h-6l-11 -96l-43 -243h-107z" />
    <glyph glyph-name="uni043D" unicode="&#x43d;" horiz-adv-x="578" 
d="M81 510h110l-35 -202h245l36 202h110l-91 -510h-110l36 205h-245l-36 -205h-110z" />
    <glyph glyph-name="uni043E" unicode="&#x43e;" horiz-adv-x="600" 
d="M128.5 16q-54.5 32 -84.5 87t-30 122q0 84 38 153t106.5 108.5t157.5 39.5q70 0 124.5 -32t84.5 -87t30 -122q0 -84 -38 -153t-106.5 -108.5t-157.5 -39.5q-70 0 -124.5 32zM355.5 110.5q40.5 25.5 64 69t23.5 95.5q0 65 -38 107t-101 42q-51 0 -91.5 -25t-64 -68.5
t-23.5 -95.5q0 -65 38.5 -107.5t101.5 -42.5q50 0 90.5 25.5z" />
    <glyph glyph-name="uni043F" unicode="&#x43f;" horiz-adv-x="564" 
d="M81 510h452l-91 -510h-110l73 408h-232l-72 -408h-110z" />
    <glyph glyph-name="uni0440" unicode="&#x440;" horiz-adv-x="614" 
d="M95 510h104l-12 -67h6q26 38 69 60.5t103 22.5q59 0 106.5 -30t74.5 -83t27 -121q0 -85 -37.5 -155.5t-104 -111.5t-150.5 -41q-53 0 -95.5 24t-59.5 58h-6l-6 -71l-37 -211h-110zM375 110.5q41 25.5 64 70.5t23 101q0 65 -37.5 103.5t-95.5 38.5q-48 0 -89 -25.5
t-65.5 -71t-24.5 -103.5q0 -62 38 -100.5t95 -38.5q51 0 92 25.5z" />
    <glyph glyph-name="uni0441" unicode="&#x441;" horiz-adv-x="559" 
d="M124 16q-53 32 -82 86.5t-29 119.5q0 82 38 152t107 111t158 41q83 0 138 -41t73 -102l-103 -39q-13 37 -45 58.5t-77 21.5q-49 0 -89.5 -24.5t-64 -68.5t-23.5 -99q0 -63 37 -105t96 -42q48 0 84.5 22.5t58.5 61.5l91 -43q-79 -142 -247 -142q-68 0 -121 32z" />
    <glyph glyph-name="uni0442" unicode="&#x442;" horiz-adv-x="491" 
d="M197 408h-162l18 102h435l-18 -102h-163l-72 -408h-110z" />
    <glyph glyph-name="uni0443" unicode="&#x443;" horiz-adv-x="549" 
d="M172 30l-126 480h120l84 -347h4l202 347h124l-444 -726h-119z" />
    <glyph glyph-name="uni0444" unicode="&#x444;" horiz-adv-x="767" 
d="M281 -12q-74 9 -130.5 43t-87.5 86t-31 112q0 87 44.5 152t122 101t177.5 42l34 192h110l-35 -194q73 -9 128.5 -43.5t86.5 -88t31 -118.5q0 -84 -45.5 -147.5t-123.5 -99t-172 -39.5l-35 -202h-110zM358 423q-95 -6 -156.5 -55.5t-61.5 -128.5q0 -60 43.5 -101.5
t115.5 -50.5zM564 137.5q60 45.5 60 125.5q0 64 -41.5 107.5t-114.5 52.5l-59 -337q95 6 155 51.5z" />
    <glyph glyph-name="uni0445" unicode="&#x445;" horiz-adv-x="513" 
d="M170 263l-130 247h127l81 -166h3l135 166h135l-220 -253l132 -257h-126l-83 173h-4l-140 -173h-134z" />
    <glyph glyph-name="uni0446" unicode="&#x446;" horiz-adv-x="613" 
d="M418 0h-426l89 510h110l-72 -410h232l72 410h110l-72 -410h76l-45 -252h-101z" />
    <glyph glyph-name="uni0447" unicode="&#x447;" horiz-adv-x="522" 
d="M337 185q-56 -27 -129 -27q-76 0 -122.5 43.5t-46.5 115.5q0 16 6 53l25 140h112l-26 -146q-3 -22 -3 -30q0 -37 23.5 -56.5t65.5 -19.5q73 0 114 34l38 218h110l-91 -510h-110z" />
    <glyph glyph-name="uni0448" unicode="&#x448;" horiz-adv-x="799" 
d="M81 510h109l-73 -410h171l73 410h109l-73 -410h171l72 410h109l-90 -510h-668z" />
    <glyph glyph-name="uni0449" unicode="&#x449;" horiz-adv-x="848" 
d="M634 0h-642l89 510h109l-72 -410h171l72 410h109l-72 -410h170l72 410h109l-72 -410h76l-44 -252h-102z" />
    <glyph glyph-name="uni044A" unicode="&#x44a;" horiz-adv-x="602" 
d="M161 417h-123l17 93h230l-31 -173h121q79 0 127.5 -41.5t48.5 -111.5q0 -82 -56.5 -133t-159.5 -51h-248zM349 93q42 0 68 22.5t26 61.5q0 30 -21.5 48.5t-56.5 18.5h-127l-27 -151h138z" />
    <glyph glyph-name="uni044B" unicode="&#x44b;" horiz-adv-x="715" 
d="M81 510h107l-31 -173h122q78 0 126.5 -41.5t48.5 -111.5q0 -82 -56.5 -133t-158.5 -51h-248zM578 510h107l-91 -510h-107zM252 93q42 0 68 22.5t26 61.5q0 30 -21.5 48.5t-56.5 18.5h-127l-27 -151h138z" />
    <glyph glyph-name="uni044C" unicode="&#x44c;" horiz-adv-x="509" 
d="M81 510h107l-31 -173h122q78 0 126.5 -41.5t48.5 -111.5q0 -82 -56.5 -133t-158.5 -51h-248zM252 93q42 0 68 22.5t26 61.5q0 30 -21.5 48.5t-56.5 18.5h-127l-27 -151h138z" />
    <glyph glyph-name="uni044D" unicode="&#x44d;" horiz-adv-x="539" 
d="M59 24.5q-56 40.5 -74 101.5l95 36q34 -83 128 -83q62 0 110.5 38.5t65.5 94.5h-212l15 84h206q-4 65 -41.5 99.5t-89.5 34.5q-50 0 -87 -23t-60 -62l-86 43q34 64 95.5 101t143.5 37q66 0 118 -29t81.5 -83.5t29.5 -126.5q0 -81 -38.5 -150.5t-106.5 -111t-153 -41.5
q-84 0 -140 40.5z" />
    <glyph glyph-name="uni044E" unicode="&#x44e;" horiz-adv-x="803" 
d="M346.5 13q-52.5 29 -83.5 79t-36 113h-82l-36 -205h-110l90 510h110l-37 -202h76q25 98 103 158t188 60q70 0 124 -32t84 -87t30 -122q0 -84 -38 -153t-106.5 -108.5t-157.5 -39.5q-66 0 -118.5 29zM568 110.5q41 25.5 64.5 69t23.5 95.5q0 65 -38.5 107t-100.5 42
q-51 0 -91.5 -25t-64 -68.5t-23.5 -95.5q0 -65 38.5 -107.5t100.5 -42.5q50 0 91 25.5z" />
    <glyph glyph-name="uni044F" unicode="&#x44f;" horiz-adv-x="497" 
d="M-62 7l162 176l-1 5q-37 14 -63 50.5t-26 87.5q0 48 25.5 90t72.5 68t109 26h251l-91 -510h-106l31 176h-83l-156 -176h-126zM318 266l27 151h-131q-43 0 -69 -25t-26 -59q0 -31 21 -49t54 -18h124z" />
    <glyph glyph-name="uni0450" unicode="&#x450;" horiz-adv-x="577" 
d="M123.5 16q-53.5 32 -82 86.5t-28.5 119.5q0 80 37 150t104 112t153 42q68 0 118 -29.5t76 -78.5t26 -107q0 -44 -11 -80h-392q-1 -6 -1 -22q1 -58 39.5 -92t92.5 -34q56 0 93 21t62 63l84 -46q-82 -137 -247 -137q-70 0 -123.5 32zM420 315v8q0 44 -33.5 76t-90.5 32
t-98.5 -33.5t-58.5 -82.5h281zM223 739h121l24 -131h-89z" />
    <glyph glyph-name="uni0451" unicode="&#x451;" horiz-adv-x="577" 
d="M123.5 16q-53.5 32 -82 86.5t-28.5 119.5q0 80 37 150t104 112t153 42q68 0 118 -29.5t76 -78.5t26 -107q0 -44 -11 -80h-392q-1 -6 -1 -22q1 -58 39.5 -92t92.5 -34q56 0 93 21t62 63l84 -46q-82 -137 -247 -137q-70 0 -123.5 32zM420 315v8q0 44 -33.5 76t-90.5 32
t-98.5 -33.5t-58.5 -82.5h281zM199.5 634q-18.5 19 -18.5 45q0 27 18.5 45t44.5 18q28 0 46 -18t18 -45t-18.5 -45.5t-45.5 -18.5q-26 0 -44.5 19zM378 634q-19 19 -19 45q0 27 19 45t45 18q27 0 45.5 -18t18.5 -45q0 -26 -18.5 -45t-45.5 -19q-26 0 -45 19z" />
    <glyph glyph-name="uni0452" unicode="&#x452;" horiz-adv-x="565" 
d="M222 -222.5q-19 3.5 -33 8.5l41 96q13 -7 31 -7q54 0 64 60l65 364q5 27 5 44q0 37 -26 59t-68 22q-59 0 -99 -42t-53 -113l-49 -269h-110l102 576h-62l15 81h60l11 59h110l-11 -59h141l-15 -81h-140l-9 -55l-20 -78h6q26 39 68.5 61t97.5 22q77 0 120.5 -42.5
t43.5 -111.5q0 -33 -7 -67l-66 -372q-15 -86 -59.5 -122.5t-117.5 -36.5q-17 0 -36 3.5z" />
    <glyph glyph-name="uni0453" unicode="&#x453;" horiz-adv-x="437" 
d="M81 510h357l-17 -97h-247l-73 -413h-110zM301 739h126l-103 -131h-94z" />
    <glyph glyph-name="uni0454" unicode="&#x454;" horiz-adv-x="534" 
d="M111.5 16q-51.5 32 -79.5 86t-28 118q0 84 38 154t107 111t157 41q83 0 133 -39.5t68 -101.5l-97 -38q-11 38 -40.5 60.5t-75.5 22.5q-61 0 -108 -36.5t-65 -97.5h218l-14 -84h-214q5 -58 40.5 -95.5t93.5 -37.5q95 0 140 87l84 -40q-39 -72 -96 -107t-143 -35
q-67 0 -118.5 32z" />
    <glyph glyph-name="uni0455" unicode="&#x455;" horiz-adv-x="483" 
d="M60.5 23q-55.5 39 -72.5 101l103 42q9 -41 42.5 -62.5t76.5 -21.5q40 0 66.5 18t26.5 46q0 27 -18.5 44t-57.5 26l-52 13q-59 16 -96 51t-37 88q0 46 26.5 82t74.5 56t109 20q71 0 122 -31.5t71 -85.5l-102 -39q-11 29 -37.5 45.5t-62.5 16.5q-41 0 -65 -16t-24 -41
q0 -18 17 -33.5t46 -23.5l70 -17q61 -15 95 -53t34 -91q0 -78 -57.5 -125.5t-158.5 -47.5q-84 0 -139.5 39z" />
    <glyph glyph-name="uni0456" unicode="&#x456;" horiz-adv-x="255" 
d="M124.5 604.5q-21.5 21.5 -21.5 52.5t21.5 52.5t52.5 21.5t52.5 -21.5t21.5 -52.5t-21.5 -52.5t-52.5 -21.5t-52.5 21.5zM95 510h110l-89 -510h-110z" />
    <glyph glyph-name="uni0457" unicode="&#x457;" horiz-adv-x="237" 
d="M51.5 635q-18.5 19 -18.5 44q0 26 18.5 44t43.5 18q27 0 45 -18t18 -44t-18 -44.5t-45 -18.5q-25 0 -43.5 19zM202.5 635q-18.5 19 -18.5 44q0 26 18.5 44t43.5 18q27 0 45 -18t18 -44t-18 -44.5t-45 -18.5q-25 0 -43.5 19zM95 510h110l-89 -510h-110z" />
    <glyph glyph-name="uni0458" unicode="&#x458;" horiz-adv-x="256" 
d="M126.5 600.5q-21.5 21.5 -21.5 51.5q0 31 21.5 52.5t52.5 21.5t52.5 -21.5t21.5 -52.5q0 -30 -21.5 -51.5t-52.5 -21.5t-52.5 21.5zM-130 -218l18 103q17 -10 46 -10t43 16t20 47l101 572h110l-101 -577q-16 -90 -60 -124.5t-117 -34.5q-32 0 -60 8z" />
    <glyph glyph-name="uni0459" unicode="&#x459;" horiz-adv-x="915" 
d="M-24 0l19 98q15 -5 31 -5q32 0 49.5 30.5t30.5 103.5l50 283h438l-32 -182h126q75 0 122.5 -41t47.5 -107q0 -85 -55.5 -132.5t-150.5 -47.5h-255l73 410h-225l-35 -193q-21 -122 -67 -173.5t-112 -51.5q-35 0 -55 8zM664 93q37 0 61.5 20.5t24.5 55.5q0 29 -19.5 47.5
t-50.5 18.5h-135l-24 -142h143z" />
    <glyph glyph-name="uni045A" unicode="&#x45a;" horiz-adv-x="849" 
d="M81 510h110l-32 -182h215l32 182h110l-32 -182h135q77 0 124.5 -41.5t47.5 -111.5q0 -80 -56.5 -127.5t-149.5 -47.5h-269l41 235h-215l-41 -235h-110zM598 93q36 0 60.5 20t24.5 57q0 29 -19.5 47t-51.5 18h-145l-25 -142h156z" />
    <glyph glyph-name="uni045B" unicode="&#x45b;" horiz-adv-x="565" 
d="M92 576h-62l15 81h60l11 59h110l-11 -59h141l-15 -81h-140l-9 -55l-20 -78h6q26 39 68.5 61t97.5 22q77 0 120.5 -42.5t43.5 -111.5q0 -33 -7 -67l-54 -305h-110l53 299q5 27 5 44q0 37 -26 59t-68 22q-59 0 -99 -42t-53 -113l-49 -269h-110z" />
    <glyph glyph-name="uni045C" unicode="&#x45c;" horiz-adv-x="520" 
d="M90 510h109l-39 -225h6l225 225h137l-1 -6l-248 -241l170 -257l-1 -6h-128l-160 251h-6l-45 -251h-109zM339 739h126l-103 -131h-94z" />
    <glyph glyph-name="uni045D" unicode="&#x45d;" horiz-adv-x="570" 
d="M82 510h110l-44 -249l-23 -96h6l295 345h115l-91 -510h-110l44 249l23 96h-6l-295 -345h-114zM222 739h121l24 -131h-89z" />
    <glyph glyph-name="uni045E" unicode="&#x45e;" horiz-adv-x="549" 
d="M172 30l-126 480h120l84 -347h4l202 347h124l-444 -726h-119zM240.5 633.5q-33.5 30.5 -33.5 77.5q0 6 2 22h82q-1 -4 -1 -10q0 -18 11 -30t31 -12q23 0 39 14t20 38h81q-10 -64 -49.5 -97t-99.5 -33q-49 0 -82.5 30.5z" />
    <glyph glyph-name="uni045F" unicode="&#x45f;" horiz-adv-x="577" 
d="M173 0h-181l89 510h110l-72 -409h246l71 409h110l-89 -510h-182l-27 -152h-102z" />
    <glyph glyph-name="uni0490" unicode="&#x490;" horiz-adv-x="529" 
d="M127 716h323l20 117h109l-39 -224h-321l-107 -609h-111z" />
    <glyph glyph-name="uni0491" unicode="&#x491;" horiz-adv-x="433" 
d="M81 510h253l18 102h100l-35 -199h-243l-72 -413h-110z" />
    <glyph glyph-name="uni04AE" unicode="&#x4ae;" horiz-adv-x="619" 
d="M249 333l-173 383h129l114 -266h6l204 266h137l-305 -383l-59 -333h-112z" />
    <glyph glyph-name="uni04AF" unicode="&#x4af;" horiz-adv-x="534" 
d="M146 1l-117 511h117l77 -382l210 380h122l-299 -509l-38 -217h-110z" />
    <glyph glyph-name="uni04B0" unicode="&#x4b0;" horiz-adv-x="614" 
d="M236 270h-174l15 84h160l-163 362h130l113 -266h6l204 266h136l-288 -362h161l-15 -84h-173l-49 -270h-111z" />
    <glyph glyph-name="uni04B1" unicode="&#x4b1;" horiz-adv-x="533" 
d="M158 0h-143l14 79h113l-9 35l-91 396h117l77 -380l210 380h121l-231 -396l-22 -35h112l-14 -79h-144l-38 -216h-110z" />
    <glyph glyph-name="uni0E3F" unicode="&#xe3f;" horiz-adv-x="599" 
d="M194 0h-186l121 684h185l18 100h82l-18 -100q75 -2 125.5 -46.5t50.5 -118.5q0 -59 -34.5 -102.5t-86.5 -59.5l-2 -5q41 -18 66 -53.5t25 -83.5q0 -62 -33 -111t-91.5 -76.5t-131.5 -27.5h-8l-17 -100h-82zM264 399l32 183h-75l-33 -183h76zM429 426q32 26 32 73
q0 39 -21.5 60.5t-61.5 22.5l-32 -183q51 1 83 27zM212 103l35 198h-76l-35 -198h76zM305 103q54 0 89.5 30t35.5 80q0 39 -24 63.5t-69 24.5h-8l-35 -198h11z" />
    <glyph glyph-name="Wgrave" unicode="&#x1e80;" horiz-adv-x="965" 
d="M79 716h123l30 -461l2 -62h6l26 62l222 461h114l55 -461l4 -61h6l23 61l193 461h126l-312 -716h-119l-56 472l-5 64h-6l-27 -64l-224 -472h-116zM448 904h121l24 -132h-89z" />
    <glyph glyph-name="wgrave" unicode="&#x1e81;" horiz-adv-x="807" 
d="M32 510h116l39 -365h4l178 365h117l51 -365h4l164 365h120l-250 -510h-120l-50 366h-3l-181 -366h-115zM341 739h121l24 -131h-89z" />
    <glyph glyph-name="Wacute" unicode="&#x1e82;" horiz-adv-x="965" 
d="M79 716h123l30 -461l2 -62h6l26 62l222 461h114l55 -461l4 -61h6l23 61l193 461h126l-312 -716h-119l-56 472l-5 64h-6l-27 -64l-224 -472h-116zM578 904h126l-104 -132h-93z" />
    <glyph glyph-name="wacute" unicode="&#x1e83;" horiz-adv-x="807" 
d="M32 510h116l39 -365h4l178 365h117l51 -365h4l164 365h120l-250 -510h-120l-50 366h-3l-181 -366h-115zM463 739h126l-103 -131h-94z" />
    <glyph glyph-name="Wdieresis" unicode="&#x1e84;" horiz-adv-x="965" 
d="M79 716h123l30 -461l2 -62h6l26 62l222 461h114l55 -461l4 -61h6l23 61l193 461h126l-312 -716h-119l-56 472l-5 64h-6l-27 -64l-224 -472h-116zM431 798q-19 19 -19 45q0 27 19 45.5t45 18.5q27 0 45.5 -18.5t18.5 -45.5q0 -26 -18.5 -45t-45.5 -19q-26 0 -45 19z
M610 798q-19 19 -19 45q0 27 18.5 45.5t44.5 18.5q28 0 46 -18.5t18 -45.5q0 -26 -18.5 -45t-45.5 -19q-25 0 -44 19z" />
    <glyph glyph-name="wdieresis" unicode="&#x1e85;" horiz-adv-x="807" 
d="M32 510h116l39 -365h4l178 365h117l51 -365h4l164 365h120l-250 -510h-120l-50 366h-3l-181 -366h-115zM317.5 634q-18.5 19 -18.5 45q0 27 18.5 45t44.5 18q28 0 46 -18t18 -45t-18.5 -45.5t-45.5 -18.5q-26 0 -44.5 19zM496 634q-19 19 -19 45q0 27 19 45t45 18
q27 0 45.5 -18t18.5 -45q0 -26 -18.5 -45t-45.5 -19q-26 0 -45 19z" />
    <glyph glyph-name="Ygrave" unicode="&#x1ef2;" horiz-adv-x="619" 
d="M249 333l-173 383h129l114 -266h6l204 266h137l-305 -383l-59 -333h-112zM263 904h121l24 -132h-89z" />
    <glyph glyph-name="ygrave" unicode="&#x1ef3;" horiz-adv-x="549" 
d="M172 30l-126 480h120l84 -347h4l202 347h124l-444 -726h-119zM223 739h121l24 -131h-89z" />
    <glyph glyph-name="uni2000" unicode="&#x2000;" horiz-adv-x="415" 
 />
    <glyph glyph-name="uni2001" unicode="&#x2001;" horiz-adv-x="830" 
 />
    <glyph glyph-name="uni2002" unicode="&#x2002;" horiz-adv-x="415" 
 />
    <glyph glyph-name="uni2003" unicode="&#x2003;" horiz-adv-x="830" 
 />
    <glyph glyph-name="uni2004" unicode="&#x2004;" horiz-adv-x="275" 
 />
    <glyph glyph-name="uni2005" unicode="&#x2005;" horiz-adv-x="207" 
 />
    <glyph glyph-name="uni2006" unicode="&#x2006;" horiz-adv-x="138" 
 />
    <glyph glyph-name="uni2007" unicode="&#x2007;" 
 />
    <glyph glyph-name="uni2008" unicode="&#x2008;" horiz-adv-x="232" 
 />
    <glyph glyph-name="uni2009" unicode="&#x2009;" horiz-adv-x="138" 
 />
    <glyph glyph-name="uni200A" unicode="&#x200a;" horiz-adv-x="70" 
 />
    <glyph glyph-name="endash" unicode="&#x2013;" horiz-adv-x="601" 
d="M545 357l-16 -94h-489l16 94h489z" />
    <glyph glyph-name="emdash" unicode="&#x2014;" horiz-adv-x="904" 
d="M848 357l-16 -94h-792l16 94h792z" />
    <glyph glyph-name="uni2015" unicode="&#x2015;" horiz-adv-x="1039" 
d="M988 357l-16 -94h-927l16 94h927z" />
    <glyph glyph-name="quoteleft" unicode="&#x2018;" horiz-adv-x="249" 
d="M184 621q17 -8 30.5 -26t13.5 -44q0 -33 -22.5 -55t-53.5 -22q-32 0 -54.5 22t-22.5 55q0 16 9.5 33.5t27.5 40.5l90 107l45 -37z" />
    <glyph glyph-name="quoteright" unicode="&#x2019;" horiz-adv-x="249" 
d="M140 585q-18 9 -31 26.5t-13 43.5q0 33 22.5 55t53.5 22q32 0 54.5 -22t22.5 -55q0 -16 -9.5 -33.5t-27.5 -39.5l-90 -108l-44 37z" />
    <glyph glyph-name="quotesinglbase" unicode="&#x201a;" horiz-adv-x="249" 
d="M47 0q-18 7 -31.5 25t-13.5 44q0 33 22.5 55t53.5 22q32 0 54.5 -22t22.5 -55q0 -29 -37 -73l-90 -108l-44 37z" />
    <glyph glyph-name="quotedblleft" unicode="&#x201c;" horiz-adv-x="445" 
d="M184 621q17 -8 30.5 -26t13.5 -44q0 -33 -22.5 -55t-53.5 -22q-32 0 -54.5 22t-22.5 55q0 16 9.5 33.5t27.5 40.5l90 107l45 -37zM380 621q17 -8 30.5 -26t13.5 -44q0 -33 -22.5 -55t-53.5 -22q-32 0 -54.5 22t-22.5 55q0 16 9.5 33.5t27.5 40.5l90 107l45 -37z" />
    <glyph glyph-name="quotedblright" unicode="&#x201d;" horiz-adv-x="445" 
d="M149 586q-18 7 -31.5 25t-13.5 44q0 33 22.5 55t53.5 22q32 0 54.5 -22t22.5 -55q0 -29 -37 -73l-90 -108l-44 37zM345 586q-18 7 -31.5 25t-13.5 44q0 33 22.5 55t53.5 22q32 0 54.5 -22t22.5 -55q0 -29 -37 -73l-90 -108l-44 37z" />
    <glyph glyph-name="quotedblbase" unicode="&#x201e;" horiz-adv-x="441" 
d="M47 0q-18 7 -31.5 25t-13.5 44q0 33 22.5 55t53.5 22q32 0 54.5 -22t22.5 -55q0 -29 -37 -73l-90 -108l-44 37zM238 0q-18 7 -31.5 25t-13.5 44q0 33 22.5 55t53.5 22q32 0 54.5 -22t22.5 -55q0 -29 -37 -73l-90 -108l-44 37z" />
    <glyph glyph-name="dagger" unicode="&#x2020;" horiz-adv-x="453" 
d="M213 579l25 137h103l-24 -137h142l-16 -94h-143l-58 -327h-103l58 327h-143l17 94h142z" />
    <glyph glyph-name="daggerdbl" unicode="&#x2021;" horiz-adv-x="453" 
d="M213 579l25 137h103l-24 -137h142l-16 -94h-143l-42 -238h143l-17 -94h-143l-27 -153h-103l27 153h-142l16 94h143l42 238h-143l17 94h142z" />
    <glyph glyph-name="bullet" unicode="&#x2022;" horiz-adv-x="410" 
d="M110.5 235.5q-36.5 36.5 -36.5 88.5t36.5 88.5t88.5 36.5t88.5 -36.5t36.5 -88.5t-36.5 -88.5t-88.5 -36.5t-88.5 36.5z" />
    <glyph glyph-name="ellipsis" unicode="&#x2026;" horiz-adv-x="726" 
d="M20 16.5q-22 22.5 -22 54.5t22.5 54t53.5 22q32 0 54.5 -22t22.5 -54t-22.5 -54.5t-54.5 -22.5t-54 22.5zM258 16.5q-22 22.5 -22 54.5t22.5 54t53.5 22q32 0 54.5 -22t22.5 -54t-22.5 -54.5t-54.5 -22.5t-54 22.5zM497 16.5q-22 22.5 -22 54.5t22.5 54t53.5 22
q32 0 54.5 -22t22.5 -54t-22.5 -54.5t-54.5 -22.5t-54 22.5z" />
    <glyph glyph-name="perthousand" unicode="&#x2030;" horiz-adv-x="1093" 
d="M103 400q-43 42 -43 108q0 52 26 96t72 70t103 26q66 0 108.5 -42.5t42.5 -107.5q0 -53 -26 -97t-71.5 -69.5t-100.5 -25.5q-68 0 -111 42zM101 36l562 660l58 -49l-561 -660zM293 469.5q28 29.5 28 73.5q0 34 -20 54.5t-51 20.5q-43 0 -71 -29t-28 -73q0 -34 20.5 -55
t51.5 -21q42 0 70 29.5zM453 26q-43 42 -43 108q0 52 26 96t72 70t103 26q39 0 70.5 -18.5t48.5 -51.5q22 31 62.5 50.5t83.5 19.5q67 0 109.5 -42.5t42.5 -107.5q0 -53 -26.5 -97t-71.5 -69.5t-100 -25.5q-39 0 -72 19.5t-51 50.5q-24 -31 -61 -50.5t-81 -19.5
q-69 0 -112 42zM644 95.5q28 29.5 28 73.5q0 34 -20 54.5t-51 20.5q-44 0 -72 -29t-28 -73q0 -34 20.5 -55t51.5 -21q43 0 71 29.5zM909 95.5q28 29.5 28 73.5q0 34 -20 54.5t-51 20.5q-43 0 -71.5 -29t-28.5 -73q0 -34 21 -55t52 -21q42 0 70 29.5z" />
    <glyph glyph-name="uni2031" unicode="&#x2031;" horiz-adv-x="1359" 
d="M103 400q-43 42 -43 108q0 52 26 96t72 70t103 26q66 0 108.5 -42.5t42.5 -107.5q0 -53 -26 -97t-71.5 -69.5t-100.5 -25.5q-68 0 -111 42zM101 36l562 660l58 -49l-561 -660zM293 469.5q28 29.5 28 73.5q0 34 -20 54.5t-51 20.5q-43 0 -71 -29t-28 -73q0 -34 20.5 -55
t51.5 -21q42 0 70 29.5zM453 26q-43 42 -43 108q0 52 26 96t72 70t103 26q39 0 70.5 -18.5t48.5 -51.5q22 31 62.5 50.5t83.5 19.5q40 0 70.5 -18.5t48.5 -51.5q22 31 62.5 50.5t84.5 19.5q66 0 108.5 -42.5t42.5 -107.5q0 -53 -26 -97t-71.5 -69.5t-100.5 -25.5
q-39 0 -72 19.5t-50 50.5q-24 -31 -61.5 -50.5t-81.5 -19.5q-39 0 -72 19.5t-51 50.5q-24 -31 -61 -50.5t-81 -19.5q-69 0 -112 42zM644 95.5q28 29.5 28 73.5q0 34 -20 54.5t-51 20.5q-44 0 -72 -29t-28 -73q0 -34 20.5 -55t51.5 -21q43 0 71 29.5zM909 95.5
q28 29.5 28 73.5q0 34 -20 54.5t-51 20.5q-43 0 -71.5 -29t-28.5 -73q0 -34 21 -55t52 -21q42 0 70 29.5zM1174 95.5q28 29.5 28 73.5q0 34 -20 54.5t-51 20.5q-43 0 -71 -29t-28 -73q0 -34 20.5 -55t51.5 -21q42 0 70 29.5z" />
    <glyph glyph-name="guilsinglleft" unicode="&#x2039;" horiz-adv-x="370" 
d="M188 47l-167 224l246 224l56 -63l-184 -167l120 -162z" />
    <glyph glyph-name="guilsinglright" unicode="&#x203a;" horiz-adv-x="370" 
d="M148 495l167 -224l-246 -224l-56 63l184 167l-120 162z" />
    <glyph glyph-name="exclamdbl" unicode="&#x203c;" horiz-adv-x="473" 
d="M94 499l38 217h112l-39 -217l-58 -266h-89zM20.5 16.5q-22.5 22.5 -22.5 54.5t22.5 54t54.5 22t54.5 -22t22.5 -54t-22.5 -54.5t-54.5 -22.5t-54.5 22.5zM317 499l38 217h112l-39 -217l-58 -266h-89zM243.5 16.5q-22.5 22.5 -22.5 54.5t22.5 54t54.5 22t54.5 -22
t22.5 -54t-22.5 -54.5t-54.5 -22.5t-54.5 22.5z" />
    <glyph glyph-name="uni2042" unicode="&#x2042;" horiz-adv-x="893" 
d="M323 433l86 94l-1 8l-95 35l34 77l99 -37l5 3l19 108h82l-19 -108l5 -3l100 35l26 -75l-114 -42l-4 -8l51 -89l-72 -46l-53 93h-7l-82 -94zM19 31l86 94l-1 8l-95 35l34 77l98 -37l6 3l19 108h82l-19 -108l5 -3l100 35l26 -75l-114 -42l-4 -8l51 -89l-72 -46l-53 93h-7
l-83 -94zM484 31l87 94l-1 8l-96 35l34 77l99 -37l6 3l19 108h82l-19 -108l4 -3l101 35l26 -75l-115 -42l-4 -8l52 -89l-73 -46l-52 93h-7l-83 -94z" />
    <glyph glyph-name="uni2043" unicode="&#x2043;" horiz-adv-x="407" 
d="M335 361l-17 -102h-264l18 102h263z" />
    <glyph glyph-name="fraction" unicode="&#x2044;" horiz-adv-x="180" 
d="M354 727l61 -47l-588 -692l-63 48z" />
    <glyph glyph-name="uni2047" unicode="&#x2047;" horiz-adv-x="964" 
d="M174 274q9 49 32.5 81.5t83.5 76.5q40 29 63.5 56t23.5 60q0 36 -25.5 58t-67.5 22q-45 0 -75 -25.5t-43 -64.5l-93 42q23 66 81.5 109t144.5 43q55 0 98 -22t67.5 -60t24.5 -85q0 -58 -32 -100.5t-94 -90.5q-38 -30 -55.5 -54.5t-23.5 -57.5l-6 -29h-111zM138.5 16.5
q-22.5 22.5 -22.5 54.5t22.5 54t54.5 22t54 -22t22 -54t-22 -54.5t-54 -22.5t-54.5 22.5zM636 274q9 49 32.5 81.5t83.5 76.5q40 29 63.5 56t23.5 60q0 36 -25.5 58t-67.5 22q-45 0 -75 -25.5t-43 -64.5l-93 42q23 66 81.5 109t144.5 43q55 0 98 -22t67.5 -60t24.5 -85
q0 -58 -32 -100.5t-94 -90.5q-38 -30 -55.5 -54.5t-23.5 -57.5l-6 -29h-111zM600.5 16.5q-22.5 22.5 -22.5 54.5t22.5 54t54.5 22t54 -22t22 -54t-22 -54.5t-54 -22.5t-54.5 22.5z" />
    <glyph glyph-name="uni2048" unicode="&#x2048;" horiz-adv-x="715" 
d="M174 274q9 49 32.5 81.5t83.5 76.5q40 29 63.5 56t23.5 60q0 36 -25.5 58t-67.5 22q-45 0 -75 -25.5t-43 -64.5l-93 42q23 66 81.5 109t144.5 43q55 0 98 -22t67.5 -60t24.5 -85q0 -58 -32 -100.5t-94 -90.5q-38 -30 -55.5 -54.5t-23.5 -57.5l-6 -29h-111zM138.5 16.5
q-22.5 22.5 -22.5 54.5t22.5 54t54.5 22t54 -22t22 -54t-22 -54.5t-54 -22.5t-54.5 22.5zM560 499l38 217h112l-39 -217l-58 -266h-89zM486.5 16.5q-22.5 22.5 -22.5 54.5t22.5 54t54.5 22t54.5 -22t22.5 -54t-22.5 -54.5t-54.5 -22.5t-54.5 22.5z" />
    <glyph glyph-name="uni2049" unicode="&#x2049;" horiz-adv-x="717" 
d="M388 274q9 49 32.5 81.5t83.5 76.5q40 29 63.5 56t23.5 60q0 36 -25.5 58t-67.5 22q-45 0 -75 -25.5t-43 -64.5l-93 42q23 66 81.5 109t144.5 43q55 0 98 -22t67.5 -60t24.5 -85q0 -58 -32 -100.5t-94 -90.5q-38 -30 -55.5 -54.5t-23.5 -57.5l-6 -29h-111zM352.5 16.5
q-22.5 22.5 -22.5 54.5t22.5 54t54.5 22t54 -22t22 -54t-22 -54.5t-54 -22.5t-54.5 22.5zM94 499l38 217h112l-39 -217l-58 -266h-89zM20.5 16.5q-22.5 22.5 -22.5 54.5t22.5 54t54.5 22t54.5 -22t22.5 -54t-22.5 -54.5t-54.5 -22.5t-54.5 22.5z" />
    <glyph glyph-name="uni204E" unicode="&#x204e;" horiz-adv-x="413" 
d="M14 41l95 102l-2 8l-98 37l32 77l103 -39l7 2l21 117h84l-20 -117l6 -2l104 36l26 -78l-117 -43l-4 -7l57 -99l-77 -48l-57 101h-7l-90 -101z" />
    <glyph glyph-name="uni2051" unicode="&#x2051;" horiz-adv-x="427" 
d="M89 433l87 94l-1 8l-96 35l34 77l99 -37l6 3l19 108h82l-19 -108l4 -3l101 35l26 -75l-115 -42l-4 -8l52 -89l-73 -46l-52 93h-7l-83 -94zM19 33l86 94l-1 8l-95 35l34 77l98 -38l6 3l19 109h82l-19 -109l5 -3l100 36l26 -75l-114 -42l-4 -8l51 -90l-72 -45l-53 93h-7
l-83 -94z" />
    <glyph glyph-name="uni2055" unicode="&#x2055;" horiz-adv-x="670" 
d="M291 220l-122 -122l-62 62l123 121h-174v88h174l-123 121l62 62l122 -122v174h88v-174l122 122l62 -62l-123 -121h174v-88h-174l123 -121l-62 -62l-122 122v-174h-88v174z" />
    <glyph glyph-name="uni2074" unicode="&#x2074;" horiz-adv-x="353" 
d="M208 419h-172l10 55l215 242h77l-41 -231h48l-12 -66h-48l-12 -69h-77zM220 485l20 116h-6l-102 -116h88z" />
    <glyph glyph-name="franc" unicode="&#x20a3;" horiz-adv-x="559" 
d="M53 114h-72l14 76h71l88 494h426l-18 -101h-320l-35 -199h289l-18 -100h-288l-17 -94h132l-14 -76h-132l-20 -114h-106z" />
    <glyph glyph-name="lira" unicode="&#x20a4;" horiz-adv-x="532" 
d="M-10 92q74 32 106 85h-95l12 76h106v5q-1 28 -9 68h-84l13 76h47q-11 42 -11 82q0 57 29.5 106.5t83.5 79.5t123 30q81 0 128 -42t64 -103l-106 -40q-8 38 -32 61t-66 23q-52 0 -84 -33.5t-32 -83.5q0 -39 11 -80h160l-13 -76h-128q6 -38 6 -62q0 -6 -1 -11h110l-13 -76
h-117q-20 -38 -62 -71l3 -5h165q32 0 53 14.5t36 43.5l81 -38q-29 -61 -72.5 -91t-113.5 -30h-314z" />
    <glyph glyph-name="uni20A9" unicode="&#x20a9;" horiz-adv-x="987" 
d="M134 326h-108l13 76h88l-25 282h118l19 -282h119l135 282h116l35 -282h117l119 282h120l-124 -282h83l-13 -76h-103l-142 -326h-114l-39 326h-117l-156 -326h-112zM539 402l-11 122h-6l-54 -122h71zM257 183l65 143h-78l8 -143h5zM672 184l57 142h-76l13 -142h6z" />
    <glyph glyph-name="dong" unicode="&#x20ab;" horiz-adv-x="577" 
d="M104.5 10q-45.5 26 -72.5 76t-27 117q0 76 34.5 142t95.5 105.5t139 39.5q55 0 94 -23t57 -57h6l6 69l10 60h-139l12 74h140l13 71h110l-13 -71h62l-13 -74h-62l-95 -539h-104l11 64h-6q-24 -35 -65.5 -57.5t-92.5 -22.5q-55 0 -100.5 26zM324.5 110.5q37.5 25.5 58 66.5
t20.5 86q0 60 -34 93t-86 33q-48 0 -86 -24t-59.5 -65t-21.5 -89q0 -60 35.5 -93t87.5 -33q48 0 85.5 25.5zM-10 -84h458l-16 -85h-457z" />
    <glyph glyph-name="Euro" unicode="&#x20ac;" horiz-adv-x="640" 
d="M199.5 46.5q-77.5 62.5 -98.5 173.5h-100l14 84h80q0 34 8 76h-75l15 84h87q47 105 144 170.5t225 65.5q87 0 154 -46l-60 -90q-44 31 -111 31q-74 0 -134 -35.5t-96 -95.5h221l-15 -84h-242q-9 -37 -9 -76h238l-15 -84h-210q19 -65 68 -98t111 -33q35 0 65 8t61 25
l42 -91q-41 -24 -85 -35.5t-96 -11.5q-109 0 -186.5 62.5z" />
    <glyph glyph-name="uni20AE" unicode="&#x20ae;" horiz-adv-x="540" 
d="M174 117l-134 -76h-4l19 101l136 77l14 78l-137 -78l18 104l138 77l32 183h-193l18 101h492l-18 -101h-193l-21 -122l134 76h3l-18 -101l-137 -78l-14 -78l138 80l-18 -104l-138 -78l-32 -178h-106z" />
    <glyph glyph-name="uni20B1" unicode="&#x20b1;" horiz-adv-x="644" 
d="M113 438h-76l14 76h75l31 170h227q86 0 143 -46.5t64 -123.5h65l-14 -76h-56q-20 -81 -90 -126t-166 -45h-140l-48 -267h-106zM482 514q-8 31 -33.5 50t-65.5 19h-138l-12 -69h249zM347 368q42 0 76 19t51 51h-254l-12 -70h139z" />
    <glyph glyph-name="uni20B8" unicode="&#x20b8;" horiz-adv-x="540" 
d="M81 684h492l-16 -93h-492zM228 426h-193l17 92h492l-16 -92h-193l-76 -426h-106z" />
    <glyph glyph-name="uni20B9" unicode="&#x20b9;" horiz-adv-x="568" 
d="M92 264l18 105h152q50 0 83 19t47 54h-354l14 76h347q-8 32 -32 52.5t-63 20.5h-239l16 93h520l-13 -76h-118q33 -43 37 -90h65l-14 -76h-55q-19 -81 -86.5 -125.5t-156.5 -46.5h-19l-2 -5l209 -259l-2 -6h-140z" />
    <glyph glyph-name="uni20BA" unicode="&#x20ba;" horiz-adv-x="543" 
d="M114 176l-135 -77l18 103l135 76l15 87l-136 -77l19 104l136 76l38 216h106l-27 -155l139 80l-18 -104l-139 -78l-15 -88l138 81l-17 -104l-140 -79l-24 -138q74 5 126 49t65 113h103q-15 -78 -58.5 -137t-110.5 -91.5t-150 -32.5h-99z" />
    <glyph glyph-name="uni20BD" unicode="&#x20bd;" horiz-adv-x="593" 
d="M56 114h-75l14 76h74l14 77h-75l16 93h76l57 324h229q60 0 106.5 -23.5t73 -67t26.5 -101.5q0 -68 -33.5 -119t-93 -78.5t-135.5 -27.5h-140l-14 -77h133l-14 -76h-133l-20 -114h-106zM347 368q60 0 99 31t39 86q0 43 -28 70.5t-78 27.5h-134l-37 -215h139z" />
    <glyph glyph-name="uni2103" unicode="&#x2103;" horiz-adv-x="971" 
d="M97 474q-35 32 -35 82q0 63 41.5 103.5t104.5 40.5q49 0 84 -32t35 -82q0 -63 -41.5 -103.5t-104.5 -40.5q-49 0 -84 32zM441 25q-69 41 -106.5 111t-37.5 156q0 109 52 202.5t146.5 149.5t213.5 56q75 0 135.5 -29.5t103.5 -84.5l-88 -74q-31 41 -69 62t-99 21
q-79 0 -143.5 -38.5t-102 -106t-37.5 -151.5q0 -64 26 -111.5t73 -73t108 -25.5q65 0 112 22.5t93 69.5l65 -77q-61 -63 -127.5 -91.5t-157.5 -28.5t-160 41zM233.5 531q18.5 19 18.5 46q0 23 -14 38t-37 15q-27 0 -45.5 -19t-18.5 -47q0 -23 14 -37.5t37 -14.5
q27 0 45.5 19z" />
    <glyph glyph-name="uni2109" unicode="&#x2109;" horiz-adv-x="822" 
d="M102 474q-35 32 -35 82q0 63 41.5 103.5t104.5 40.5q49 0 84 -32t35 -82q0 -63 -41.5 -103.5t-104.5 -40.5q-49 0 -84 32zM429 684h418l-18 -105h-309l-34 -193h278l-18 -104h-278l-50 -282h-110zM238.5 531q18.5 19 18.5 46q0 23 -14 38t-37 15q-27 0 -45.5 -19
t-18.5 -47q0 -23 14 -37.5t37 -14.5q27 0 45.5 19z" />
    <glyph glyph-name="uni2113" unicode="&#x2113;" horiz-adv-x="441" 
d="M107.5 27.5q-40.5 35.5 -40.5 99.5q0 23 5 43l17 103h-89l17 95h89l35 196q13 75 57.5 121.5t115.5 46.5q61 0 96.5 -39.5t35.5 -113.5t-32.5 -138t-89 -106.5t-127.5 -55.5l-18 -107q-2 -14 -2 -23q0 -28 15 -42.5t41 -14.5q29 0 52 13l23 -94q-44 -19 -98 -19
q-62 0 -102.5 35.5zM308 451.5q33 53.5 33 124.5q0 30 -10 45t-27 15q-21 0 -35.5 -18t-20.5 -52l-33 -188q60 20 93 73.5z" />
    <glyph glyph-name="uni2114" unicode="&#x2114;" horiz-adv-x="824" 
d="M413.5 6.5q-40.5 22.5 -61.5 57.5h-6l-11 -64h-103l100 572h-96l-101 -572h-110l101 572h-64l12 72h64l13 72h110l-13 -72h96l13 72h110l-13 -72h137l-12 -72h-138l-13 -77l-18 -69h6q25 35 66 57.5t97 22.5q57 0 103.5 -28t73 -79.5t26.5 -120.5q0 -78 -37 -145.5
t-101 -108t-141 -40.5q-49 0 -89.5 22.5zM586.5 109.5q38.5 24.5 61 66t22.5 91.5q0 64 -33 101t-92 37q-49 0 -88 -26t-61 -69t-22 -92q0 -62 36.5 -97.5t91.5 -35.5q46 0 84.5 24.5z" />
    <glyph glyph-name="uni2116" unicode="&#x2116;" horiz-adv-x="1085" 
d="M783.5 433q-43.5 43 -43.5 111q0 52 24.5 95t69.5 68t102 25q66 0 109 -42t43 -108q0 -58 -26.5 -101.5t-71 -67t-98.5 -23.5q-65 0 -108.5 43zM135 716h126l235 -521h6l18 138l68 383h111l-127 -716h-109l-247 548h-6l-18 -138l-73 -410h-111zM976 496.5
q28 30.5 28 76.5q0 37 -21 60t-55 23q-46 0 -75 -32.5t-29 -74.5q0 -38 22 -60.5t56 -22.5q46 0 74 30.5zM732 316h280l-13 -78h-280z" />
    <glyph glyph-name="uni2117" unicode="&#x2117;" horiz-adv-x="532" 
d="M151 303q-53 31 -84 84t-31 115t31 115t84 84t115 31t115 -31t84 -84t31 -115t-31 -115t-84 -84t-115 -31t-115 31zM357.5 344.5q41.5 24.5 66 66.5t24.5 91q0 50 -24.5 91.5t-66 66t-91.5 24.5q-49 0 -91 -24.5t-66.5 -66t-24.5 -91.5q0 -49 25 -90.5t66.5 -66.5
t90.5 -25q50 0 91.5 24.5zM197 615h96q29 0 51 -21t22 -51t-22 -51t-51 -21h-50v-82h-46v226zM289 515q13 0 22 8t9 20q0 11 -8.5 19.5t-21.5 8.5h-47v-56h46z" />
    <glyph glyph-name="prescription" unicode="&#x211e;" horiz-adv-x="707" 
d="M165 -154l200 227l-105 207h-90l-50 -280h-112l127 716h243q60 0 106.5 -24.5t72.5 -68.5t26 -101q0 -88 -57.5 -149.5t-147.5 -79.5l-2 -5l66 -128l113 130h120l-1 -6l-187 -214l117 -224l-2 -6h-119l-71 143l-123 -143h-125zM326 385q60 0 101 34.5t41 94.5
q0 42 -27.5 68.5t-76.5 26.5h-136l-40 -224h138z" />
    <glyph glyph-name="uni2120" unicode="&#x2120;" horiz-adv-x="498" 
d="M165 600q21 -16 21 -47q0 -33 -26 -50t-56 -17q-29 0 -54 16t-34 44l41 18q5 -15 19 -25.5t28 -10.5t25 7t11 18q0 12 -12 20t-40 16q-29 7 -46.5 24t-17.5 42q0 29 23.5 47t56.5 18q25 0 47.5 -14.5t30.5 -37.5l-40 -16q-2 8 -13 17t-25 9q-15 0 -24.5 -6.5t-9.5 -16.5
q0 -16 39 -28q35 -11 56 -27zM430 608l2 44h-2l-66 -162h-32l-66 162h-2l2 -44v-118h-44v226h62l63 -162h2l63 162h62v-226h-44v118z" />
    <glyph glyph-name="trademark" unicode="&#x2122;" horiz-adv-x="501" 
d="M77 674h-69v42h181v-42h-66v-184h-46v184zM433 608l2 44h-2l-66 -162h-32l-66 162h-2l2 -44v-118h-44v226h62l63 -162h2l63 162h62v-226h-44v118z" />
    <glyph glyph-name="Omega" unicode="&#x2126;" horiz-adv-x="812" 
d="M16 102h152l2 6q-52 41 -87 101.5t-35 142.5q0 102 51.5 189t144.5 139t210 52q95 0 166 -40t109 -108t38 -150q0 -106 -56.5 -188t-157.5 -138l-2 -6h146l-17 -102h-288l26 145q65 15 118.5 55.5t84.5 97.5t31 120t-27 109.5t-75 72t-111 25.5q-78 0 -141.5 -36
t-99.5 -97t-36 -133q0 -82 42 -136.5t108 -77.5l-26 -145h-286z" />
    <glyph glyph-name="estimated" unicode="&#x212e;" horiz-adv-x="784" 
d="M218.5 33q-82.5 49 -128.5 134.5t-46 190.5q0 100 44.5 185.5t124 137t179.5 51.5q104 0 182.5 -46.5t122 -131t43.5 -196.5l-1 -23h-551v-184q37 -52 95.5 -77.5t123.5 -25.5q81 0 144 37t98 119l68 -28q-34 -82 -115.5 -137t-195.5 -55q-105 0 -187.5 49zM508.5 648.5
q-53.5 19.5 -116.5 19.5q-61 0 -114 -23t-90 -68v-181h408v194q-34 39 -87.5 58.5z" />
    <glyph glyph-name="onethird" unicode="&#x2153;" horiz-adv-x="826" 
d="M184 612l-52 -38l-37 59l116 83h71l-65 -366h-79zM661 727l61 -47l-588 -692l-63 48zM499.5 18q-35.5 26 -44.5 74l71 26q15 -56 64 -56q25 0 43 14.5t18 37.5q0 21 -15 32.5t-42 11.5h-34l12 64h36q25 0 42 13t17 33q0 16 -12 26t-29 10q-40 0 -61 -40l-65 28
q16 37 52 59.5t84 22.5q49 0 80.5 -26.5t31.5 -65.5q0 -30 -18.5 -54t-45.5 -36q22 -11 34.5 -30.5t12.5 -44.5q0 -54 -42.5 -89.5t-106.5 -35.5q-47 0 -82.5 26z" />
    <glyph glyph-name="twothirds" unicode="&#x2154;" horiz-adv-x="885" 
d="M71 412l154 131q23 20 37 36.5t14 34.5t-12 28.5t-31 10.5q-42 0 -61 -53l-67 28q13 45 50.5 70.5t87.5 25.5q52 0 84 -28t32 -71q0 -36 -18 -61.5t-58 -59.5l-99 -83h144l-14 -71h-254zM720 727l61 -47l-588 -692l-63 48zM547.5 18q-35.5 26 -44.5 74l71 26
q15 -56 64 -56q25 0 43 14.5t18 37.5q0 21 -15 32.5t-42 11.5h-34l12 64h36q25 0 42 13t17 33q0 16 -12 26t-29 10q-40 0 -61 -40l-65 28q16 37 52 59.5t84 22.5q49 0 80.5 -26.5t31.5 -65.5q0 -30 -18.5 -54t-45.5 -36q22 -11 34.5 -30.5t12.5 -44.5q0 -54 -42.5 -89.5
t-106.5 -35.5q-47 0 -82.5 26z" />
    <glyph glyph-name="oneeighth" unicode="&#x215b;" horiz-adv-x="814" 
d="M185 612l-52 -38l-37 59l116 83h71l-65 -366h-79zM657 727l61 -47l-588 -692l-63 48zM479 21.5q-35 29.5 -35 74.5q0 33 20.5 59.5t52.5 39.5q-13 9 -22.5 26t-9.5 37q0 31 18 58t50 42.5t72 15.5q45 0 77.5 -26t32.5 -67q0 -28 -15 -51.5t-40 -37.5q18 -13 28.5 -32
t10.5 -43q0 -56 -43.5 -90.5t-108.5 -34.5q-53 0 -88 29.5zM640.5 235q15.5 13 15.5 35q0 15 -12 25t-29 10q-21 0 -36 -13t-15 -33q0 -16 11.5 -26.5t27.5 -10.5q22 0 37.5 13zM622 75q18 14 18 40q0 19 -14.5 31.5t-38.5 12.5q-25 0 -43.5 -15.5t-18.5 -39.5
q0 -20 15 -31.5t38 -11.5q26 0 44 14z" />
    <glyph glyph-name="threeeighths" unicode="&#x215c;" horiz-adv-x="850" 
d="M113.5 368q-35.5 26 -44.5 74l71 26q15 -56 64 -56q25 0 43 14.5t18 37.5q0 21 -15 32.5t-42 11.5h-34l12 64h36q25 0 42 13t17 33q0 16 -12 26t-29 10q-40 0 -61 -40l-65 28q16 37 52 59.5t84 22.5q49 0 80.5 -26.5t31.5 -65.5q0 -30 -18.5 -54t-45.5 -36
q22 -11 34.5 -30.5t12.5 -44.5q0 -54 -42.5 -89.5t-106.5 -35.5q-47 0 -82.5 26zM698 727l61 -47l-588 -692l-63 48zM517 21.5q-35 29.5 -35 74.5q0 33 20.5 59.5t52.5 39.5q-13 9 -22.5 26t-9.5 37q0 31 18 58t50 42.5t72 15.5q45 0 77.5 -26t32.5 -67q0 -28 -15 -51.5
t-40 -37.5q18 -13 28.5 -32t10.5 -43q0 -56 -43.5 -90.5t-108.5 -34.5q-53 0 -88 29.5zM678.5 235q15.5 13 15.5 35q0 15 -12 25t-29 10q-21 0 -36 -13t-15 -33q0 -16 11.5 -26.5t27.5 -10.5q22 0 37.5 13zM660 75q18 14 18 40q0 19 -14.5 31.5t-38.5 12.5
q-25 0 -43.5 -15.5t-18.5 -39.5q0 -20 15 -31.5t38 -11.5q26 0 44 14z" />
    <glyph glyph-name="fiveeighths" unicode="&#x215d;" horiz-adv-x="856" 
d="M113.5 366q-34.5 23 -43.5 68l72 26q5 -22 20 -34.5t38 -12.5q27 0 47.5 19.5t20.5 47.5q0 23 -14.5 36.5t-35.5 13.5q-20 0 -33.5 -7.5t-25.5 -23.5l-62 28l57 189h214l-12 -66h-151l-24 -74q25 19 61 19q46 0 75.5 -28.5t29.5 -80.5q0 -41 -20.5 -74t-55.5 -51t-77 -18
q-46 0 -80.5 23zM695 727l61 -47l-588 -692l-63 48zM517 21.5q-35 29.5 -35 74.5q0 33 20.5 59.5t52.5 39.5q-13 9 -22.5 26t-9.5 37q0 31 18 58t50 42.5t72 15.5q45 0 77.5 -26t32.5 -67q0 -28 -15 -51.5t-40 -37.5q18 -13 28.5 -32t10.5 -43q0 -56 -43.5 -90.5
t-108.5 -34.5q-53 0 -88 29.5zM678.5 235q15.5 13 15.5 35q0 15 -12 25t-29 10q-21 0 -36 -13t-15 -33q0 -16 11.5 -26.5t27.5 -10.5q22 0 37.5 13zM660 75q18 14 18 40q0 19 -14.5 31.5t-38.5 12.5q-25 0 -43.5 -15.5t-18.5 -39.5q0 -20 15 -31.5t38 -11.5q26 0 44 14z" />
    <glyph glyph-name="seveneighths" unicode="&#x215e;" horiz-adv-x="778" 
d="M271 644h-165l13 72h255l-12 -68l-228 -313l-59 42zM605 727l61 -47l-588 -692l-63 48zM442 21.5q-35 29.5 -35 74.5q0 33 20.5 59.5t52.5 39.5q-13 9 -22.5 26t-9.5 37q0 31 18 58t50 42.5t72 15.5q45 0 77.5 -26t32.5 -67q0 -28 -15 -51.5t-40 -37.5q18 -13 28.5 -32
t10.5 -43q0 -56 -43.5 -90.5t-108.5 -34.5q-53 0 -88 29.5zM603.5 235q15.5 13 15.5 35q0 15 -12 25t-29 10q-21 0 -36 -13t-15 -33q0 -16 11.5 -26.5t27.5 -10.5q22 0 37.5 13zM585 75q18 14 18 40q0 19 -14.5 31.5t-38.5 12.5q-25 0 -43.5 -15.5t-18.5 -39.5
q0 -20 15 -31.5t38 -11.5q26 0 44 14z" />
    <glyph glyph-name="uni2160" unicode="&#x2160;" horiz-adv-x="464" 
d="M-18 102h151l85 480h-153l18 102h416l-19 -102h-152l-85 -480h153l-18 -102h-415z" />
    <glyph glyph-name="uni2161" unicode="&#x2161;" horiz-adv-x="724" 
d="M-18 102h151l85 480h-153l18 102h676l-19 -102h-152l-85 -480h153l-18 -102h-675zM393 102l85 480h-150l-85 -480h150z" />
    <glyph glyph-name="uni2162" unicode="&#x2162;" horiz-adv-x="984" 
d="M-18 102h151l85 480h-153l18 102h936l-19 -102h-152l-85 -480h153l-18 -102h-935zM393 102l85 480h-150l-85 -480h150zM653 102l85 480h-150l-85 -480h150z" />
    <glyph glyph-name="uni2163" unicode="&#x2163;" horiz-adv-x="1006" 
d="M-18 102h151l85 480h-153l18 102h958l-19 -102h-122l-235 -480h273l-18 -102h-957zM498 102l-67 480h-103l-85 -480h255zM596 171l29 68l161 343h-243l43 -343l4 -68h6z" />
    <glyph glyph-name="uni2164" unicode="&#x2164;" horiz-adv-x="762" 
d="M-18 102h272l-67 480h-122l18 102h714l-19 -102h-122l-235 -480h273l-18 -102h-713zM352 171l29 68l161 343h-243l43 -343l4 -68h6z" />
    <glyph glyph-name="uni2165" unicode="&#x2165;" horiz-adv-x="1034" 
d="M-18 102h272l-67 480h-122l18 102h958l-19 -102h-152l-85 -480h153l-18 -102h-957zM352 171l29 68l161 343h-243l43 -343l4 -68h6zM675 102l85 480h-104l-235 -480h254z" />
    <glyph glyph-name="uni2166" unicode="&#x2166;" horiz-adv-x="1274" 
d="M-18 102h272l-67 480h-122l18 102h1218l-19 -102h-152l-85 -480h153l-18 -102h-1217zM352 171l29 68l161 343h-243l43 -343l4 -68h6zM675 102l85 480h-104l-235 -480h254zM935 102l85 480h-150l-85 -480h150z" />
    <glyph glyph-name="uni2167" unicode="&#x2167;" horiz-adv-x="1526" 
d="M-18 102h272l-67 480h-122l18 102h1478l-19 -102h-152l-85 -480h153l-18 -102h-1477zM352 171l29 68l161 343h-243l43 -343l4 -68h6zM675 102l85 480h-104l-235 -480h254zM935 102l85 480h-150l-85 -480h150zM1195 102l85 480h-150l-85 -480h150z" />
    <glyph glyph-name="uni2168" unicode="&#x2168;" horiz-adv-x="952" 
d="M-18 102h151l85 480h-153l18 102h904l-19 -102h-109l-201 -242l115 -238h111l-18 -102h-903zM331 102l202 243l-115 237h-90l-85 -480h88zM612 432l25 35l96 115h-192l55 -115l13 -35h3zM651 102l-57 117l-11 32h-3l-25 -32l-96 -117h192z" />
    <glyph glyph-name="uni2169" unicode="&#x2169;" horiz-adv-x="707" 
d="M-18 102h104l202 243l-115 237h-108l18 102h659l-19 -102h-109l-201 -242l115 -238h111l-18 -102h-658zM367 432l25 35l96 115h-192l55 -115l13 -35h3zM406 102l-57 117l-11 32h-3l-25 -32l-96 -117h192z" />
    <glyph glyph-name="uni216A" unicode="&#x216a;" horiz-adv-x="952" 
d="M-18 102h104l202 243l-115 237h-108l18 102h904l-19 -102h-152l-85 -480h153l-18 -102h-903zM367 432l25 35l96 115h-192l55 -115l13 -35h3zM621 102l85 480h-92l-201 -242l115 -238h93zM406 102l-57 117l-11 32h-3l-25 -32l-96 -117h192z" />
    <glyph glyph-name="uni216B" unicode="&#x216b;" horiz-adv-x="1212" 
d="M-18 102h104l202 243l-115 237h-108l18 102h1164l-19 -102h-152l-85 -480h153l-18 -102h-1163zM367 432l25 35l96 115h-192l55 -115l13 -35h3zM621 102l85 480h-92l-201 -242l115 -238h93zM881 102l85 480h-150l-85 -480h150zM406 102l-57 117l-11 32h-3l-25 -32
l-96 -117h192z" />
    <glyph glyph-name="uni216C" unicode="&#x216c;" horiz-adv-x="639" 
d="M-18 102h127l85 480h-129l18 102h368l-19 -102h-128l-85 -480h238l25 138h110l-43 -240h-586z" />
    <glyph glyph-name="uni216D" unicode="&#x216d;" horiz-adv-x="739" 
d="M188 23.5q-71 39.5 -111 110.5t-40 163q0 103 54 196.5t146.5 150t203.5 56.5q66 0 115.5 -20.5t77.5 -51.5h5l10 56h101l-36 -201h-100q-18 53 -64.5 83.5t-115.5 30.5q-77 0 -142.5 -40t-104.5 -107.5t-39 -145.5q0 -68 28 -117t75.5 -74.5t105.5 -25.5
q71 0 129.5 30.5t110.5 95.5l81 -60q-71 -89 -150 -129t-179 -40q-90 0 -161 39.5z" />
    <glyph glyph-name="uni216E" unicode="&#x216e;" horiz-adv-x="745" 
d="M106 102l84 480h-125l18 102h318q89 0 158.5 -39t108 -108t38.5 -154q0 -114 -54 -201t-147.5 -134.5t-208.5 -47.5h-333l19 102h124zM454.5 136q66.5 34 105 95.5t38.5 140.5q0 98 -56 154t-157 56h-89l-84 -480h94q82 0 148.5 34z" />
    <glyph glyph-name="uni216F" unicode="&#x216f;" horiz-adv-x="994" 
d="M-18 102h125l85 480h-127l18 102h272l105 -513h6l284 513h279l-18 -102h-127l-85 -480h128l-19 -102h-324l18 102h91l50 285l28 122h-6l-286 -509h-87l-106 509h-6l-16 -122l-51 -285h92l-18 -102h-324z" />
    <glyph glyph-name="uni2180" unicode="&#x2180;" horiz-adv-x="1095" 
d="M182.5 39q-69.5 39 -108 108t-38.5 154q0 114 53.5 201t147 134.5t208.5 47.5h295q89 0 158.5 -39t108 -108t38.5 -154q0 -114 -53.5 -201t-147 -134.5t-208.5 -47.5h-295q-89 0 -158.5 39zM445 102l84 480h-93q-82 0 -148.5 -34t-105 -95.5t-38.5 -140.5q0 -98 56 -154
t157 -56h88zM645 102q82 0 148.5 34t105 95.5t38.5 140.5q0 98 -56 154t-157 56h-88l-84 -480h93z" />
    <glyph glyph-name="uni2181" unicode="&#x2181;" horiz-adv-x="742" 
d="M104 102l84 480h-125l18 102h318q88 0 157.5 -39t108.5 -108t39 -154q0 -114 -54 -201t-147.5 -134.5t-208.5 -47.5h-333l18 102h125zM452.5 136q66.5 34 105 95.5t38.5 140.5q0 98 -56 154t-157 56h-89l-12 -70h29q72 0 113.5 -41.5t41.5 -111.5q0 -52 -26 -95
t-73 -67.5t-109 -24.5h-36l-12 -70h94q82 0 148.5 34zM236 252h39q46 0 74.5 28t28.5 74q0 35 -21 56.5t-58 21.5h-31z" />
    <glyph glyph-name="uni2182" unicode="&#x2182;" horiz-adv-x="1084" 
d="M182.5 39q-69.5 39 -108 108t-38.5 154q0 114 53.5 201t147 134.5t208.5 47.5h295q89 0 158.5 -39t108 -108t38.5 -154q0 -114 -53.5 -201t-147 -134.5t-208.5 -47.5h-295q-89 0 -158.5 39zM445 102l12 70h-28q-72 0 -114 41.5t-42 111.5q0 52 26 95t73.5 67.5
t108.5 24.5h36l12 70h-93q-82 0 -148.5 -34t-105 -95.5t-38.5 -140.5q0 -98 56 -154t157 -56h88zM645 102q82 0 148.5 34t105 95.5t38.5 140.5q0 98 -56 154t-157 56h-88l-12 -70h28q72 0 113.5 -41.5t41.5 -111.5q0 -52 -26 -95t-73 -67.5t-108 -24.5h-36l-12 -70h93z
M471 252l32 180h-39q-45 0 -73.5 -28t-28.5 -74q0 -35 20.5 -56.5t57.5 -21.5h31zM617 252q45 0 73.5 28t28.5 74q0 35 -20.5 56.5t-57.5 21.5h-32l-32 -180h40z" />
    <glyph glyph-name="arrowleft" unicode="&#x2190;" horiz-adv-x="1101" 
d="M48 310l217 217v-168h780v-98h-780v-168z" />
    <glyph glyph-name="arrowup" unicode="&#x2191;" horiz-adv-x="514" 
d="M208 610h-168l217 217l217 -217h-168v-742h-98v742z" />
    <glyph glyph-name="arrowright" unicode="&#x2192;" horiz-adv-x="1101" 
d="M836 261h-780v98h780v168l217 -217l-217 -217v168z" />
    <glyph glyph-name="arrowdown" unicode="&#x2193;" horiz-adv-x="514" 
d="M40 60h168v741h98v-741h168l-217 -217z" />
    <glyph glyph-name="uni2196" unicode="&#x2196;" horiz-adv-x="781" 
d="M159 534l-119 -119v307h307l-119 -119l553 -551l-70 -70z" />
    <glyph glyph-name="uni2197" unicode="&#x2197;" horiz-adv-x="781" 
d="M0 52l553 551l-119 119h307v-307l-119 119l-552 -552z" />
    <glyph glyph-name="uni2198" unicode="&#x2198;" horiz-adv-x="781" 
d="M40 301l119 -119l552 552l70 -70l-553 -551l119 -119h-307v307z" />
    <glyph glyph-name="uni2199" unicode="&#x2199;" horiz-adv-x="781" 
d="M553 113l-553 551l70 70l552 -552l119 119v-307h-307z" />
    <glyph glyph-name="uni21C4" unicode="&#x21c4;" horiz-adv-x="1120" 
d="M855 485h-780v98h780v168l217 -217l-217 -217v168zM48 192l217 217v-168h780v-98h-780v-168z" />
    <glyph glyph-name="partialdiff" unicode="&#x2202;" horiz-adv-x="574" 
d="M121.5 12q-49.5 28 -78.5 77.5t-29 111.5q0 74 36 137t99 99.5t140 36.5q36 0 65.5 -11.5t47.5 -29.5l6 4q-20 76 -78.5 127t-142.5 71l36 89q93 -21 161 -75.5t104.5 -137t36.5 -184.5q0 -91 -32 -169t-98.5 -126t-164.5 -48q-59 0 -108.5 28zM324.5 107.5
q36.5 21.5 58 58.5t21.5 82q0 59 -34 92.5t-88 33.5q-45 0 -81.5 -22.5t-56.5 -59.5t-20 -79q0 -59 34 -93t87 -34q43 0 79.5 21.5z" />
    <glyph glyph-name="Delta" unicode="&#x2206;" horiz-adv-x="688" 
d="M341 716h128l138 -716h-657zM469 105l-83 473h-5l-249 -473h337z" />
    <glyph glyph-name="product" unicode="&#x220f;" horiz-adv-x="696" 
d="M143 716h533l-127 -716h-112l108 609h-310l-107 -609h-112z" />
    <glyph glyph-name="summation" unicode="&#x2211;" horiz-adv-x="527" 
d="M386 366l-249 -261h312l-19 -105h-445l20 113l247 256l-161 234l20 113h446l-20 -105h-317z" />
    <glyph glyph-name="minus" unicode="&#x2212;" horiz-adv-x="559" 
d="M49 318h446l-16 -94h-447z" />
    <glyph glyph-name="uni2215" unicode="&#x2215;" horiz-adv-x="457" 
d="M385 716h108l-424 -716h-107z" />
    <glyph glyph-name="radical" unicode="&#x221a;" horiz-adv-x="707" 
d="M24 490h121l44 -287l8 -79h6l35 79l309 613h224l-17 -96h-131l-395 -768h-112z" />
    </font>
</defs>
</svg>
